<svg width="130" height="50" fill="none" xmlns="http://www.w3.org/2000/svg"><path d="M.771 20.207l11.716.003h7.124v-7.057L.771 20.207z" fill="#FF9D28"/><path d="M19.61 13.152v24.917l8.898-28.25-8.897 3.333z" fill="#68C5ED"/><path d="M19.612 20.21l-7.124-.001 7.124 17.86V20.21z" fill="#044D80"/><path d="M.771 20.207l13.543 4.585-1.827-4.582-11.716-.003z" fill="#E54747"/><path d="M43.93 31.511a3.273 3.273 0 01-.516.387 5.66 5.66 0 01-.942.465c-.387.155-.86.288-1.42.4a9.918 9.918 0 01-1.922.168c-1.394 0-2.598-.224-3.613-.671-1.015-.447-1.854-1.071-2.516-1.87-.662-.8-1.148-1.747-1.458-2.84-.31-1.091-.464-2.292-.464-3.6 0-1.307.168-2.515.503-3.625.335-1.11.839-2.068 1.51-2.877a6.934 6.934 0 012.516-1.897c1.006-.456 2.189-.684 3.548-.684.67 0 1.277.06 1.82.18a9.09 9.09 0 011.419.427c.403.163.739.335 1.006.516.266.18.468.332.606.451.155.138.288.302.4.49.112.19.168.396.168.62 0 .344-.13.688-.387 1.032a7.417 7.417 0 01-.852.955 10.419 10.419 0 00-.696-.632 4.713 4.713 0 00-.865-.568c-.318-.163-.68-.3-1.084-.413a5.086 5.086 0 00-1.355-.168c-.877 0-1.612.177-2.206.529a4.231 4.231 0 00-1.432 1.38 5.845 5.845 0 00-.774 1.949 11.32 11.32 0 000 4.555c.155.739.421 1.394.8 1.96a4.272 4.272 0 001.484 1.368c.61.345 1.372.517 2.283.517.482 0 .925-.06 1.33-.181a5.32 5.32 0 001.883-.98 20.7 20.7 0 00.58-.49c.103.12.224.267.362.438.138.174.268.355.387.542.12.19.223.379.31.567.086.19.129.362.129.516 0 .224-.043.414-.13.568a2.436 2.436 0 01-.412.516zm13.298-1.979c0 1.367.2 2.363.597 2.986a5.15 5.15 0 01-.87.26c-.268.05-.549.077-.843.077-.623 0-1.095-.12-1.415-.363-.32-.242-.524-.589-.61-1.04-.382.4-.883.737-1.506 1.014-.623.276-1.385.415-2.284.415-.468 0-.935-.064-1.402-.194a3.685 3.685 0 01-1.272-.633 3.288 3.288 0 01-.934-1.178c-.243-.492-.364-1.092-.364-1.799 0-.88.212-1.596.636-2.148a4.534 4.534 0 011.596-1.307 7.231 7.231 0 012.078-.66 19.83 19.83 0 012.05-.232 7.26 7.26 0 01.61-.026h.558v-.473c0-.665-.177-1.138-.532-1.418-.355-.28-.93-.42-1.726-.42-.744 0-1.407.122-1.986.364-.58.242-1.147.519-1.7.83a3.818 3.818 0 01-.585-.973c-.147-.354-.22-.619-.22-.792 0-.242.133-.475.402-.7.268-.225.636-.43 1.103-.611a8.993 8.993 0 011.61-.441 10.51 10.51 0 011.921-.169c.934 0 1.727.095 2.375.285.65.192 1.177.485 1.584.883.406.399.697.896.87 1.493.172.598.259 1.294.259 2.09v4.88zm-3.323-3.01h-.363c-.122 0-.243.008-.364.026-.433.035-.861.086-1.285.155-.424.07-.801.19-1.13.363a2.377 2.377 0 00-.804.675c-.208.277-.312.632-.312 1.065 0 .484.139.895.416 1.233.277.337.744.506 1.402.506.328 0 .64-.043.934-.13.294-.086.554-.199.78-.337.223-.139.401-.29.531-.454.13-.164.195-.316.195-.454v-2.65zm9.787-5.115c.276-.329.708-.662 1.294-1 .587-.337 1.328-.506 2.226-.506.638 0 1.247.108 1.825.325a4 4 0 011.54 1.051c.448.485.806 1.125 1.074 1.921.267.796.4 1.775.4 2.934 0 1.35-.155 2.461-.466 3.336-.31.874-.711 1.567-1.202 2.077-.492.51-1.04.87-1.644 1.077a5.555 5.555 0 01-1.811.31c-.5 0-.936-.055-1.307-.168a5.227 5.227 0 01-.945-.377 2.492 2.492 0 01-.854-.7v6.381h-3.53V20.264a6.322 6.322 0 01.68-.091c.14-.009.305-.013.496-.013.576 0 1.064.096 1.465.286.401.191.655.51.76.96zm4.673 4.802c0-.519-.043-1.003-.129-1.453a3.541 3.541 0 00-.426-1.169 2.072 2.072 0 00-.8-.765c-.336-.182-.744-.273-1.226-.273-.723 0-1.226.14-1.51.416-.284.277-.426.58-.426.908v5.504c.137.139.382.303.735.493s.761.286 1.227.286c.878 0 1.522-.346 1.936-1.039.413-.692.62-1.662.62-2.908zm6.412 4.466c-.122-.346-.2-.71-.234-1.091-.035-.38-.052-.76-.052-1.142V16.396c.12-.017.25-.035.39-.052.12-.017.25-.03.389-.039a6.76 6.76 0 01.415-.012 4.5 4.5 0 01.831.078c.276.052.527.155.753.311.224.156.406.368.545.636.138.268.208.619.208 1.051v1.843h3.634v2.623H78.02v5.536c0 1.207.494 1.81 1.48 1.81.242 0 .471-.038.688-.116a4.08 4.08 0 00.584-.26 3.548 3.548 0 00.727-.532c.26.382.459.711.597.99.138.278.208.54.208.784 0 .227-.091.45-.273.668-.182.218-.438.42-.766.603a4.751 4.751 0 01-1.194.445 6.47 6.47 0 01-1.532.17c-1.074 0-1.909-.207-2.506-.622a3.317 3.317 0 01-1.257-1.636zm15.821-.338c.434 0 .816-.047 1.146-.143a4.57 4.57 0 00.886-.35c.26-.138.486-.29.677-.454.191-.164.365-.316.522-.454a7.2 7.2 0 01.65 1c.226.406.34.74.34 1 0 .38-.217.726-.65 1.038-.363.277-.878.515-1.544.714-.667.199-1.45.298-2.35.298a9.364 9.364 0 01-2.402-.311 5.302 5.302 0 01-2.102-1.091c-.615-.519-1.113-1.216-1.493-2.09-.381-.873-.572-1.977-.572-3.31 0-1.09.17-2.028.507-2.816.337-.787.788-1.44 1.35-1.96a5.313 5.313 0 011.908-1.142 6.711 6.711 0 012.181-.364c.969 0 1.791.152 2.466.455.675.303 1.224.71 1.648 1.22a4.8 4.8 0 01.922 1.752c.19.658.285 1.35.285 2.077v.363c0 .14-.004.286-.012.441-.01.156-.018.309-.026.455a2.862 2.862 0 01-.04.35h-7.658c.07.952.364 1.744.886 2.375.521.632 1.346.947 2.475.947zm1.183-5.27c0-.83-.161-1.505-.483-2.025-.322-.519-.901-.779-1.736-.779-.714 0-1.284.247-1.71.74-.427.493-.64 1.181-.64 2.064h4.57zm9.337-3.595c.104-.154.243-.326.416-.515s.385-.36.636-.515a4.08 4.08 0 01.831-.386c.302-.104.627-.155.973-.155.208 0 .429.018.662.052.234.035.45.099.649.193.199.095.359.223.48.386a.986.986 0 01.182.605c0 .378-.095.811-.285 1.3-.191.491-.381.909-.572 1.255a3.867 3.867 0 00-.882-.558 2.562 2.562 0 00-1.039-.195c-.536 0-.986.156-1.349.468-.364.313-.546.686-.546 1.12v8.404h-3.53V20.265a6.111 6.111 0 01.675-.091c.138-.009.303-.013.493-.013.554 0 1.034.107 1.441.322.406.213.662.544.765.99zm10.039 0a4.45 4.45 0 01.415-.515c.173-.189.385-.36.636-.515a4.08 4.08 0 01.831-.386c.302-.104.627-.155.973-.155.207 0 .428.018.662.052.234.035.45.099.649.193.199.095.359.223.48.386a.986.986 0 01.182.605c0 .378-.096.811-.285 1.3-.191.491-.382.909-.572 1.255a3.845 3.845 0 00-.882-.558 2.56 2.56 0 00-1.038-.195c-.537 0-.987.156-1.35.468-.364.313-.545.686-.545 1.12v8.404h-3.531V20.265a6.07 6.07 0 01.675-.091c.138-.009.303-.013.493-.013.554 0 1.034.107 1.441.322.406.213.662.544.766.99zm16.848 8.06c0 1.367.199 2.363.597 2.986-.311.12-.601.207-.869.26a4.47 4.47 0 01-.844.077c-.623 0-1.095-.12-1.415-.363-.32-.242-.524-.589-.61-1.04-.381.4-.883.737-1.506 1.014-.623.276-1.385.415-2.284.415a5.21 5.21 0 01-1.402-.194 3.683 3.683 0 01-1.272-.633 3.288 3.288 0 01-.934-1.178c-.243-.492-.364-1.092-.364-1.799 0-.88.212-1.596.636-2.148a4.53 4.53 0 011.597-1.307 7.225 7.225 0 012.077-.66c.743-.12 1.427-.197 2.051-.232a7.25 7.25 0 01.61-.026h.558v-.473c0-.665-.178-1.138-.532-1.418-.355-.28-.931-.42-1.727-.42-.744 0-1.406.122-1.985.364-.581.242-1.147.519-1.701.83a3.828 3.828 0 01-.584-.973c-.147-.354-.221-.619-.221-.792 0-.242.134-.475.403-.7.268-.225.635-.43 1.103-.611a8.977 8.977 0 011.609-.441 10.512 10.512 0 011.921-.169c.935 0 1.727.095 2.376.285.649.192 1.177.485 1.583.883.407.399.697.896.87 1.493.173.598.259 1.294.259 2.09v4.88zm-3.323-3.01h-.363c-.122 0-.243.008-.364.026-.433.035-.861.086-1.286.155-.424.07-.8.19-1.129.363a2.38 2.38 0 00-.804.675c-.208.277-.312.632-.312 1.065 0 .484.139.895.416 1.233.276.337.744.506 1.401.506.329 0 .641-.043.935-.13.294-.086.554-.199.779-.337.224-.139.402-.29.532-.454.13-.164.195-.316.195-.454v-2.65z" fill="#044D80"/></svg>