<svg width="120" height="46" fill="none" xmlns="http://www.w3.org/2000/svg"><path d="M31.476 23.641l-7.455-8.095c-.258-.26-.645-.26-.884 0l-1.473 1.599 5.983 6.496c.24.26.24.7 0 .96l-6.166 6.696 1.472 1.6c.258.26.644.26.884 0l7.62-8.276c.258-.28.258-.7.019-.98z" fill="#009C9C"/><path d="M18.775 16.145l-.534-.58c-.258-.26-.644-.26-.884 0l-1.472 1.6.975 1.059 1.915 2.079 1.914-2.08-1.914-2.078zM18.61 28.18l-1.915 2.079-.975 1.06 1.472 1.598c.258.26.645.26.884 0l.534-.58 1.914-2.078-1.914-2.08z" fill="#40E3E3"/><path d="M21.885 23.642c.24.28.24.7 0 .96L18.61 28.16l1.914 2.079 5.191-5.637a.73.73 0 000-.96l-5.007-5.437-1.932 2.079 3.11 3.358z" fill="#1ABAB8"/><path d="M9.718 23.841l5.191-5.637-1.914-2.079-.553-.58c-.257-.26-.644-.26-.883 0l-7.62 8.296a.73.73 0 000 .96l7.454 8.096c.258.26.644.26.884 0l.552-.58 1.914-2.079-5.006-5.437a.71.71 0 01-.019-.96z" fill="#87F0F0"/><path d="M15.498 23.842l2.283-2.479-1.915-2.079-.975-1.06-5.154 5.638a.73.73 0 000 .96l4.988 5.416.976-1.059 1.914-2.079-2.117-2.299c-.24-.24-.24-.68 0-.96z" fill="#40E3E3"/><path d="M15.498 24.8l2.117 2.3 2.283-2.48a.73.73 0 000-.959l-2.117-2.299-2.283 2.479c-.22.28-.22.7 0 .96z" fill="#17CFCF"/><path d="M37.458 21.942a8.29 8.29 0 01.497-2.678c.295-.78.736-1.5 1.289-2.08a5.824 5.824 0 012.098-1.338 8.09 8.09 0 012.909-.48 8.147 8.147 0 013.24.54c.736.3 1.435.74 2.024 1.319.46.44.81.98 1.05 1.579.183.44.294.9.349 1.38a.57.57 0 01-.166.48.63.63 0 01-.441.179h-1.823a.549.549 0 01-.386-.14.715.715 0 01-.203-.28c-.037-.06-.11-.2-.24-.42a2.58 2.58 0 00-.607-.68 4.66 4.66 0 00-1.086-.639c-.534-.2-1.123-.3-1.693-.28-.976-.06-1.951.3-2.706.98-.681.68-1.068 1.639-1.086 2.658-.037.62-.037 1.28-.037 2 0 .699 0 1.379.037 1.998.037 1.36.405 2.34 1.086 2.939.773.64 1.73.96 2.688.92.515 0 1.03-.06 1.527-.2.442-.12.847-.34 1.197-.64.35-.3.626-.7.791-1.16.203-.56.295-1.159.276-1.759v-.2H45.3a.515.515 0 01-.424-.2.678.678 0 01-.184-.46v-1.738c0-.36.276-.66.608-.66h5.19c.332 0 .608.3.608.66v2.678a7.89 7.89 0 01-.423 2.699c-.276.8-.718 1.52-1.289 2.119a5.966 5.966 0 01-2.135 1.4 9.235 9.235 0 01-5.964 0 5.604 5.604 0 01-2.08-1.34 6.054 6.054 0 01-1.27-2.12 8.92 8.92 0 01-.479-2.698c0-.3-.018-.66-.037-1.02v-2.299c0-.379.019-.699.037-1.019zm20.579.76a2.73 2.73 0 00-1.123.2c-.294.12-.552.3-.773.54-.202.2-.368.46-.478.74-.11.24-.184.5-.203.759h5.08a5.02 5.02 0 00-.165-.76 2.008 2.008 0 00-1.141-1.279 2.751 2.751 0 00-1.197-.2zm-5.504 3.658c0-.88.13-1.739.387-2.578.24-.78.608-1.5 1.105-2.12a5.075 5.075 0 011.748-1.399 5.3 5.3 0 012.264-.52c.773-.02 1.546.16 2.264.5.663.32 1.27.78 1.767 1.36.479.58.866 1.24 1.123 1.979.258.76.405 1.559.387 2.378v1.1c0 .36-.276.66-.608.66h-7.51c0 .34.074.68.203.98.147.279.331.519.57.699.258.2.534.34.829.44.313.1.644.14.975.14.387.02.792-.04 1.178-.16.258-.08.516-.22.737-.4.128-.1.257-.2.405-.28a1 1 0 01.423-.08h1.804a.62.62 0 01.442.2.53.53 0 01.165.46c-.055.32-.165.62-.35.88a3.689 3.689 0 01-.975 1.059c-.497.38-1.05.68-1.62.88a6.051 6.051 0 01-2.209.359c-.773 0-1.546-.16-2.264-.48-.663-.3-1.27-.76-1.748-1.34a6.255 6.255 0 01-1.105-2.098 7.764 7.764 0 01-.387-2.619zm16.439 1.759c-.019.44.11.88.368 1.2.24.299.7.459 1.38.459h1.363c.331 0 .607.3.607.66v1.619c0 .36-.276.66-.607.66h-1.675c-1.418 0-2.485-.38-3.24-1.12-.755-.74-1.123-1.88-1.141-3.398V22.94h-1.491a.515.515 0 01-.424-.2.679.679 0 01-.184-.46v-1.618c0-.18.055-.34.184-.46.11-.12.258-.2.424-.2h1.49v-3.978c0-.36.277-.66.608-.66h1.712c.331 0 .607.3.607.66v3.978h2.909c.331.02.57.3.589.66v1.619c0 .36-.276.66-.608.66h-2.908l.037 5.177zm14.78-1.779l-2.485-6.956-2.466 6.956h4.951zM82.5 15.606c.203-.02.387.06.534.2.147.18.258.4.331.62l5.504 15.451c.019.06.019.12.019.16 0 .36-.276.66-.608.66h-1.62a.8.8 0 01-.625-.2c-.11-.12-.184-.26-.24-.4l-.975-2.719h-7.105l-.976 2.72c-.055.16-.147.279-.24.399-.183.16-.404.24-.625.2h-1.62c-.331 0-.608-.3-.608-.66 0-.06 0-.12.019-.16l5.504-15.452c.073-.22.184-.44.331-.62.147-.14.35-.22.534-.2H82.5zm16.033 11.432c.037-.46.037-.919 0-1.359-.092-1.06-.387-1.819-.902-2.279a2.599 2.599 0 00-1.86-.7 2.6 2.6 0 00-1.858.7c-.534.52-.829 1.26-.865 2.02a5.05 5.05 0 00-.037.919c0 .32.018.62.037.92.036.759.35 1.479.865 1.998.515.5 1.178.76 1.859.74a2.69 2.69 0 001.859-.7c.515-.46.81-1.219.902-2.259zm-2.08 5.918c-.424 0-.847-.04-1.252-.14-.331-.08-.662-.2-.975-.36a4.13 4.13 0 01-.7-.5c-.166-.14-.331-.3-.478-.48v5.198c0 .36-.277.66-.608.66h-1.693c-.332 0-.608-.3-.608-.66V20.662c0-.36.276-.66.608-.66h1.712c.33 0 .607.3.607.66v.56c.147-.18.294-.34.478-.48.221-.18.46-.34.718-.48.313-.16.645-.28.976-.36.405-.1.828-.14 1.252-.14.7-.02 1.399.16 2.043.48.589.3 1.123.74 1.546 1.28.442.54.773 1.159 1.012 1.838.24.7.387 1.42.424 2.16.018.24.018.519.018.859 0 .34 0 .62-.018.86-.037.739-.166 1.479-.424 2.158-.239.68-.57 1.3-1.012 1.84-.423.54-.957.959-1.546 1.279-.681.3-1.38.46-2.08.44zm14.8-5.918c.037-.46.037-.919 0-1.359-.092-1.06-.387-1.819-.902-2.279a2.6 2.6 0 00-1.859-.7 2.598 2.598 0 00-1.859.7c-.534.52-.829 1.26-.866 2.02-.036.3-.055.619-.036.919 0 .32.018.62.036.92.037.759.35 1.479.866 1.998.515.5 1.178.76 1.859.74.681.02 1.343-.24 1.859-.7.515-.46.81-1.219.902-2.259zm-2.099 5.897c-.423 0-.846-.04-1.251-.14-.332-.08-.663-.2-.976-.36a3.72 3.72 0 01-.699-.479 3.68 3.68 0 01-.479-.48v5.198a.68.68 0 01-.184.46c-.11.12-.258.2-.423.2h-1.712c-.332 0-.608-.3-.608-.66V20.662c0-.36.276-.66.608-.66h1.712c.331 0 .607.3.607.66v.56c.147-.18.313-.34.479-.48.22-.18.46-.34.699-.48.313-.16.644-.28.976-.36.405-.1.828-.14 1.251-.14.7-.02 1.399.16 2.044.48.589.3 1.122.74 1.546 1.28.442.54.773 1.159 1.012 1.838.239.7.387 1.42.424 2.16.018.24.018.519.018.859 0 .34 0 .62-.018.86-.037.739-.166 1.479-.424 2.158-.239.68-.57 1.3-1.012 1.84a5.15 5.15 0 01-1.546 1.279c-.645.32-1.344.48-2.044.48" fill="#424A52"/></svg>