<svg width="84" height="45" fill="none" xmlns="http://www.w3.org/2000/svg"><path d="M20.81 18.34h-9.756v2.887h6.92c-.342 4.048-3.72 5.774-6.908 5.774-4.08 0-7.639-3.2-7.639-7.685 0-4.369 3.393-7.734 7.648-7.734 3.282 0 5.216 2.086 5.216 2.086l2.027-2.092s-2.602-2.889-7.347-2.889C4.928 8.688.253 13.773.253 19.265c0 5.382 4.398 10.63 10.872 10.63 5.694 0 9.862-3.89 9.862-9.64 0-1.214-.176-1.915-.176-1.915z" fill="#4885ED"/><path d="M28.803 16.251c-4.004 0-6.873 3.12-6.873 6.76 0 3.693 2.783 6.872 6.92 6.872 3.745 0 6.813-2.854 6.813-6.793 0-4.514-3.57-6.839-6.86-6.839zm.04 2.677c1.968 0 3.834 1.587 3.834 4.144 0 2.503-1.858 4.136-3.843 4.136-2.182 0-3.904-1.743-3.904-4.155 0-2.361 1.7-4.125 3.913-4.125z" fill="#DB3236"/><path d="M43.75 16.251c-4.004 0-6.873 3.12-6.873 6.76 0 3.693 2.783 6.872 6.92 6.872 3.744 0 6.812-2.854 6.812-6.793 0-4.514-3.568-6.839-6.86-6.839zm.04 2.677c1.968 0 3.834 1.587 3.834 4.144 0 2.503-1.858 4.136-3.844 4.136-2.181 0-3.903-1.743-3.903-4.155 0-2.361 1.7-4.125 3.912-4.125z" fill="#F4C20D"/><path d="M58.41 16.258c-3.674 0-6.563 3.209-6.563 6.81 0 4.103 3.349 6.824 6.5 6.824 1.948 0 2.984-.771 3.75-1.657v1.345c0 2.351-1.433 3.76-3.594 3.76-2.089 0-3.136-1.549-3.5-2.427l-2.627 1.095c.932 1.965 2.808 4.014 6.148 4.014 3.654 0 6.439-2.294 6.439-7.106V16.668h-2.867v1.154c-.88-.947-2.086-1.564-3.686-1.564zm.266 2.672c1.802 0 3.652 1.534 3.652 4.153 0 2.662-1.846 4.13-3.692 4.13-1.959 0-3.782-1.587-3.782-4.105 0-2.617 1.894-4.178 3.822-4.178z" fill="#4885ED"/><path d="M77.707 16.241c-3.466 0-6.377 2.75-6.377 6.807 0 4.293 3.244 6.84 6.71 6.84 2.892 0 4.667-1.578 5.727-2.992l-2.363-1.567c-.614.948-1.639 1.876-3.35 1.876-1.922 0-2.805-1.05-3.353-2.066l9.167-3.792-.476-1.112c-.885-2.176-2.951-3.993-5.685-3.993zm.12 2.622c1.248 0 2.147.662 2.529 1.456l-6.122 2.55c-.264-1.974 1.613-4.006 3.592-4.006z" fill="#DB3236"/><path d="M66.96 29.483h3.012V9.393H66.96v20.09z" fill="#3CBA54"/></svg>