<svg width="196" height="46" fill="none" xmlns="http://www.w3.org/2000/svg"><path d="M170.478 12.774c0-.968.782-1.724 1.714-1.724h12.746c.962 0 1.713.786 1.713 1.724v6.291c0 .968-.781 1.724-1.713 1.724h-1.323c-.962 0-2.405.393-3.247.847l-4.629 2.601c-.842.454-1.172.121-.782-.726l.542-1.18c.39-.877-.061-1.572-1.023-1.572h-2.314a1.718 1.718 0 01-1.714-1.724v-6.261" fill="url(#paint0_linear_2_5942)"/><path d="M170.479 29.166c.091 0 .181-.03.241-.06s.09-.09.09-.212c0-.06 0-.12-.03-.151l-.09-.09c-.03-.031-.09-.031-.12-.031h-.451v.514l.36.03zm0-.907c.271 0 .481.06.602.181a.66.66 0 01.21.484c0 .182-.06.333-.15.424a.686.686 0 01-.361.181l.511.877h-.511l-.511-.846h-.18v.846h-.451V28.29l.841-.03zm-1.322 1.603c.06.182.15.333.27.454.121.12.271.242.421.302.181.06.361.121.541.121.211 0 .391-.03.541-.12.181-.061.301-.182.421-.303s.211-.272.271-.454c.06-.181.09-.363.09-.544 0-.182-.03-.363-.09-.545a1.143 1.143 0 00-.271-.454c-.12-.12-.27-.241-.421-.302-.18-.06-.36-.121-.541-.121-.21 0-.391.03-.541.121-.18.06-.3.181-.421.302-.12.121-.21.273-.27.454-.06.182-.09.363-.09.545 0 .211.03.393.09.544zm-.541-1.3c.09-.243.24-.454.42-.636.181-.181.391-.332.632-.423.24-.09.481-.151.751-.151.271 0 .511.06.752.15.24.091.451.243.631.424.181.182.331.393.421.635.09.242.15.484.15.757 0 .272-.06.514-.15.756s-.24.453-.421.635c-.18.181-.391.302-.631.423a2.08 2.08 0 01-.752.151c-.27 0-.511-.06-.751-.15a1.794 1.794 0 01-.632-.424 1.803 1.803 0 01-.42-.635 2.1 2.1 0 01-.151-.756c0-.273.06-.515.151-.757zm-4.6-5.142h-2.826c-.21 0-.271-.122-.271-.273l.03-.363c.061-.756.752-1.3 1.684-1.3.902 0 1.623.544 1.683 1.27l.03.363c0 .181-.06.302-.33.302zm-1.473-4.9c-3.037 0-5.231 2.207-5.231 4.718v3.357c0 2.813 2.074 4.749 5.231 4.749 1.713 0 2.946-.605 3.817-1.452a6.372 6.372 0 001.023-1.391c.15-.273.09-.545-.091-.636l-2.555-1.3c-.15-.09-.3-.03-.391.212-.36.907-.962 1.33-1.833 1.33-.962 0-1.624-.635-1.624-1.482v-.574c0-.182.091-.272.301-.272h6.253c.15 0 .27-.091.27-.273v-2.268c-.03-2.48-2.164-4.718-5.17-4.718zm-11.184 3.176c.812 0 1.383.515 1.834 1.573.09.182.21.242.391.151l2.525-1.149c.15-.09.21-.242.12-.454-.241-.544-.481-1.028-.812-1.451-.841-1.15-2.104-1.785-4.088-1.785-3.217 0-5.141 1.936-5.141 4.749v3.176c0 2.812 1.924 4.718 5.141 4.718 1.804 0 3.006-.545 3.848-1.512.451-.484.781-1.09 1.052-1.755.09-.211.03-.332-.12-.423l-2.525-1.18c-.181-.09-.301-.03-.391.152-.451 1.028-1.022 1.572-1.834 1.572-.962 0-1.563-.665-1.563-1.512v-3.388c0-.786.631-1.482 1.563-1.482zm-7.425-2.812h-3.066c-.181 0-.271.09-.271.272V30.71c0 .181.09.272.271.272h3.066c.15 0 .24-.09.24-.272V19.156c-.03-.212-.12-.272-.24-.272zm-1.563-5.113a1.815 1.815 0 000 3.63c.992 0 1.804-.817 1.804-1.815.03-.998-.812-1.815-1.804-1.815zm-3.398 5.113h-3.276a.289.289 0 00-.271.212l-1.924 5.595c-.09.272-.27.968-.3 1.3h-.091c-.06-.332-.18-.967-.3-1.3l-2.014-5.626c-.06-.12-.121-.181-.271-.181h-3.277c-.24 0-.3.151-.24.363l4.629 11.523c.061.121.151.182.271.182h2.405c.12 0 .24-.06.27-.182l4.66-11.523c.06-.212-.03-.363-.271-.363zm-16.923 7.591c0 .846-.691 1.512-1.593 1.512-.932 0-1.563-.635-1.563-1.512v-3.116c0-.847.631-1.452 1.563-1.452.932 0 1.593.636 1.593 1.452v3.116zm3.307-11.887h-3.036a.269.269 0 00-.271.272v3.6c0 .393.09 1.149.09 1.149-.511-.454-1.382-.726-1.984-.726-2.825 0-4.84 1.905-4.84 4.718v2.632c0 3.024 1.744 4.718 4.9 4.718.722 0 1.564-.242 2.105-.696.15-.12.33-.09.33.121v.393c0 .091.091.182.211.182h2.495c.15 0 .27-.09.27-.272v-15.85c0-.15-.12-.241-.27-.241zm-16.775 10.798h-1.563c-.271 0-.361-.151-.301-.303l.541-2.117a17.34 17.34 0 00.511-2.783h.091c.06.666.21 1.815.451 2.783l.541 2.117c.06.121-.06.303-.271.303zm.601-10.617c-.06-.12-.12-.181-.27-.181h-2.315c-.15 0-.21.06-.27.181l-5.021 15.85c-.09.211.03.332.271.332h3.246c.121 0 .181-.06.241-.181l.751-2.36c.061-.12.091-.15.271-.15h3.397c.18 0 .24.03.271.15l.721 2.36c.06.12.09.181.271.181h3.276c.271 0 .331-.121.271-.333l-5.111-15.849zM92.018 23.42h-2.826c-.21 0-.27-.122-.27-.273l.03-.363c.06-.756.751-1.3 1.683-1.3.902 0 1.623.544 1.683 1.27l.03.363c-.03.181-.06.302-.33.302zm-1.503-4.9c-3.036 0-5.23 2.207-5.23 4.718v3.357c0 2.813 2.073 4.749 5.23 4.749 1.713 0 2.946-.605 3.818-1.452.42-.423.751-.907 1.022-1.391.15-.273.09-.545-.09-.636l-2.556-1.3c-.15-.09-.3-.03-.39.212-.361.907-.962 1.33-1.834 1.33-.962 0-1.623-.635-1.623-1.482v-.574c0-.182.09-.272.3-.272h6.223c.15 0 .27-.091.27-.273v-2.268c.03-2.48-2.104-4.718-5.14-4.718zm-6.764.424a3.8 3.8 0 00-.661-.06c-.992 0-1.924.453-2.315.998-.12.12-.33.09-.33-.121v-.605c0-.181-.09-.272-.27-.272h-2.466c-.15 0-.27.09-.27.272V30.71c0 .181.09.272.27.272h3.036c.15 0 .27-.09.27-.272v-6.896c0-.907.632-1.573 1.564-1.573.39 0 .721.06 1.022.121.24.06.39-.03.39-.272v-2.934c0-.09-.09-.212-.24-.212zm-13.678 9.225h-.962c-.54 0-.842-.333-.842-1.059 0-.514.361-.877.872-.877h2.195c.15 0 .21.273.21.363-.06.938-.781 1.573-1.473 1.573zm-.09-9.588c-1.593 0-2.796.514-3.668 1.33a6.642 6.642 0 00-1.202 1.543c-.15.273-.09.545.09.636l2.555 1.3c.15.09.301.03.391-.212.361-.907.962-1.33 1.834-1.33.962 0 1.563.665 1.563 1.482v.12c0 .182-.09.273-.27.273H68.99c-2.285 0-4.118 1.24-4.118 3.418v.272c0 2.208 1.653 3.539 3.877 3.539h.902c.692 0 1.473-.242 2.014-.666.09-.09.24-.06.271.03l.09.454c.03.121.12.212.27.212h2.526c.15 0 .27-.09.27-.272v-7.35c0-2.813-1.954-4.779-5.11-4.779zm-6.133.303h-3.127c-.15 0-.27.09-.27.212l-1.172 4.87c-.12.543-.24 1.33-.271 1.874h-.09c-.03-.544-.12-1.24-.27-1.875l-1.173-4.87a.264.264 0 00-.27-.211H54.65c-.15 0-.24.09-.27.212l-1.143 4.87c-.12.543-.24 1.24-.27 1.753h-.06a9.215 9.215 0 00-.271-1.754l-1.202-4.87c-.03-.12-.09-.211-.271-.211h-3.187c-.24 0-.3.12-.24.332l3.637 11.554c.06.121.12.182.271.182h2.285c.15 0 .24-.06.27-.182l1.413-5.383c.15-.605.27-1.603.27-1.603h.09s.121 1.028.271 1.603l1.383 5.353c.03.121.09.212.27.212h2.255c.12 0 .21-.06.27-.182l3.699-11.553c.06-.182-.03-.333-.271-.333zm-17.405 0h-1.743c-.24 0-.301-.09-.301-.272v-1.634c0-.181-.06-.242-.24-.242h-1.624c-.09 0-.24.06-.3.121l-3.217 3.237v1.754c0 .181.09.242.27.242h1.293c.24 0 .3.09.3.272v4.053c0 3.115 1.925 4.718 4.39 4.718h1.082c.24 0 .33-.09.33-.272V28.2c0-.15-.09-.272-.27-.272h-.42c-1.053 0-1.564-.635-1.564-1.754v-3.78c0-.182.09-.273.3-.273h1.744c.18 0 .24-.06.24-.242v-2.752c-.03-.182-.09-.242-.27-.242zm-7.725-4.416a10.127 10.127 0 00-1.834-.182c-3.818 0-5.26 2.662-5.26 4.779v.635c0 .182-.09.272-.271.272h-.602c-.15 0-.27.091-.27.273v2.722c0 .181.09.272.27.272h.602c.24 0 .27.09.27.272v7.229c0 .181.09.272.27.272h3.037c.18 0 .27-.09.27-.272v-7.23c0-.181.09-.272.271-.272h1.684c.18 0 .27-.09.27-.272v-2.722c0-.182-.09-.273-.27-.273h-1.684c-.21 0-.27-.09-.27-.272v-.695c0-.908.63-1.482 1.623-1.482.33 0 .691.06.992.12.18.06.27 0 .33-.15l.812-2.662c.03-.182-.03-.333-.24-.363zM25.372 26.627c0 .846-.661 1.512-1.563 1.512-.962 0-1.623-.666-1.623-1.512v-3.388c0-.817.66-1.512 1.623-1.512.902 0 1.563.665 1.563 1.512v3.387zm-1.563-8.046c-3.157 0-5.23 1.936-5.23 4.749v3.176c0 2.812 2.073 4.718 5.23 4.718 3.096 0 5.17-1.906 5.17-4.718V23.33c0-2.813-2.074-4.749-5.17-4.749zm-10.763 2.602c-1.412-.544-2.945-.938-2.945-2.117 0-.938.69-1.573 1.593-1.573h.39c.872 0 1.473.424 1.834 1.33.09.243.24.273.391.213l2.555-1.3c.15-.092.24-.364.09-.636-.21-.393-.45-.787-.781-1.12-.902-.997-2.195-1.753-4.088-1.753h-.391c-3.217 0-5.231 1.935-5.231 4.87 0 2.993 1.924 4.113 4.299 5.08 1.563.636 2.886.968 2.886 2.269 0 1.058-.812 1.542-1.744 1.542h-.631c-.872 0-1.473-.423-1.834-1.33-.09-.242-.24-.273-.39-.212l-2.556 1.3c-.15.091-.24.364-.09.636.24.423.511.816.842 1.21.871.998 2.164 1.663 3.998 1.663h.812c3.276 0 5.2-1.905 5.2-4.84 0-3.054-1.773-4.264-4.208-5.232z" fill="#2D2E2C"/><defs><linearGradient id="paint0_linear_2_5942" x1="178.574" y1="13.48" x2="178.574" y2="25.711" gradientUnits="userSpaceOnUse"><stop stop-color="#F2C069"/><stop offset="1" stop-color="#EB8F3B"/></linearGradient></defs></svg>