<svg width="36" height="18" fill="none" xmlns="http://www.w3.org/2000/svg"><path d="M33.51 2.49C31.88.861 29.63 0 27 0c-5.37 0-7.973 4.42-10.27 8.32-2.172 3.685-4.047 6.867-7.73 6.867-3.817 0-6.188-2.37-6.188-6.187S5.184 2.812 9 2.812c1.632 0 3.108.655 4.511 2a1.406 1.406 0 101.947-2.03C13.531.936 11.358 0 9 0 6.37 0 4.12.861 2.49 2.49.861 4.12 0 6.37 0 9s.861 4.88 2.49 6.51C4.12 17.139 6.37 18 9 18c4.324 0 6.84-2.93 8.859-6.112.327.556.725 1.163 1.196 1.77C21.258 16.499 24.005 18 27 18c1.034 0 2.022-.136 2.937-.404a1.406 1.406 0 10-.792-2.7 7.63 7.63 0 01-2.145.291c-4.262 0-6.712-4.523-7.445-6.122C21.585 5.642 23.47 2.813 27 2.813c3.817 0 6.188 2.37 6.188 6.187a7.52 7.52 0 01-.357 2.37 1.406 1.406 0 002.67.885c.331-1 .499-2.095.499-3.255 0-2.63-.861-4.88-2.49-6.51z" fill="#8DA2C3"/></svg>