<svg width="36" height="36" fill="none" xmlns="http://www.w3.org/2000/svg"><g clip-path="url(#clip0_2_5556)" fill="#8DA2C3"><path d="M19.3 15.223v-.62a1.405 1.405 0 001.67-2.115c-.361-.514-.96-.96-1.726-1.194a1.407 1.407 0 00-2.723.078c-1.147.393-1.971 1.478-2.065 2.735-.093 1.26.596 2.394 1.797 2.96.064.03.143.064.234.103v1.125a1.407 1.407 0 00-1.946 2.003c.533.66 1.266 1.065 2.015 1.287a1.407 1.407 0 002.64.092c1.405-.344 2.38-1.35 2.55-2.693.203-1.603-.8-3.135-2.447-3.761z"/><path d="M18 5.402c-6.103 0-11.069 4.941-11.069 11.014C6.931 22.49 11.897 27.43 18 27.43c6.103 0 11.069-4.941 11.069-11.014 0-6.073-4.966-11.014-11.07-11.014zm0 19.215c-4.553 0-8.256-3.679-8.256-8.201S13.447 8.215 18 8.215c4.552 0 8.256 3.679 8.256 8.201S22.552 24.617 18 24.617z"/><path d="M29.665 4.805A16.437 16.437 0 0018 0 16.44 16.44 0 006.334 4.805 16.265 16.265 0 001.5 16.415c0 2.983.865 5.878 2.572 8.607 1.335 2.133 3.184 4.165 5.496 6.038 3.887 3.148 7.731 4.765 7.893 4.832a1.405 1.405 0 001.08 0c.122-.05 3.017-1.266 6.32-3.634a1.406 1.406 0 10-1.64-2.286A34.456 34.456 0 0118 33.051C15.4 31.825 4.311 26.03 4.311 16.416c0-7.501 6.14-13.604 13.689-13.604 7.548 0 13.689 6.103 13.689 13.604 0 3.154-1.194 6.2-3.55 9.054a1.406 1.406 0 002.17 1.79c2.782-3.37 4.192-7.02 4.192-10.844a16.26 16.26 0 00-4.836-11.61z"/></g><defs><clipPath id="clip0_2_5556"><path fill="#fff" d="M0 0h36v36H0z"/></clipPath></defs></svg>