<svg width="38" height="39" fill="none" xmlns="http://www.w3.org/2000/svg"><g opacity=".5" clip-path="url(#clip0_2_5525)" fill="#fff"><path d="M36.378 6.562L34.695 4.88l1.939-1.939a1.113 1.113 0 10-1.575-1.574l-1.938 1.939-1.683-1.684A3.85 3.85 0 0028.16.541l-6.975 1.044a3.87 3.87 0 00-2.148 1.084L.623 21.082a3.841 3.841 0 00-.003 5.426L11.492 37.38a3.82 3.82 0 002.71 1.12 3.83 3.83 0 002.716-1.123L35.33 18.963a3.87 3.87 0 001.084-2.148l1.043-6.975a3.848 3.848 0 00-1.08-3.278zm-1.122 2.949l-1.044 6.974c-.05.34-.212.66-.455.903L15.343 35.802c-.305.305-.71.473-1.14.473h-.001c-.43 0-.833-.167-1.136-.47L2.195 24.934a1.596 1.596 0 01-.47-1.137c0-.43.168-.836.473-1.14L20.612 4.243c.243-.243.563-.405.903-.455l6.974-1.044a1.613 1.613 0 011.374.452l1.683 1.683-1.827 1.828a3.415 3.415 0 00-1.505-.348c-.915 0-1.775.357-2.423 1.004a3.43 3.43 0 000 4.846 3.404 3.404 0 002.423 1.003c.915 0 1.776-.356 2.423-1.003a3.404 3.404 0 001.003-2.423c0-.53-.12-1.042-.346-1.505l1.827-1.827 1.683 1.683c.358.358.527.872.452 1.374zm-5.842.275c0 .32-.125.622-.352.848a1.192 1.192 0 01-.848.351 1.201 1.201 0 010-2.4 1.198 1.198 0 011.2 1.201z"/><path d="M13.137 17.448a1.113 1.113 0 00-1.574 0l-5.125 5.125a1.114 1.114 0 001.575 1.574l5.124-5.124a1.113 1.113 0 000-1.575zm7.85-.436a1.113 1.113 0 00-1.574 0l-9.268 9.268a1.113 1.113 0 101.575 1.575l9.267-9.268a1.113 1.113 0 000-1.575zm2.133 3.708l-9.268 9.268a1.113 1.113 0 101.575 1.574l9.267-9.268a1.113 1.113 0 10-1.574-1.575z"/></g><defs><clipPath id="clip0_2_5525"><path fill="#fff" transform="translate(0 .5)" d="M0 0h38v38H0z"/></clipPath></defs></svg>