<svg width="60" height="61" fill="none" xmlns="http://www.w3.org/2000/svg"><g clip-path="url(#clip0_2_6164)" fill="#24336A"><path d="M14.134 44.012c-4.546 0-8.244 3.699-8.244 8.245 0 4.545 3.698 8.244 8.244 8.244 4.547 0 8.245-3.699 8.245-8.245 0-4.545-3.698-8.244-8.245-8.244zm0 12.33a4.092 4.092 0 01-4.087-4.086 4.092 4.092 0 014.087-4.088 4.092 4.092 0 014.088 4.088 4.092 4.092 0 01-4.088 4.087z"/><path d="M14.959 12.656L6.783 9.123a2.077 2.077 0 10-1.649 3.816l6.922 2.99v30.09a2.078 2.078 0 104.157 0V14.564c0-.83-.493-1.579-1.254-1.908zm34.583 42.563l-3.464-4.157a2.081 2.081 0 00-1.597-.747H20.924a2.078 2.078 0 100 4.157h22.583l2.841 3.409a2.075 2.075 0 001.599.748 2.079 2.079 0 001.596-3.41zm4.5-39.754h-29.03c-1.148 0-2.079.93-2.079 2.078V43.04c0 1.148.93 2.078 2.079 2.078h29.03c1.148 0 2.078-.93 2.078-2.078V17.543c0-1.148-.93-2.078-2.078-2.078zM51.963 40.96H27.09V19.622h24.873v21.34z"/><path d="M40.808.5H25.012c-1.148 0-2.079.93-2.079 2.079v14.965h4.157V4.657h11.64v12.887h4.157V2.579c0-1.149-.93-2.079-2.079-2.079zM38.73 24.264h-5.404a2.078 2.078 0 100 4.157h5.404a2.078 2.078 0 100-4.157zm3.395 8.799h-8.799a2.078 2.078 0 100 4.157h8.8a2.078 2.078 0 100-4.157z"/></g><defs><clipPath id="clip0_2_6164"><path fill="#fff" transform="translate(0 .5)" d="M0 0h60v60H0z"/></clipPath></defs></svg>