<svg width="36" height="36" fill="none" xmlns="http://www.w3.org/2000/svg"><g clip-path="url(#clip0_2_5563)" fill="#8DA2C3"><path d="M24.782 15.469c0-.777-.63-1.406-1.406-1.406H8.892a1.406 1.406 0 100 2.812h14.484c.777 0 1.406-.63 1.406-1.406zm-15.89 4.219a1.406 1.406 0 100 2.812h8.797a1.406 1.406 0 000-2.813H8.892z"/><path d="M12.196 33.188H7.493a2.816 2.816 0 01-2.812-2.813V5.625a2.816 2.816 0 012.812-2.813h17.29a2.816 2.816 0 012.812 2.813v8.648a1.406 1.406 0 102.812 0V5.625A5.631 5.631 0 0024.782 0H7.493a5.631 5.631 0 00-5.625 5.625v24.75A5.631 5.631 0 007.493 36h4.703a1.406 1.406 0 100-2.813z"/><path d="M32.898 20.36a4.223 4.223 0 00-5.965 0l-7.72 7.703a1.406 1.406 0 00-.353.587l-1.681 5.535a1.406 1.406 0 001.72 1.764l5.677-1.572c.233-.065.446-.189.618-.36l7.704-7.69a4.224 4.224 0 000-5.966zm-9.43 11.405l-2.855.791.836-2.751 5.21-5.198 1.988 1.99-5.178 5.168zm7.442-7.428l-.272.272-1.989-1.988.272-.271a1.408 1.408 0 011.989 0c.548.548.548 1.44 0 1.987zM23.376 8.438H8.892a1.406 1.406 0 100 2.812h14.484a1.406 1.406 0 000-2.813z"/></g><defs><clipPath id="clip0_2_5563"><path fill="#fff" d="M0 0h36v36H0z"/></clipPath></defs></svg>