<svg width="74" height="14" viewBox="0 0 74 14" fill="none" xmlns="http://www.w3.org/2000/svg">
<path d="M6.52447 1.46352C6.67415 1.00287 7.32585 1.00287 7.47553 1.46353L8.45934 4.49139C8.52628 4.6974 8.71826 4.83688 8.93487 4.83688H12.1186C12.6029 4.83688 12.8043 5.45669 12.4124 5.74139L9.83679 7.61271C9.66155 7.74003 9.58822 7.96572 9.65516 8.17173L10.639 11.1996C10.7886 11.6602 10.2614 12.0433 9.86955 11.7586L7.29389 9.88729C7.11865 9.75997 6.88135 9.75997 6.70611 9.88729L4.13045 11.7586C3.73859 12.0433 3.21136 11.6602 3.36103 11.1996L4.34484 8.17173C4.41178 7.96572 4.33845 7.74003 4.16321 7.61271L1.58755 5.74139C1.1957 5.45669 1.39708 4.83688 1.88145 4.83688H5.06513C5.28174 4.83688 5.47372 4.6974 5.54066 4.49139L6.52447 1.46352Z" fill="#044D80"/>
<path d="M21.5245 1.46352C21.6741 1.00287 22.3259 1.00287 22.4755 1.46353L23.4593 4.49139C23.5263 4.6974 23.7183 4.83688 23.9349 4.83688H27.1186C27.6029 4.83688 27.8043 5.45669 27.4124 5.74139L24.8368 7.61271C24.6615 7.74003 24.5882 7.96572 24.6552 8.17173L25.639 11.1996C25.7886 11.6602 25.2614 12.0433 24.8695 11.7586L22.2939 9.88729C22.1186 9.75997 21.8814 9.75997 21.7061 9.88729L19.1305 11.7586C18.7386 12.0433 18.2114 11.6602 18.361 11.1996L19.3448 8.17173C19.4118 7.96572 19.3385 7.74003 19.1632 7.61271L16.5876 5.74139C16.1957 5.45669 16.3971 4.83688 16.8814 4.83688H20.0651C20.2817 4.83688 20.4737 4.6974 20.5407 4.49139L21.5245 1.46352Z" fill="#044D80"/>
<path d="M36.5245 1.46352C36.6741 1.00287 37.3259 1.00287 37.4755 1.46353L38.4593 4.49139C38.5263 4.6974 38.7183 4.83688 38.9349 4.83688H42.1186C42.6029 4.83688 42.8043 5.45669 42.4124 5.74139L39.8368 7.61271C39.6615 7.74003 39.5882 7.96572 39.6552 8.17173L40.639 11.1996C40.7886 11.6602 40.2614 12.0433 39.8695 11.7586L37.2939 9.88729C37.1186 9.75997 36.8814 9.75997 36.7061 9.88729L34.1305 11.7586C33.7386 12.0433 33.2114 11.6602 33.361 11.1996L34.3448 8.17173C34.4118 7.96572 34.3385 7.74003 34.1632 7.61271L31.5876 5.74139C31.1957 5.45669 31.3971 4.83688 31.8814 4.83688H35.0651C35.2817 4.83688 35.4737 4.6974 35.5407 4.49139L36.5245 1.46352Z" fill="#044D80"/>
<path d="M51.5245 1.46352C51.6741 1.00287 52.3259 1.00287 52.4755 1.46353L53.4593 4.49139C53.5263 4.6974 53.7183 4.83688 53.9349 4.83688H57.1186C57.6029 4.83688 57.8043 5.45669 57.4124 5.74139L54.8368 7.61271C54.6615 7.74003 54.5882 7.96572 54.6552 8.17173L55.639 11.1996C55.7886 11.6602 55.2614 12.0433 54.8695 11.7586L52.2939 9.88729C52.1186 9.75997 51.8814 9.75997 51.7061 9.88729L49.1305 11.7586C48.7386 12.0433 48.2114 11.6602 48.361 11.1996L49.3448 8.17173C49.4118 7.96572 49.3385 7.74003 49.1632 7.61271L46.5876 5.74139C46.1957 5.45669 46.3971 4.83688 46.8814 4.83688H50.0651C50.2817 4.83688 50.4737 4.6974 50.5407 4.49139L51.5245 1.46352Z" fill="#044D80"/>
<path d="M66.5245 1.46352C66.6741 1.00287 67.3259 1.00287 67.4755 1.46353L68.4593 4.49139C68.5263 4.6974 68.7183 4.83688 68.9349 4.83688H72.1186C72.6029 4.83688 72.8043 5.45669 72.4124 5.74139L69.8368 7.61271C69.6615 7.74003 69.5882 7.96572 69.6552 8.17173L70.639 11.1996C70.7886 11.6602 70.2614 12.0433 69.8695 11.7586L67.2939 9.88729C67.1186 9.75997 66.8814 9.75997 66.7061 9.88729L64.1305 11.7586C63.7386 12.0433 63.2114 11.6602 63.361 11.1996L64.3448 8.17173C64.4118 7.96572 64.3385 7.74003 64.1632 7.61271L61.5876 5.74139C61.1957 5.45669 61.3971 4.83688 61.8814 4.83688H65.0651C65.2817 4.83688 65.4737 4.6974 65.5407 4.49139L66.5245 1.46352Z" fill="#044D80"/>
</svg>
