<svg width="36" height="18" viewBox="0 0 36 18" fill="none" xmlns="http://www.w3.org/2000/svg">
<path d="M33.5096 2.4904C31.8804 0.861188 29.6294 0 27 0C21.6303 0 19.0266 4.41984 16.7292 8.31938C14.5582 12.0047 12.6832 15.1875 9 15.1875C5.18344 15.1875 2.8125 12.8166 2.8125 9C2.8125 5.18344 5.18344 2.8125 9 2.8125C10.632 2.8125 12.1076 3.46655 13.5113 4.81205C14.0719 5.34945 14.9621 5.33074 15.4995 4.77C16.037 4.20933 16.0182 3.31917 15.4575 2.7817C13.5319 0.935929 11.3593 0 9 0C6.37066 0 4.11968 0.861188 2.4904 2.4904C0.861187 4.11968 0 6.37066 0 9C0 11.6293 0.861187 13.8803 2.4904 15.5096C4.11968 17.1388 6.37066 18 9 18C13.3244 18 15.8397 15.0706 17.8587 11.8882C18.1863 12.4439 18.5839 13.0508 19.0553 13.6586C21.2576 16.4988 24.0049 18 27 18C28.0338 18 29.0219 17.8639 29.9367 17.5957C30.6821 17.3772 31.1091 16.5959 30.8905 15.8506C30.672 15.1053 29.8907 14.6784 29.1454 14.8968C28.4877 15.0897 27.7658 15.1875 27 15.1875C22.7379 15.1875 20.2875 10.6637 19.555 9.06539C21.585 5.64209 23.4696 2.8125 27 2.8125C30.8166 2.8125 33.1875 5.18344 33.1875 9C33.1875 9.85852 33.0675 10.656 32.8309 11.3703C32.5868 12.1075 32.9864 12.9032 33.7236 13.1474C34.4611 13.3917 35.2565 12.9919 35.5007 12.2547C35.832 11.2546 36 10.1596 36 9C36 6.37059 35.1388 4.11968 33.5096 2.4904Z" fill="#8DA2C3"/>
</svg>
