<svg width="16" height="17" viewBox="0 0 16 17" fill="none" xmlns="http://www.w3.org/2000/svg">
<path d="M5.40789 2.48337C4.7065 1.83888 3.62839 1.83888 2.927 2.48337C2.89828 2.50976 2.86761 2.54043 2.82779 2.58026L2.22946 3.17859C1.62739 3.78067 1.37464 4.64861 1.55935 5.4798C2.60733 10.1957 6.29035 13.8787 11.0063 14.9267C11.8374 15.1114 12.7054 14.8587 13.3075 14.2566L13.9057 13.6583C13.9456 13.6185 13.9763 13.5878 14.0027 13.5591C14.6472 12.8577 14.6472 11.7796 14.0027 11.0782C13.9763 11.0494 13.9456 11.0188 13.9057 10.9789L12.9262 9.9994C12.2462 9.31933 11.2191 9.12483 10.3375 9.50914C9.83277 9.72915 9.2448 9.6178 8.85547 9.22846L7.2576 7.63059C6.86826 7.24125 6.75691 6.65329 6.97692 6.14855C7.36123 5.26691 7.16673 4.23989 6.48666 3.55982L5.50711 2.58027C5.46728 2.54044 5.43662 2.50976 5.40789 2.48337Z" fill="white"/>
</svg>
