<svg width="36" height="36" viewBox="0 0 36 36" fill="none" xmlns="http://www.w3.org/2000/svg">
<g clip-path="url(#clip0_2_5556)">
<path d="M19.2992 15.223V14.6032C19.7252 14.7725 20.2255 14.7304 20.6285 14.4471C21.2639 14.0004 21.4168 13.1232 20.9701 12.4879C20.6085 11.9736 20.0107 11.5274 19.2444 11.2938C19.0754 10.7067 18.5343 10.2773 17.8929 10.2773C17.2234 10.2773 16.6632 10.7452 16.5213 11.3719C15.374 11.7646 14.5496 12.8499 14.4565 14.1071C14.3632 15.3669 15.0518 16.5009 16.2534 17.0664C16.3175 17.0966 16.3957 17.1312 16.4867 17.1696V18.2951C15.9837 17.9124 15.2668 17.906 14.7526 18.3207C14.1482 18.8085 14.0537 19.6938 14.5414 20.2982C15.0742 20.9584 15.8071 21.3634 16.5562 21.5852C16.7403 22.1474 17.2692 22.5535 17.8929 22.5535C18.4821 22.5535 18.9866 22.1912 19.1958 21.6773C20.6009 21.333 21.5751 20.327 21.7454 18.9836C21.9486 17.3812 20.9463 15.8487 19.2992 15.223Z" fill="#8DA2C3"/>
<path d="M17.9999 5.40234C11.8966 5.40234 6.93115 10.3431 6.93115 16.4161C6.93115 22.4891 11.8966 27.4298 17.9999 27.4298C24.1032 27.4298 29.0686 22.489 29.0686 16.416C29.0686 10.3431 24.1032 5.40234 17.9999 5.40234ZM17.9999 24.6173C13.4474 24.6173 9.74365 20.9382 9.74365 16.416C9.74365 11.8939 13.4474 8.21484 17.9999 8.21484C22.5523 8.21484 26.2561 11.8939 26.2561 16.4161C26.2561 20.9383 22.5523 24.6173 17.9999 24.6173Z" fill="#8DA2C3"/>
<path d="M29.6654 4.80523C26.5491 1.70655 22.4062 0 18 0C13.5938 0 9.45088 1.70655 6.33449 4.80523C3.21592 7.90608 1.49854 12.0294 1.49854 16.4157C1.49854 19.3977 2.36415 22.2933 4.07127 25.0219C5.40594 27.1553 7.25502 29.1866 9.56725 31.0597C13.4541 34.2084 17.2982 35.8249 17.46 35.8922C17.6328 35.9641 17.8164 36.0001 18 36.0001C18.1837 36.0001 18.3673 35.9641 18.5401 35.8922C18.6617 35.8416 21.5572 34.6259 24.8597 32.258C25.4909 31.8055 25.6357 30.927 25.1832 30.2958C24.7306 29.6645 23.8519 29.5199 23.2209 29.9723C20.9953 31.568 18.9419 32.6079 18.0005 33.051C15.4007 31.8252 4.31118 26.03 4.31118 16.4157C4.31096 8.91492 10.4518 2.8125 18 2.8125C25.5481 2.8125 31.689 8.91492 31.689 16.4157C31.689 19.5699 30.4949 22.6164 28.1399 25.4703C27.6456 26.0693 27.7304 26.9556 28.3294 27.45C28.9286 27.9443 29.8149 27.8594 30.3091 27.2604C33.0909 23.8892 34.5014 20.2406 34.5014 16.4157C34.5015 12.0294 32.784 7.90601 29.6654 4.80523Z" fill="#8DA2C3"/>
</g>
<defs>
<clipPath id="clip0_2_5556">
<rect width="36" height="36" fill="white"/>
</clipPath>
</defs>
</svg>
