<svg width="38" height="39" viewBox="0 0 38 39" fill="none" xmlns="http://www.w3.org/2000/svg">
<g opacity="0.5" clip-path="url(#clip0_2_5525)">
<path d="M36.3783 6.56241L34.6951 4.87915L36.6337 2.94048C37.0686 2.50589 37.0686 1.80082 36.6337 1.36623C36.1989 0.931356 35.4941 0.931356 35.0592 1.36623L33.1205 3.30462L31.4376 1.62136C30.582 0.766104 29.3568 0.362829 28.1595 0.541708L21.1852 1.58541C20.3775 1.7063 19.6148 2.09102 19.0372 2.66854L0.623464 21.082C-0.873376 22.5789 -0.874536 25.013 0.620275 26.5081L11.4919 37.3794C12.2387 38.1265 13.2201 38.4999 14.2017 38.4999C15.1851 38.4999 16.1688 38.1254 16.9177 37.3762L35.3314 18.9627C35.909 18.3849 36.2937 17.6222 36.4146 16.8147L37.4583 9.8405C37.6374 8.64314 37.2339 7.41796 36.3783 6.56241ZM35.2561 9.51087L34.2124 16.4854C34.1616 16.8246 33.9998 17.1452 33.7569 17.3882L15.3434 35.8017C15.0384 36.1067 14.6337 36.2745 14.2032 36.2748C14.2029 36.2748 14.2023 36.2748 14.2017 36.2748C13.7726 36.2748 13.3694 36.1081 13.0664 35.8049L2.19481 24.9336C1.89156 24.63 1.72457 24.2265 1.72486 23.7968C1.72544 23.3663 1.8933 22.9613 2.198 22.6566L20.6118 4.24308C20.8547 4.00013 21.1754 3.83835 21.5149 3.78762L28.4891 2.74392C28.5677 2.73203 28.6465 2.72652 28.7251 2.72652C29.1481 2.72652 29.5609 2.89409 29.863 3.19619L31.5463 4.87915L29.7189 6.7065C29.2562 6.48007 28.7445 6.35947 28.214 6.35947C27.299 6.35947 26.4385 6.71607 25.7911 7.36316C24.4555 8.6991 24.4555 10.8729 25.7914 12.2085C26.4385 12.8556 27.299 13.2122 28.214 13.2122C29.1292 13.2122 29.9897 12.8556 30.6368 12.2085C31.2839 11.5614 31.6405 10.701 31.6405 9.786C31.6405 9.25545 31.5199 8.74375 31.2935 8.28104L33.1208 6.45369L34.8038 8.13695C35.1621 8.49529 35.3311 9.00902 35.2561 9.51087ZM29.4137 9.78571C29.4137 10.1064 29.289 10.4076 29.0623 10.634C28.8358 10.8604 28.5346 10.9854 28.214 10.9854C27.8936 10.9854 27.5924 10.8607 27.366 10.634C26.8983 10.1664 26.8983 9.40505 27.366 8.93741C27.5924 8.71098 27.8936 8.58632 28.214 8.58632C28.5346 8.58632 28.8358 8.71098 29.0623 8.93741C29.289 9.16412 29.4137 9.46535 29.4137 9.78571Z" fill="white"/>
<path d="M13.1374 17.4482C12.7028 17.0134 11.9977 17.0134 11.5631 17.4482L6.43824 22.5728C6.00366 23.0077 6.00366 23.7127 6.43824 24.1473C6.65568 24.3648 6.94067 24.4735 7.22566 24.4735C7.51036 24.4735 7.79534 24.3648 8.01278 24.1473L13.1374 19.0228C13.5722 18.5879 13.5722 17.8831 13.1374 17.4482Z" fill="white"/>
<path d="M20.9873 17.0125C20.5527 16.5779 19.8477 16.5779 19.4131 17.0125L10.145 26.2805C9.71013 26.7154 9.71013 27.4202 10.145 27.8551C10.3624 28.0725 10.6474 28.1812 10.9321 28.1812C11.2171 28.1812 11.5021 28.0725 11.7195 27.8551L20.9873 18.587C21.4222 18.1524 21.4222 17.4473 20.9873 17.0125Z" fill="white"/>
<path d="M23.1201 20.7195L13.852 29.9876C13.4172 30.4224 13.4172 31.1272 13.852 31.5621C14.0695 31.7795 14.3545 31.8882 14.6394 31.8882C14.9241 31.8882 15.2091 31.7795 15.4266 31.5621L24.6943 22.294C25.1292 21.8594 25.1292 21.1544 24.6943 20.7195C24.2598 20.2849 23.5547 20.2849 23.1201 20.7195Z" fill="white"/>
</g>
<defs>
<clipPath id="clip0_2_5525">
<rect width="38" height="38" fill="white" transform="translate(0 0.5)"/>
</clipPath>
</defs>
</svg>
