<svg width="60" height="61" viewBox="0 0 60 61" fill="none" xmlns="http://www.w3.org/2000/svg">
<g clip-path="url(#clip0_2_6164)">
<path d="M14.1345 44.0117C9.58809 44.0117 5.88965 47.7107 5.88965 52.2566C5.88965 56.8024 9.58809 60.5006 14.1345 60.5006C18.6809 60.5006 22.3793 56.8021 22.3793 52.2564C22.3793 47.7107 18.6809 44.0117 14.1345 44.0117ZM14.1345 56.3429C11.88 56.3429 10.0468 54.5096 10.0468 52.2559C10.0468 50.0014 11.8807 48.1681 14.1345 48.1681C16.3884 48.1681 18.2222 50.0014 18.2222 52.2559C18.2222 54.5096 16.3889 56.3429 14.1345 56.3429Z" fill="#24336A"/>
<path d="M14.959 12.656L6.78342 9.12254C5.72956 8.66668 4.506 9.1516 4.05085 10.2062C3.59569 11.2599 4.08061 12.4836 5.13448 12.9387L12.0559 15.9297V46.0191C12.0559 47.1672 12.9864 48.0977 14.1345 48.0977C15.2826 48.0977 16.213 47.1672 16.213 46.0191V14.564C16.213 13.7348 15.7204 12.985 14.959 12.656Z" fill="#24336A"/>
<path d="M49.542 55.219L46.0779 51.062C45.6822 50.5888 45.0982 50.3145 44.4808 50.3145H20.9243C19.7762 50.3145 18.8457 51.2449 18.8457 52.393C18.8457 53.5411 19.7762 54.4716 20.9243 54.4716H43.5068L46.3481 57.881C46.7596 58.3744 47.3506 58.6286 47.9465 58.6286C48.4149 58.6286 48.8867 58.4713 49.2761 58.147C50.158 57.4118 50.2771 56.1009 49.542 55.219Z" fill="#24336A"/>
<path d="M54.0417 15.4648H25.0117C23.8636 15.4648 22.9331 16.3953 22.9331 17.5434V43.0399C22.9331 44.188 23.8636 45.1184 25.0117 45.1184H54.0417C55.1904 45.1184 56.1203 44.1887 56.1203 43.0399V17.5434C56.1203 16.3954 55.1898 15.4648 54.0417 15.4648ZM51.9631 40.9614H27.0902V19.622H51.9631V40.9614Z" fill="#24336A"/>
<path d="M40.8084 0.5H25.0117C23.8636 0.5 22.9331 1.43047 22.9331 2.57855V17.5439H27.0901V4.65699H38.7299V17.5439H42.8869V2.57855C42.887 1.43047 41.9565 0.5 40.8084 0.5Z" fill="#24336A"/>
<path d="M38.7302 24.2637H33.3261C32.178 24.2637 31.2476 25.1941 31.2476 26.3422C31.2476 27.4903 32.178 28.4208 33.3261 28.4208H38.7302C39.8783 28.4208 40.8088 27.4903 40.8088 26.3422C40.8087 25.1941 39.8782 24.2637 38.7302 24.2637Z" fill="#24336A"/>
<path d="M42.1251 33.0625H33.3261C32.178 33.0625 31.2476 33.993 31.2476 35.1411C31.2476 36.2891 32.178 37.2196 33.3261 37.2196H42.1251C43.2732 37.2196 44.2037 36.2891 44.2037 35.1411C44.2036 33.993 43.2731 33.0625 42.1251 33.0625Z" fill="#24336A"/>
</g>
<defs>
<clipPath id="clip0_2_6164">
<rect width="60" height="60" fill="white" transform="translate(0 0.5)"/>
</clipPath>
</defs>
</svg>
