<svg width="36" height="36" viewBox="0 0 36 36" fill="none" xmlns="http://www.w3.org/2000/svg">
<g clip-path="url(#clip0_2_5563)">
<path d="M24.7822 15.4688C24.7822 14.6921 24.1526 14.0625 23.376 14.0625H8.8916C8.11493 14.0625 7.48535 14.6921 7.48535 15.4688C7.48535 16.2454 8.11493 16.875 8.8916 16.875H23.376C24.1526 16.875 24.7822 16.2454 24.7822 15.4688Z" fill="#8DA2C3"/>
<path d="M8.8916 19.6875C8.11493 19.6875 7.48535 20.3171 7.48535 21.0938C7.48535 21.8704 8.11493 22.5 8.8916 22.5H17.6885C18.4651 22.5 19.0947 21.8704 19.0947 21.0938C19.0947 20.3171 18.4651 19.6875 17.6885 19.6875H8.8916Z" fill="#8DA2C3"/>
<path d="M12.1963 33.1875H7.49316C5.94235 33.1875 4.68066 31.9258 4.68066 30.375V5.625C4.68066 4.07419 5.94235 2.8125 7.49316 2.8125H24.7822C26.333 2.8125 27.5947 4.07419 27.5947 5.625V14.2734C27.5947 15.0501 28.2243 15.6797 29.001 15.6797C29.7777 15.6797 30.4072 15.0501 30.4072 14.2734V5.625C30.4072 2.52338 27.8839 0 24.7822 0H7.49316C4.39154 0 1.86816 2.52338 1.86816 5.625V30.375C1.86816 33.4766 4.39154 36 7.49316 36H12.1963C12.973 36 13.6025 35.3704 13.6025 34.5938C13.6025 33.8171 12.973 33.1875 12.1963 33.1875Z" fill="#8DA2C3"/>
<path d="M32.8982 20.3608C31.2533 18.7159 28.5769 18.7158 26.9331 20.3597L19.2126 28.0631C19.0486 28.2267 18.9277 28.4282 18.8603 28.6499L17.1789 34.1852C17.0298 34.676 17.1597 35.2089 17.5179 35.576C17.7862 35.851 18.1507 36.0003 18.5246 36.0003C18.6496 36.0003 18.7759 35.9835 18.8999 35.9491L24.5759 34.3769C24.8094 34.3122 25.0223 34.1882 25.1939 34.017L32.8983 26.3271C34.5431 24.6822 34.5431 22.0058 32.8982 20.3608ZM23.4687 31.7652L20.6132 32.5562L21.4489 29.805L26.6582 24.6071L28.6474 26.5962L23.4687 31.7652ZM30.9105 24.3375L30.6381 24.6094L28.6493 22.6206L28.9208 22.3496C29.4691 21.8014 30.3612 21.8014 30.9095 22.3496C31.4578 22.8979 31.4578 23.7901 30.9105 24.3375Z" fill="#8DA2C3"/>
<path d="M23.376 8.4375H8.8916C8.11493 8.4375 7.48535 9.06708 7.48535 9.84375C7.48535 10.6204 8.11493 11.25 8.8916 11.25H23.376C24.1526 11.25 24.7822 10.6204 24.7822 9.84375C24.7822 9.06708 24.1526 8.4375 23.376 8.4375Z" fill="#8DA2C3"/>
</g>
<defs>
<clipPath id="clip0_2_5563">
<rect width="36" height="36" fill="white"/>
</clipPath>
</defs>
</svg>
