<svg width="26" height="26" fill="none" xmlns="http://www.w3.org/2000/svg"><path d="M25.62 22.47h-.61V11.399a2.058 2.058 0 00-2.056-2.056h-2.718V7.829l2.523-3.49a.981.981 0 01-.024 1.12l-1.63 2.254c-.284.394.333.842.618.446l1.63-2.254a1.74 1.74 0 00.308-1.302 1.735 1.735 0 00-.439-.906l.767-1.061c.26-.36.364-.8.293-1.238a1.665 1.665 0 00-2.99-.71l-3.375 4.673a2.737 2.737 0 00-.4-.03H8.33c-1.5 0-2.72 1.22-2.72 2.72v1.292H3.046A2.058 2.058 0 00.99 11.399v6.767c0 .492.762.492.762 0V11.4c0-.714.58-1.294 1.294-1.294h2.565v.905H2.895a.38.38 0 00-.381.381V22.47h-.762v-2.272c0-.492-.762-.492-.762 0v2.272H.38a.38.38 0 00-.38.38v.933c0 1.04.846 1.886 1.886 1.886H20.82c.492 0 .492-.762 0-.762H1.886c-.62 0-1.124-.504-1.124-1.124v-.551h10.207v.005a1.24 1.24 0 001.239 1.239h1.585a1.24 1.24 0 001.238-1.239v-.005h10.207v.551c0 .62-.504 1.124-1.124 1.124h-1.16c-.492 0-.492.762 0 .762h1.16c1.04 0 1.886-.846 1.886-1.886v-.932a.38.38 0 00-.38-.381zM15.51 10.58l.904.654-.928.33.023-.984zm1.628.237l-1.46-1.055 5.04-6.977L22.18 3.84l-5.041 6.977zm4.772-9.683a.902.902 0 011.461 1.056l-.746 1.032-1.46-1.055.745-1.033zm-7.64 22.103a.478.478 0 01-.478.477h-1.585a.478.478 0 01-.477-.477v-.005h2.54v.005zM3.275 22.47V11.772h2.336v1.707a2.724 2.724 0 002.339 2.693v2.896a.38.38 0 00.65.269l3.139-3.139h3.8c.491 0 .491-.761 0-.761h-3.958a.381.381 0 00-.27.111l-2.6 2.6v-2.33a.38.38 0 00-.38-.381 1.96 1.96 0 01-1.958-1.958V8.05a1.96 1.96 0 011.958-1.958h9.057l-2.551 3.531a.391.391 0 00-.072.215l-.053 2.262a.386.386 0 00.509.367l2.13-.76a.385.385 0 00.181-.136l1.943-2.688v4.595a1.96 1.96 0 01-1.958 1.958c-.491 0-.491.761 0 .761 1.5 0 2.72-1.22 2.72-2.719v-1.707h2.488V22.47H3.275zm20.211 0V11.391a.38.38 0 00-.38-.38h-2.87v-.906h2.718c.713 0 1.294.58 1.294 1.294V22.47h-.762z" fill="#9B51E0"/><path d="M13.152 11.729H8.938a.38.38 0 100 .762h4.214a.38.38 0 100-.762zm0-2.69H8.938a.38.38 0 100 .761h4.214a.38.38 0 100-.761z" fill="#9B51E0"/></svg>