<svg width="24" height="23" fill="none" xmlns="http://www.w3.org/2000/svg"><path d="M8.157 5.893h14.114l-7.71 6.054a1.03 1.03 0 01-.534.208 1.049 1.049 0 01-.538-.208L7.98 7.62a.589.589 0 00-.196-.105 2.15 2.15 0 00.4-1.285 3.089 3.089 0 00-.026-.336zm-3.59-3.894a.537.537 0 01.111.044c.126.06.325.213.52.427.394.428.787 1.077.99 1.506a.743.743 0 01.02.04c.579.994.828 1.753.836 2.23.008.479-.12.685-.526.918l-1.047.603c-.683.393-1.005 1.097-1.085 1.753-.08.657.038 1.295.33 1.8l2.585 4.454c.293.505.792.927 1.403 1.185.612.26 1.386.334 2.068-.058l1.047-.602c.405-.233.65-.238 1.062.007.413.245.95.839 1.527 1.832a.605.605 0 00.025.042c.27.39.638 1.05.815 1.604.089.275.123.523.112.66-.012.139-.015.125-.052.146l-.796.457c-2.002.868-3.836.672-5.476-.178-1.642-.854-3.07-2.396-4.065-4.206-.004-.004-.005-.008-.008-.01l-2.18-3.758-.008-.012C1.696 11.12 1.068 9.118 1.147 7.277c.078-1.84.825-3.516 2.582-4.806l.797-.455c.019-.01.025-.018.042-.017zM4.577.88a1.21 1.21 0 00-.62.154l-.842.485c-.02.01-.037.022-.054.032C1.033 3.034.1 5.1.008 7.23c-.091 2.128.62 4.325 1.793 6.245l2.173 3.745-.005-.012c1.085 1.971 2.64 3.681 4.539 4.666 1.9.987 4.164 1.216 6.47.21a.447.447 0 00.055-.028l.844-.484c.39-.222.586-.654.618-1.032.033-.376-.044-.742-.16-1.103-.228-.713-.626-1.406-.955-1.881-.62-1.068-1.22-1.81-1.912-2.224a2.182 2.182 0 00-2.22-.017l-1.047.604c-.31.178-.67.157-1.051-.004-.38-.16-.73-.483-.86-.708l-2.585-4.455c-.13-.226-.237-.69-.187-1.097.05-.407.214-.726.524-.904l1.017-.585c.027.136.104.26.215.343l5.51 4.33c.359.28.783.438 1.21.462a.604.604 0 00.067 0c.427-.024.85-.181 1.209-.463l7.588-5.961v9.848c0 .15-.17.348-.506.348H17.1a.568.568 0 100 1.135h5.253c.859 0 1.648-.621 1.648-1.482V6.24c0-.862-.79-1.482-1.648-1.482H7.844a10.11 10.11 0 00-.64-1.29c-.25-.52-.655-1.209-1.163-1.762-.256-.28-.533-.53-.878-.69v.002A1.464 1.464 0 004.576.88z" fill="#E88645"/></svg>