<svg width="32" height="32" fill="none" xmlns="http://www.w3.org/2000/svg"><path d="M27.7 12.1h-.867v-.867a1.3 1.3 0 00-1.3-1.3h-7.8c-.682 0-1.324.321-1.733.867a2.167 2.167 0 00-1.733-.867h-7.8a1.3 1.3 0 00-1.3 1.3v.867H4.3A1.3 1.3 0 003 13.4v13a1.3 1.3 0 001.3 1.3h9.155a1.3 1.3 0 011.057.544 1.842 1.842 0 002.976 0 1.305 1.305 0 011.057-.544H27.7a1.3 1.3 0 001.3-1.3v-13a1.3 1.3 0 00-1.3-1.3zm-9.967-1.3h7.8c.24 0 .434.194.434.433v13c0 .24-.194.433-.434.433h-7.8a2.15 2.15 0 00-1.3.44V12.1a1.3 1.3 0 011.3-1.3zm-11.7.433c0-.24.194-.433.434-.433h7.8a1.3 1.3 0 011.3 1.3v13.005a2.15 2.15 0 00-1.3-.438h-7.8a.433.433 0 01-.434-.434v-13zm22.1 15.167c0 .24-.194.433-.433.433h-9.155a2.173 2.173 0 00-1.761.905.976.976 0 01-1.568 0 2.171 2.171 0 00-1.761-.905H4.3a.433.433 0 01-.433-.433v-13c0-.24.194-.433.433-.433h.867v11.266a1.3 1.3 0 001.3 1.3h7.8a1.3 1.3 0 011.3 1.3.433.433 0 00.866 0 1.3 1.3 0 011.3-1.3h7.8a1.3 1.3 0 001.3-1.3V12.967h.867c.24 0 .433.194.433.433v13z" fill="#2D9CDB"/><path fill-rule="evenodd" clip-rule="evenodd" d="M7.767 13.833h6.067a.433.433 0 100-.866H7.767a.433.433 0 100 .866zm0 2.167h6.067a.433.433 0 100-.867H7.767a.433.433 0 000 .867zm6.067 1.3h-3.467a.433.433 0 000 .866h3.466a.433.433 0 000-.866zm-6.067.867h.866a.433.433 0 100-.867h-.866a.433.433 0 100 .867zm0 2.166h6.067a.433.433 0 100-.866H7.767a.433.433 0 100 .866zm0 2.167H12.1a.433.433 0 000-.867H7.767a.433.433 0 000 .867zm10.4-8.667h6.066a.433.433 0 100-.866h-6.066a.433.433 0 000 .866zm0 2.167h6.066a.433.433 0 100-.867h-6.066a.433.433 0 000 .867zm6.066 1.3h-3.466a.433.433 0 000 .866h3.466a.433.433 0 000-.866zm-6.066.867h.866a.433.433 0 100-.867h-.866a.433.433 0 000 .867zm0 2.166h6.066a.433.433 0 100-.866h-6.066a.433.433 0 000 .866zm0 2.167H22.5a.433.433 0 000-.867h-4.333a.433.433 0 000 .867zm-2.6-13.867a.433.433 0 10.866 0V5.6a.433.433 0 10-.866 0v3.033zM16 4.3c.24 0 .433-.194.433-.433v-.434a.433.433 0 10-.866 0v.434c0 .239.194.433.433.433zm-3.97 1.593l.96 2.877a.434.434 0 10.823-.274l-.961-2.877a.434.434 0 00-.824.274h.002zm.136-2.33a.434.434 0 00-.823.275l.137.41a.434.434 0 00.823-.274l-.137-.41zm-1.799 5.504a.433.433 0 00.36-.673L9.577 6.66a.433.433 0 00-.721.48l1.15 1.733c.08.121.216.194.36.194zm-2.07-3.12a.433.433 0 00.36-.674L8.47 4.99a.434.434 0 10-.722.48l.188.284c.081.12.217.193.362.193zm10.852-.328l-.96 2.877a.434.434 0 00.824.274l.96-2.877a.434.434 0 00-.824-.274zm.821-1.097a.433.433 0 00.549-.274l.137-.41a.434.434 0 00-.824-.275l-.137.411a.433.433 0 00.275.548zm1.664 4.545a.433.433 0 00.36-.194l1.15-1.733a.433.433 0 10-.722-.48l-1.15 1.734a.433.433 0 00.362.673zm2.431-3.315l.188-.284a.434.434 0 00-.721-.48l-.189.284a.433.433 0 10.722.48z" fill="#2D9CDB"/></svg>