<svg width="32" height="32" fill="none" xmlns="http://www.w3.org/2000/svg"><path d="M20.2 21.698h2.244a.427.427 0 100-.855H20.2a.427.427 0 000 .855z" fill="#5D94CE"/><path d="M23.462 18.138c-1.453-.647-4.246-1.029-5.27-1.152v-1.919c.793-.622 1.648-1.632 1.721-3.114h.027a1.52 1.52 0 001.518-1.518v-.516a1.52 1.52 0 00-.14-.637.91.91 0 00.142-.492c0-.516-.199-.998-.529-1.363V5.953A3.774 3.774 0 0018.416 2.4a.428.428 0 00-.284.806 2.918 2.918 0 011.946 2.748v.913a1.966 1.966 0 00-.194-.055 22.168 22.168 0 00-9.766 0c-.066.015-.13.034-.194.055v-.913c0-1.233.782-2.338 1.946-2.748l2.23-.786a2.722 2.722 0 011.802 0l.354.125a.428.428 0 00.284-.806l-.354-.125a3.58 3.58 0 00-2.37 0l-2.23.786a3.774 3.774 0 00-2.517 3.554v1.474c-.33.365-.528.847-.528 1.363 0 .178.05.347.142.492a1.52 1.52 0 00-.14.637v.516c0 .837.68 1.518 1.518 1.518h.027c.073 1.482.928 2.492 1.72 3.114v1.919c-1.023.123-3.816.505-5.27 1.152A4.282 4.282 0 004 22.046v6.576c0 1.085.882 1.967 1.966 1.967h18.068A1.969 1.969 0 0026 28.622v-6.576a4.282 4.282 0 00-2.538-3.908zm-11.373-.325l2.076 1.897-1.161.367a.968.968 0 01-1.136-.453l-.918-1.66c.504-.074.914-.124 1.14-.15zm2.903-1.477h.016c.583-.01 1.465-.236 2.33-.708v1.55L15 19.316l-2.338-2.136v-1.551c.865.472 1.747.698 2.33.708zm2.918 1.478c.226.026.636.076 1.14.15l-.918 1.66a.969.969 0 01-1.136.453l-1.16-.367 2.074-1.896zm2.693-7.38a.664.664 0 01-.663.664h-.02l.002-1.527.378.1a.92.92 0 00.268.033c.023.068.035.14.035.215v.516zm-10.3-2.789a21.32 21.32 0 019.393 0c.527.119.91.6.91 1.145a.06.06 0 01-.078.058 20.4 20.4 0 00-11.056 0 .06.06 0 01-.078-.058c0-.545.383-1.026.91-1.145zm-.906 2.79v-.516c0-.075.012-.146.035-.214a.895.895 0 00.268-.033c.126-.035.252-.068.378-.1l.002 1.526h-.02a.664.664 0 01-.663-.663zm1.54 1.312l-.005-2.376a19.441 19.441 0 018.136 0l-.004 2.376c0 1.235-.615 2.01-1.566 2.774-.885.635-1.925.947-2.498.96-.874-.02-1.8-.51-2.533-.985-.84-.614-1.53-1.523-1.53-2.75zm-4.051 7.172c.788-.35 2.057-.624 3.166-.813l1.068 1.931a1.825 1.825 0 002.141.855l1.739-.55 1.739.55a1.825 1.825 0 002.141-.855l1.068-1.931c1.11.19 2.378.462 3.166.813a3.427 3.427 0 012.031 3.127v3.707h-1.82c-.159 0-.312.029-.453.081v-2.006c0-.708-.576-1.283-1.283-1.283h-9.812a.427.427 0 100 .855h1.147v3.564a.66.66 0 001.01.56L15 26.856l1.066.666a.66.66 0 001.01-.56V23.4h4.513c.236 0 .428.192.428.428v3.233c0 .25-.204.454-.454.454a2.44 2.44 0 00-2.427 2.219h-8.272a2.44 2.44 0 00-2.427-2.219.454.454 0 01-.454-.454v-3.233c0-.236.192-.428.428-.428h1.355a.427.427 0 100-.855H8.41c-.707 0-1.283.575-1.283 1.282v2.007a1.304 1.304 0 00-.453-.081h-1.82v-3.707c0-1.35.797-2.578 2.03-3.127zm6.893 4.48h2.442v3.213l-.871-.544a.664.664 0 00-.7 0l-.87.544V23.4zm-8.924 5.223v-2.014h1.82c.25 0 .453.203.453.453a1.31 1.31 0 001.309 1.31c.798 0 1.46.594 1.567 1.363H5.966a1.113 1.113 0 01-1.111-1.112zm19.179 1.112h-4.038a1.585 1.585 0 011.567-1.364 1.31 1.31 0 001.309-1.309c0-.25.203-.453.453-.453h1.82v2.014c0 .613-.498 1.112-1.111 1.112z" fill="#5D94CE"/></svg>