<svg width="28" height="28" fill="none" xmlns="http://www.w3.org/2000/svg"><g clip-path="url(#clip0_5_1189)" fill="#F2C94C"><path d="M22.723 24.387l-1.045-3.137a3.161 3.161 0 00-2.434-2.11l-3.018-.55v-.233a4.543 4.543 0 001.346-1.196h.912c.747 0 1.355-.608 1.355-1.355v-5.419a5.878 5.878 0 00-5.871-5.87 5.878 5.878 0 00-5.871 5.87v3.161c0 .871.619 1.6 1.44 1.77a4.525 4.525 0 002.173 3.039v.234l-3.019.549a3.16 3.16 0 00-2.433 2.11l-.18.543-1.54-1.539a.452.452 0 010-.639l1.785-1.783-3.348-3.348L.959 16.5a3.14 3.14 0 00-.926 2.235c0 .845.328 1.638.926 2.235l6.103 6.104A3.141 3.141 0 009.298 28c.844 0 1.638-.33 2.22-.913l2.2-2.015-.686-.685h9.691zm-3.788-8.58a.451.451 0 01-.451.451h-.38c.131-.298.23-.613.294-.94a1.79 1.79 0 00.537-.214v.703zm-.451-1.48V12.77a.9.9 0 01.451.777.9.9 0 01-.451.778zm-9.032 0a.9.9 0 01-.452-.78.9.9 0 01.452-.777v1.555zm0-3.037v.516a1.781 1.781 0 00-.452.187v-1.606a4.974 4.974 0 014.968-4.968 4.974 4.974 0 014.967 4.968v1.606a1.774 1.774 0 00-.451-.187v-.516h-.452c-1.335 0-2.59-.52-3.536-1.464l-.528-.53-.53.53a4.968 4.968 0 01-3.535 1.464h-.451zm.903 3.162v-2.276a5.855 5.855 0 003.613-1.605 5.853 5.853 0 003.613 1.605v2.276c0 .658-.18 1.274-.49 1.806h-3.123v.903h2.381a3.594 3.594 0 01-2.381.903 3.617 3.617 0 01-3.613-3.612zm4.967 4.308v.02l-1.354 1.356-1.355-1.355v-.021a4.513 4.513 0 002.71 0zm-8.208 2.776c.26-.783.927-1.36 1.738-1.508l3.157-.574 1.959 1.959 1.958-1.958 3.156.573a2.258 2.258 0 011.738 1.508l.65 1.948h-9.34l-1.76-1.76-1.954 1.769a.461.461 0 01-.639 0l-.986-.986.323-.971zm-4.14-5.775l2.071 2.071-.49.49-2.071-2.07.49-.491zm7.92 10.675c-.427.425-.994.66-1.597.66s-1.17-.235-1.597-.66l-6.104-6.104a2.243 2.243 0 01-.661-1.596c0-.604.235-1.171.661-1.597l.249-.249 2.07 2.071-.016.017a1.357 1.357 0 000 1.916l3.239 3.238c.256.256.596.397.958.397s.703-.14.942-.38l.034-.031 2.08 2.08-.259.238zm.925-.849l-2.076-2.076.596-.54 2.073 2.073-.593.543zM26.613 0H20.29c-.747 0-1.354.608-1.354 1.355v3.613c0 .747.607 1.355 1.354 1.355h1.207l-.467 2.723 4.358-2.723h1.225c.747 0 1.355-.608 1.355-1.355V1.355C27.968.608 27.36 0 26.613 0zm.452 4.968a.452.452 0 01-.452.451h-1.485L22.26 7.212l.308-1.793H20.29a.452.452 0 01-.451-.451V1.355c0-.249.203-.452.451-.452h6.323c.249 0 .452.203.452.452v3.613z"/><path d="M26.161 1.806h-5.42v.904h5.42v-.904zm-1.806 1.807h-3.613v.903h3.613v-.903zm1.806 0h-.903v.903h.903v-.903zM13.968 1.355A12.637 12.637 0 001.663 11.13L.807 9.703l-.775.465 1.588 2.645 2.645-1.587-.465-.775-1.224.734a11.735 11.735 0 0111.392-8.927c1.186 0 2.357.176 3.479.524l.267-.863a12.637 12.637 0 00-3.746-.564zM27.748 10l-2.645-1.588-1.587 2.646.775.465.79-1.318c.416 1.217.629 2.49.629 3.795 0 2.686-.93 5.311-2.62 7.393l.702.569A12.673 12.673 0 0026.612 14c0-1.382-.222-2.73-.656-4.022l1.328.796.464-.774z"/></g><defs><clipPath id="clip0_5_1189"><path fill="#fff" d="M0 0h28v28H0z"/></clipPath></defs></svg>