<svg width="32" height="32" fill="none" xmlns="http://www.w3.org/2000/svg"><path d="M27.395 14.377a1.75 1.75 0 00-1.15-3.071h-.877V5.603a3.075 3.075 0 00-3.07-3.07h-9.652a3.074 3.074 0 00-3.07 3.07v2.44a1.713 1.713 0 00-.878-.246H7.382a.439.439 0 00-.438.438v13.858L4 25.033l.623.622 3.07-3.07a.453.453 0 00.128-.312v-13.6h.877a.88.88 0 01.878.878v3.51c0 .079.02.156.061.223l.443.737c.531.887.812 1.901.812 2.935v.636a4.351 4.351 0 01-.628 2.26l.755.456c.491-.82.75-1.76.75-2.716v-.636a6.578 6.578 0 00-.939-3.386l-.377-.632V5.603a2.193 2.193 0 012.193-2.193h9.651a2.193 2.193 0 012.194 2.193v5.703a1.748 1.748 0 00-1.15 3.07 1.732 1.732 0 000 2.633 1.733 1.733 0 000 2.632 1.747 1.747 0 001.15 3.07v.44a2.194 2.194 0 01-2.194 2.193h-9.65a2.193 2.193 0 01-2.194-2.194v-2.193h-.877v2.193a3.074 3.074 0 003.07 3.071h5.523l-2.325 2.32.623.624 2.94-2.944h2.89a3.074 3.074 0 003.071-3.07v-.44h.877a1.748 1.748 0 001.15-3.07 1.734 1.734 0 000-2.632 1.734 1.734 0 000-2.632zm-1.15 7.457h-1.754a.878.878 0 010-1.754h1.754a.877.877 0 110 1.754zm0-2.632h-1.754a.877.877 0 110-1.755h1.754a.877.877 0 110 1.755zm0-2.632h-1.754a.878.878 0 010-1.755h1.754a.877.877 0 010 1.755zm0-2.632h-1.754a.878.878 0 010-1.755h1.754a.877.877 0 110 1.755z" fill="#EB5757"/><path d="M14.401 4.287h.877v.878h-.877v-.878zm1.755 0h2.632v.878h-2.632v-.878zm.438 17.547a1.316 1.316 0 100 2.632h1.755a1.316 1.316 0 000-2.632h-1.755zm2.194 1.316a.439.439 0 01-.439.439h-1.755a.439.439 0 010-.877h1.755a.439.439 0 01.439.438zM21.42 9.113h-7.896a.439.439 0 00-.439.438v7.897a.439.439 0 00.439.438h7.896a.44.44 0 00.439-.438V9.55a.439.439 0 00-.44-.438zm-4.387.877h.877v2.36l-.24-.118a.428.428 0 00-.396 0l-.24.118V9.99zm-3.07 0h2.193v1.755h-2.194V9.99zm7.018 7.019h-7.019v-4.387h2.194v.439a.439.439 0 00.636.39l.68-.338.68.338a.446.446 0 00.43-.018.438.438 0 00.206-.372v-.439h2.193v4.387zm0-5.264h-2.193V9.99h2.193v1.755z" fill="#EB5757"/></svg>