<svg width="32" height="32" fill="none" xmlns="http://www.w3.org/2000/svg"><path d="M15.5 29h-6v-4h1a.5.5 0 000-1h-1v-.5a.5.5 0 00-1 0V29H6v-5.79A4.215 4.215 0 0110.21 19h1.585l1.705 1.705V24.5a.5.5 0 001 0v-3.795L16.205 19h1.585a4.165 4.165 0 012.59.895.502.502 0 10.62-.79A5.205 5.205 0 0017.79 18h-7.58A5.215 5.215 0 005 23.21v6.29a.5.5 0 00.5.5h10a.5.5 0 000-1zM14 19.795L13.205 19h1.59l-.795.795zm-5.5-7.87a5.5 5.5 0 0010.97 0 1.465 1.465 0 001-1.395V9.465a1.465 1.465 0 00-1.035-1.395l-.095-1.125a5.39 5.39 0 00-10.74 0L8.505 8.07A1.47 1.47 0 007.5 9.465v1.07a1.465 1.465 0 001 1.39zm1.11-4.9a4.39 4.39 0 018.75 0l.07.865a25.77 25.77 0 00-8.89 0l.07-.865zm8.81 1.885A1.5 1.5 0 0117 10h-6a1.5 1.5 0 01-1.435-1.09 24.71 24.71 0 018.87 0h-.015zm-9.92.555a.47.47 0 01.105-.28A2.5 2.5 0 0011 11h6a2.5 2.5 0 002.395-1.815.47.47 0 01.105.28v1.07A.5.5 0 0119 11a.5.5 0 00-.5.5 4.5 4.5 0 11-9 0 .535.535 0 00-.535-.5.5.5 0 01-.465-.465v-1.07z" fill="#6FCF97"/><path d="M26.5 21h-9a.5.5 0 00-.5.5v8a.5.5 0 00.5.5h9a.5.5 0 00.5-.5v-8a.5.5 0 00-.5-.5zm-4 1v1h-1v-1h1zm3.5 7h-8v-7h2.5v1.5a.5.5 0 00.5.5h2a.5.5 0 00.5-.5V22H26v7zM15.5 6.5A.5.5 0 0015 6h-2a.5.5 0 000 1h2a.5.5 0 00.5-.5z" fill="#6FCF97"/></svg>