<svg width="32" height="32" fill="none" xmlns="http://www.w3.org/2000/svg"><path d="M2.628 20.776v9.074a.478.478 0 00.477.478h2.863a1.434 1.434 0 001.413-1.213l4.56 2.103a6.172 6.172 0 006.662-1.066l6.077-5.503c1.019-.863.26-2.617-1.039-2.506v-5.187a1.434 1.434 0 00-1.433-1.433c-1.726.002-5.47-.002-7.163 0h-4.298a1.434 1.434 0 00-1.433 1.433v4.314c-.012-.03-1.912-.012-2-.016a1.434 1.434 0 00-1.346-.956H3.105a.478.478 0 00-.477.478zm14.805-4.298v1.96l-.686-.468c-.398-.287-.843.255-1.225.469v-1.961h1.91zm-6.686 0h3.82v2.865c.018.14.064.282.184.368a.489.489 0 00.563.027l1.164-.795 1.163.795a.479.479 0 00.619-.075c.084-.082.11-.208.128-.32v-2.865h3.82a.478.478 0 01.478.477v5.527l-7.027 3.427c.848-1.355-.232-3.268-1.836-3.223h-3.199c-.087-.252-.185-.643-.355-.85v-4.88a.478.478 0 01.478-.478zm-1.178 6.058c.18.416.195 1.11.71 1.106h3.545a1.194 1.194 0 110 2.387h-2.122a.477.477 0 100 .956h3.82a.48.48 0 00.21-.049l7.766-3.788a.457.457 0 01.612.16.468.468 0 01-.073.634l-6.075 5.502a5.213 5.213 0 01-5.626.904l-4.933-2.274v-5.865h1.713a.476.476 0 01.453.327zm-5.986-1.282h2.385a.48.48 0 01.48.48v7.158a.48.48 0 01-.48.48H3.583v-8.118z" fill="#EB5757"/><path d="M18.388 22.686h1.432c.625-.002.625-.952 0-.955h-1.432c-.624.003-.625.953 0 .955zm10.984-11.939V3.583a.477.477 0 00-.477-.478c-.338.03-3.084-.08-3.338.087L21.424.872a4.79 4.79 0 00-5.69.716l-2.2 2.131-3.537-2.188L8.372.525a.48.48 0 00-.66.16L5.364 4.58l-.996 1.654a.478.478 0 00.153.65l9.846 6.219c2.442 1.495 1.73 1.63 3.313-.736v-.001l.902-1.397.919.557a3.303 3.303 0 003.496-.032l1.739-1.098a1.431 1.431 0 001.293.828h2.866a.478.478 0 00.477-.478zM8.28 1.59l.74.459a1.383 1.383 0 01-1.197.299l.457-.758zM5.882 5.57a1.43 1.43 0 01.29 1.226l-.745-.47.455-.755zm10.212 7.494l-.745-.471a1.384 1.384 0 011.23-.281l-.485.752zm1.019-1.58c-.883-.371-1.965-.121-2.602.58l-7.503-4.74a2.406 2.406 0 00-.611-2.608l.918-1.524c.878.337 1.929.07 2.548-.622l5.143 3.182c-1.132.62-1.137 2.412-.009 3.044l2.768 1.678-.652 1.01zm5.373-.797a2.352 2.352 0 01-2.49.023l-4.503-2.73a.812.812 0 01-.374-.523c-.175-.672.618-1.274 1.206-.885l2.992 1.848c.205.143.503.316.745.155.31-.162.306-.632.01-.812l-5.7-3.526L16.4 2.274a3.832 3.832 0 014.554-.572L24.78 3.85c-.119.21-.182.446-.183.687v4.818l-2.11 1.333zm5.931-.419H26.03a.478.478 0 01-.477-.477V4.537a.477.477 0 01.476-.476h2.39v6.208z" fill="#EB5757"/><path d="M12.18 5.493c-2.525.08-2.525 3.741 0 3.821 2.524-.08 2.523-3.74 0-3.82zm0 2.866c-1.256-.022-1.256-1.888 0-1.91 1.255.022 1.254 1.888 0 1.91zm15.144.816c.206-.259.159-.51 0-.678-.252-.2-.504-.167-.679 0a.486.486 0 000 .678c.17.161.425.202.679 0zM4.677 27.6c-.163.17-.204.423 0 .679a.48.48 0 100-.678z" fill="#EB5757"/></svg>