<svg width="30" height="27" fill="none" xmlns="http://www.w3.org/2000/svg"><path d="M20.5 7.5h-1v1h1v-1zm3 0h-1v1h1v-1z" fill="#6FCF97"/><path d="M29.5 20H28v-3.05a3.503 3.503 0 00-2.078-3.2L23.5 12.675v-.716A4.028 4.028 0 0024.617 11H26a1 1 0 001-1V8.809a1.963 1.963 0 000-2.618V5.5a5.5 5.5 0 00-11 0v.691A1.99 1.99 0 0017.5 9.5c.043 0 .085-.01.128-.012a4.013 4.013 0 001.872 2.471v.716l-2.422 1.075A3.503 3.503 0 0015 16.95V20h-2V2.5a.5.5 0 00-.5-.5h-10a.5.5 0 00-.5.5V20H.5a.5.5 0 00-.5.5v2a.5.5 0 00.5.5h1v3.5a.5.5 0 00.5.5h26a.5.5 0 00.5-.5V23h1a.5.5 0 00.5-.5v-2a.5.5 0 00-.5-.5zm-4.294-10c.066-.167.122-.338.166-.512.043.003.085.012.128.012a1.97 1.97 0 00.5-.071V10h-.794zM26.5 7.5a1 1 0 01-1 1v-2a1 1 0 011 1zm-8.181-5.181A4.5 4.5 0 0126 5.5v.071a1.97 1.97 0 00-.5-.071c-.043 0-.085.01-.128.012a3.994 3.994 0 00-7.744 0c-.043-.002-.085-.012-.128-.012a1.97 1.97 0 00-.5.071V5.5a4.472 4.472 0 011.319-3.182zM24.454 6h-.25l-.853-.854a.5.5 0 00-.578-.093L20.883 6h-2.337a2.996 2.996 0 015.91 0zM16.5 7.5a1 1 0 011-1v2a1 1 0 01-1-1zm2 1V7H21a.5.5 0 00.224-.053L22.9 6.11l.745.745A.5.5 0 0024 7h.5v1.5c0 .527-.14 1.045-.406 1.5H21.5v1h1.655A2.997 2.997 0 0118.5 8.5zm3 4a3.976 3.976 0 001-.132V13a1 1 0 01-2 0v-.632c.326.087.662.13 1 .132zM16 16.95a2.5 2.5 0 011.485-2.284l2.15-.957a1.99 1.99 0 003.728 0l2.15.957A2.499 2.499 0 0127 16.95V20H16v-3.05zM5.5 13H3v-1h2.5v1zM3 5h2.5v1.5a.5.5 0 00.777.416L7.5 6.1l1.223.815A.5.5 0 009.5 6.5V5H12v6H3V5zm3.5-2h2v2.566l-.723-.482a.5.5 0 00-.554 0l-.723.482V3zm0 9h2v2.566l-.723-.482a.5.5 0 00-.554 0l-.723.482V12zm3 0H12v1H9.5v-1zM12 4H9.5V3H12v1zM5.5 3v1H3V3h2.5zM3 14h2.5v1.5a.5.5 0 00.777.416L7.5 15.1l1.223.815A.5.5 0 009.5 15.5V14H12v6H3v-6zm24.5 12h-25v-3h25v3zm1.5-4H1v-1h28v1z" fill="#6FCF97"/></svg>