<svg width="29" height="18" fill="none" xmlns="http://www.w3.org/2000/svg"><path d="M.55 9.082l2.31.912c.306.12.639.057.877-.143l1.83 1.154.314.221a1.547 1.547 0 001.479 2.362c.024.435.222.822.544 1.095.316.268.729.406 1.169.358.024.435.222.822.544 1.095.319.27.733.405 1.17.357.022.41.206.81.543 1.095a1.55 1.55 0 002.18-.178l.368-.432.619.457c1.07.79 2.582.143 2.722-1.17 1.103.4 2.274-.372 2.291-1.56a1.694 1.694 0 002.021-1.561c1.35.36 2.57-1.003 1.974-2.336l1.653-1.062a.87.87 0 00.982.248l2.31-.912a.868.868 0 00.49-1.125l-1.057-2.678a.425.425 0 10-.79.312l1.056 2.678c.004.009 0 .02-.01.023l-2.311.912c-.01.003-.02-.001-.023-.01L22.9 1.83a.016.016 0 010-.014.024.024 0 01.01-.009l2.311-.912a.016.016 0 01.014 0 .016.016 0 01.01.01l1.12 2.839a.425.425 0 10.79-.312L26.035.594A.868.868 0 0024.91.106l-2.311.912a.866.866 0 00-.52 1.026l-1.24.457a2.412 2.412 0 01-1.21.12l-1.253-.2a.425.425 0 00-.133.84l1.253.198c.55.088 1.116.032 1.638-.16l1.25-.462 2.418 6.128-1.823 1.171-.031-.023-3.514-2.593a.426.426 0 00-.335-.076c-1.76.3-3.336-.326-4.496-1.537a.96.96 0 00-1.341-.046c-1.125 1.01-2.698 1.996-3.798.95-.11-.104-.11-.295.056-.403 1.401-.901 2.853-2.167 4.022-3.349.29-.294.709-.43 1.12-.366l1.612.256a.425.425 0 10.133-.84l-1.613-.255a2.144 2.144 0 00-1.857.608c-.135.137-.294.295-.475.47a6.065 6.065 0 00-1.687-.341c-1.689-.095-1.835-.113-2.218-.088a1.98 1.98 0 01-.886-.149l-.748-.313a.868.868 0 00-.521-1.023L4.09.106a.868.868 0 00-1.126.488L.061 7.957a.867.867 0 00.488 1.125zm7.174 3.42a.699.699 0 01-1.066-.903l1.051-1.233a.698.698 0 111.065.903l-1.05 1.233zm1.713 1.452a.698.698 0 01-1.065-.902l1.05-1.233a.7.7 0 011.036-.033l.005.006a.7.7 0 01.024.93l-1.05 1.232zm1.713 1.453a.698.698 0 01-1.066-.903l1.051-1.233a.7.7 0 011.065.903l-1.05 1.233zm2.77.212l-.006.007-1.05 1.233a.699.699 0 01-1.066-.902l1.05-1.233a.698.698 0 011.071.895zM6.616 2.835l.726.303c.399.167.837.24 1.268.213.325-.021.433-.006 2.116.088.345.02.687.073 1.02.16-.83.75-1.764 1.503-2.7 2.103a1.102 1.102 0 00-.168 1.725c.71.675 2.296 1.45 4.95-.934a.114.114 0 01.16.002c1.286 1.342 3.108 2.091 5.076 1.815.223.156-.209-.16 3.378 2.487.383.283.49.84.19 1.224a.845.845 0 01-1.173.161c-.504-.372-.132-.089-1.902-1.452a.425.425 0 10-.518.673l1.468 1.131a.854.854 0 01-.077 1.114c-.294.293-.779.321-1.127.064-.337-.248-.057-.035-1.601-1.224a.425.425 0 00-.519.673l1.302 1.002a.853.853 0 01-.035 1.08c-.288.328-.8.373-1.165.104-.586-.432-.292-.209-1.42-1.082a.425.425 0 10-.52.671l.902.699a.848.848 0 01-.105 1.037.868.868 0 01-1.142.08l-.57-.422.13-.154a1.54 1.54 0 00.363-1.128 1.54 1.54 0 00-.542-1.053 1.537 1.537 0 00-1.17-.358 1.552 1.552 0 00-.543-1.095 1.538 1.538 0 00-1.17-.358c0-.014 0-.027-.002-.04a1.536 1.536 0 00-.365-.879l-.004-.005a1.548 1.548 0 00-1.341-.528 1.55 1.55 0 00-2.725-.916l-.64.751-.375-.263a.331.331 0 00-.017-.011l-1.886-1.19 2.473-6.268zM.851 8.269L3.756.906a.018.018 0 01.023-.01l2.31.912c.01.004.015.014.01.023L3.196 9.194a.018.018 0 01-.023.01l-2.31-.912a.018.018 0 01-.01-.023z" fill="#5D94CE"/></svg>