<svg width="25" height="26" fill="none" xmlns="http://www.w3.org/2000/svg"><path d="M23.66 11.285h-7.79a3.6 3.6 0 01.239-.258 5.846 5.846 0 10-8.154 0c.085.083.165.17.24.258H3.726a3.721 3.721 0 00-1.676 7.047 3.722 3.722 0 001.676 7.046H23.66a.403.403 0 00.403-.403V11.688a.403.403 0 00-.403-.403zM7.648 20.293v1.005l-.283-.283a.403.403 0 00-.57 0l-.283.282v-1.005l1.136.001zm-1.693 2.35a.405.405 0 00.44-.087l.685-.686.686.686a.402.402 0 00.688-.285v-1.978h14.803v2.718H3.727a1.359 1.359 0 110-2.718h1.98v1.978a.403.403 0 00.248.372zM3.726 16.37a1.359 1.359 0 110-2.717h1.98v1.976a.403.403 0 00.689.286l.686-.687.686.687a.402.402 0 00.688-.286V13.65h.515v2.718H3.726zm3.922-2.717v1.005l-.283-.283a.403.403 0 00-.57 0l-.283.283V13.65l1.136.002zm2.127 1.025h4.516v1.692H9.775v-1.692zm.98-5.806h-.477a.477.477 0 11.476-.477v.477zm1.751 5h-.947V9.677h.946l.001 4.194zm2.591.403v-.623h8.16v2.717h-8.161l.001-2.094zm-1.529 2.901l-.234.754H10.73l-.233-.754h3.07zm.844 0h8.846v.754h-9.08l.234-.754zm8.845-5.084v.754H15.14c.042-.26.117-.513.222-.754h7.894zM6.992 6.84a5.04 5.04 0 118.555 3.61c-.318.31-.586.668-.794 1.06l-.014.029a3.921 3.921 0 00-.44 1.635.412.412 0 00-.008.075c0 .009.002.016.003.024 0 .026-.004.05-.004.076v.523h-.979V9.677h.477a1.283 1.283 0 10-1.283-1.283v.477h-.946v-.477a1.282 1.282 0 10-1.282 1.283h.476v4.194h-.978v-.523c0-.026-.003-.05-.003-.076l.002-.024a.405.405 0 00-.007-.075 3.917 3.917 0 00-.441-1.636l-.013-.026a4.248 4.248 0 00-.794-1.06 4.997 4.997 0 01-1.527-3.612zm6.32 2.032v-.477a.478.478 0 11.476.477h-.477zM.806 15.01a2.922 2.922 0 012.92-2.919H8.7c.105.241.18.494.222.754H3.726a2.164 2.164 0 100 4.329h5.927l.234.755h-6.16a2.921 2.921 0 01-2.92-2.92zm2.92 9.56a2.92 2.92 0 010-5.836h19.53v.753H3.727a2.164 2.164 0 100 4.33h19.53v.753H3.727z" fill="#6FCF97"/></svg>