<svg width="161" height="33" fill="none" xmlns="http://www.w3.org/2000/svg"><g clip-path="url(#clip0_149_569)"><path d="M9.95 31.333c.787-.34 1.74-.752 2.775-1.296a2.067 2.067 0 01-.166-1.546c-2.2-2.138-4.386-4.884-5.647-8.155-.963-2.497-1.36-5.16-1.445-7.674a2.205 2.205 0 01-.473-.188A41.718 41.718 0 000 16.43v.01c0 6.627 4.033 12.337 9.843 14.94l.106-.047zm1.863.787a17.346 17.346 0 006.243.723 37.03 37.03 0 01-2.569-1.817 2.232 2.232 0 01-1.558.032c-.757.422-1.472.77-2.116 1.062zm8.569.413a16.96 16.96 0 0010.2-6.415 24.114 24.114 0 00-2.372-3.087 29.131 29.131 0 00-3.402-3.213 2.22 2.22 0 01-1.159.323h-.029c-1.758 4.263-4.293 7.083-6.774 9.002-.013.319-.098.62-.24.887a35.195 35.195 0 002.447 1.708 28.195 28.195 0 001.329.795zm11.1-7.746a16.02 16.02 0 002.339-8.347c0-3.45-1.093-6.651-2.96-9.296a35.094 35.094 0 00-4.486-.433 2.132 2.132 0 01-.885 1.18c.112 2.586-.018 5.472-.654 8.344.6.378.998 1.035.998 1.782 0 .228-.037.447-.105.652a30.65 30.65 0 013.61 3.404 26.364 26.364 0 012.143 2.714zM29.52 5.486a16.92 16.92 0 00-4.722-3.592c.128.69.255 1.46.365 2.293.487.212.88.591 1.1 1.064a38.812 38.812 0 013.257.236zm-6.396-4.341c.175.826.359 1.825.516 2.95a2.169 2.169 0 00-1.382 1.213 43.897 43.897 0 00-7.396 1.082c-2.616.615-5.052 1.626-7.215 2.775a2.187 2.187 0 00-.576-.428 39.536 39.536 0 01.826-5.324c.094-.417.181-.766.252-1.037A17.194 17.194 0 0116.91 0c2.194 0 4.29.406 6.214 1.145zM6.32 3.623a16.62 16.62 0 00-4.412 5.223 51.16 51.16 0 012.379.501l.012.003a2.191 2.191 0 011.286-.808 41.095 41.095 0 01.734-4.919zM1.256 10.21a15.97 15.97 0 00-1.118 4.12 43.925 43.925 0 013.87-2.964 2.063 2.063 0 01-.135-.618 46.905 46.905 0 00-2.617-.538z" fill="#4896EC"/><path d="M14.664 26.935c.666 0 1.262.29 1.663.746 2.18-1.772 4.341-4.306 5.893-8.058a2.095 2.095 0 01-.69-2.117 34.725 34.725 0 00-4.67-2.4c-3.476-1.473-6.498-2.53-9.007-3.287-.223.314-.53.568-.891.728.075 2.41.45 4.937 1.352 7.277 1.134 2.94 3.096 5.46 5.133 7.47a2.23 2.23 0 011.217-.359zm8.713-11.025c.575-2.61.715-5.257.629-7.675a2.172 2.172 0 01-1.814-1.464 42.347 42.347 0 00-6.977 1.034c-2.472.581-4.787 1.542-6.857 2.642 2.548.77 5.601 1.841 9.101 3.324a36.233 36.233 0 014.909 2.527c.29-.205.635-.342 1.009-.387zm130.234 3.705s-.02-1.66-.381-2.432c-.33-.703-1.084-1.209-1.863-1.315-1.025-.14-1.86.157-2.826.495a2.266 2.266 0 01-.562.138.89.89 0 01-.939-.67c-.106-.383.086-.846.463-1.001 1.694-.696 3.107-1.016 4.925-.587 1.496.353 2.706 1.652 3.058 3.054.158.63.21 1.572.212 2.215.005 2.1.002 3.593.001 5.693 0 .463-.228.796-.637.94-.435.154-.784.04-1.068-.277a.894.894 0 01-.227-.627v-.788l-.064-.04c-.031.048-.057.101-.096.143-.841.915-2.101 1.63-3.362 1.733-.726.06-1.413.023-2.104-.227-1.015-.366-1.87-1.288-1.948-3.03-.037-.832.361-1.724 1.091-2.35.801-.685 1.984-1.067 3.04-1.067h3.287zm0 2.5l.003-1.205s-2.404-.033-2.868-.012c-.534.023-1.046.142-1.503.417-.653.393-.924.97-.859 1.687.065.716.537 1.772 1.939 1.772.725 0 1.637-.303 2.105-.758.467-.454 1.169-1.06 1.183-1.9z" fill="#4896EC"/><path d="M68.828 19.657s-.02-1.66-.382-2.432c-.329-.702-1.084-1.208-1.863-1.315-1.025-.139-1.86.158-2.826.495a2.273 2.273 0 01-.561.139c-.447.035-.82-.244-.94-.671-.106-.382.086-.846.463-1 1.694-.697 3.108-1.016 4.925-.587 1.496.353 2.707 1.652 3.058 3.054.158.63.21 1.572.212 2.215.005 2.1.002 3.593.001 5.693 0 .463-.228.796-.637.94-.435.153-.783.04-1.068-.277a.898.898 0 01-.227-.627v-.789l-.064-.04c-.032.048-.057.102-.095.144-.841.915-2.101 1.63-3.362 1.733-.726.059-1.413.022-2.104-.228-1.015-.366-1.87-1.287-1.948-3.03-.037-.831.36-1.723 1.09-2.349.801-.686 1.985-1.068 3.04-1.068h3.288zm0 2.501l.002-1.205s-2.404-.033-2.869-.013c-.533.024-1.044.143-1.502.418-.654.392-.925.969-.859 1.686.065.716.537 1.773 1.94 1.773.724 0 1.636-.304 2.104-.758.468-.455 1.169-1.06 1.183-1.9z" fill="#003375"/><path d="M127.796 14.184c.989 0 1.979-.002 2.968 0 .507.002.935.21.935.817 0 .606-.22.844-.935.863-.985.027-2.954.004-2.954.004s.006 6.406 0 6.86c-.015.95.765 1.591 1.707 1.591h1.091c.468 0 1.091.076 1.091.985 0 .91-1.091.834-1.091.834s-.74.008-1.559 0c-2.094-.022-3.427-1.503-3.427-3.637-.002-3.194-.002-9.61 0-12.804 0-.526.243-.88.697-1.03.467-.154.97-.022 1.253.33.16.2.225.43.224.68-.005 1.503 0 3.005 0 4.507zm-14.137 6.129v4.927c0 .446-.202.777-.622.951-.43.18-.844.129-1.208-.17-.255-.212-.347-.495-.347-.813V15.31c0-.56.284-.933.802-1.066.713-.185 1.37.293 1.373 1.008.006 1.687.002 3.374.002 5.06zm-11.954-1.156a2948.98 2948.98 0 00-1.82-5.867c-.506-1.614-1.009-3.228-1.52-4.84-.218-.684-.99-.954-1.616-.575-.455.274-.615.712-.447 1.247a7072.7 7072.7 0 001.64 5.232l.534 1.699c.147.469.877 2.832 1.578 5.102.634 2.054 1.401 4.03 1.534 4.456.095.304.269.549.576.678a1.77 1.77 0 001.327 0c.308-.129.481-.374.577-.678.133-.425.899-2.402 1.534-4.456.701-2.27 1.431-4.633 1.578-5.102l.533-1.699c.547-1.744 1.095-3.487 1.641-5.232.168-.535.008-.973-.447-1.247-.627-.379-1.399-.109-1.616.575-.37 1.166-.735 2.334-1.101 3.5l-.419 1.34c-.255.81-1.037 3.338-1.82 5.867-.398 1.284-1.007 3.779-1.123 3.779-.116 0-.726-2.495-1.123-3.779zm59.294-7.348v13.495c0 .353-.188.615-.578.753-.4.142-.785.102-1.123-.135a.736.736 0 01-.324-.644V7.845c0-.442.265-.738.746-.844.663-.146 1.275.232 1.277.8.006 1.335.002 2.671.002 4.008zm-47.224-2.057c-.008.685-.497 1.168-1.172 1.157-.695-.01-1.174-.505-1.165-1.202.007-.615.53-1.077 1.211-1.07.644.006 1.134.492 1.126 1.115z" fill="#4896EC"/><path d="M45.685 9.71h-.246c-1.796 0-1.877.001-3.673-.001a1.073 1.073 0 01-1.03-.726c-.15-.447 0-.917.387-1.195.216-.156.46-.212.727-.212 3.303.003 4.89.002 8.193.002-.673 0 .524-.002 1.722 0 .573.001 1.041.4 1.107.937.066.533-.28 1.028-.823 1.165-.113.029-.237.029-.355.03H48.27c-.246 0-.247 0-.247.238 0 5.081-.001 10.012.002 15.094 0 .473-.164.855-.594 1.094-.757.42-1.694-.084-1.743-.932-.006-.092-.003-.184-.003-.276V9.71zm30.359 6.058c.65-.65 1.377-1.21 2.196-1.449 1.338-.39 2.793-.138 3.602.379 1.623 1.035 2.156 2.588 2.16 4.424.006 2.067.005 4.133.004 6.2-.001.602-.455 1.037-1.077 1.042-.62.006-1.083-.424-1.085-1.029-.005-1.836-.001-3.725-.002-5.562 0-2.12-1.03-3.636-2.745-3.712-1.714-.075-3.055 1.212-3.055 3.03 0 1.819-.008 3.714.01 6.2.006.86-.906 1.322-1.639.936a.955.955 0 01-.522-.752 1.471 1.471 0 01-.01-.2c-.001-3.332.005-6.665-.005-10-.003-.912.939-1.32 1.628-.955.343.18.53.467.54.853.004.18 0 .359 0 .595zm14.5 10.748a6.07 6.07 0 01-3.785-1.223c-.45-.332-.721-.879-.423-1.315.31-.454.89-.426 1.384-.15.355.197.701.415 1.074.575.911.392 2.015.4 2.99.092.625-.197 1.077-.579 1.19-1.25.084-.492-.06-.92-.482-1.196a6.055 6.055 0 00-1.17-.584c-.705-.263-1.43-.473-2.144-.717a5.702 5.702 0 01-1.585-.806c-1.038-.774-1.233-1.822-1.073-3.044.167-1.28.951-2.1 2.153-2.57.862-.338 1.608-.386 2.522-.319.97.072 1.875.35 2.724.811.517.282.7.598.46 1.064-.249.48-.822.663-1.343.445-.433-.18-.864-.376-1.315-.5-.612-.166-1.243-.2-1.868-.023a1.616 1.616 0 00-1.177 1.691c.039.44.306.74.663.977.502.333 1.078.497 1.641.694.817.287 1.33.557 2.127.89.632.265 1.16.692 1.513 1.288.859 1.45.323 3.473-1.139 4.359-.997.604-1.786.798-2.937.81zM55.36 15.789l.141-.17c.977-1.173 2.166-1.603 2.79-1.603h1.169c.39 0 .857.454.857.985 0 .53-.39.985-.857.985h-1.247c-.312 0-1.024.303-1.715.985-.68.671-1.027 1.72-1.027 2.03-.002 2.429-.004 3.657 0 6.085 0 .448-.19.79-.624 1.003-.739.363-1.65-.11-1.697-.875-.002-.043-.002-.085-.002-.128v-9.794c0-.545.322-.946.87-1.088.677-.177 1.248.288 1.29.927.01.314 0 .477 0 .64l.051.018z" fill="#003375"/><path d="M118.949 15.864l.141-.17c.978-1.172 2.167-1.602 2.79-1.602h1.169c.39 0 .857.454.857.984s-.39.985-.857.985h-1.247c-.312 0-1.024.303-1.714.985-.681.672-1.028 1.72-1.028 2.031-.002 2.428-.004 3.656 0 6.085.001.447-.189.79-.623 1.003-.739.362-1.65-.111-1.698-.875-.002-.043-.002-.086-.002-.128v-9.794c0-.546.323-.946.87-1.088.678-.177 1.248.287 1.289.927.011.314.002.477.002.64l.051.017zm14.777-.706c0-.559.284-.932.802-1.066.713-.184 1.371.293 1.372 1.009.008 2.34.007 5.28.007 6.719s1.453 2.575 2.961 2.575c1.508 0 2.962-1.06 2.962-2.576v-6.66c0-.56.285-.934.803-1.067.712-.184 1.369.293 1.372 1.009.008 2.34.007 3.386.007 6.415 0 3.03-2.515 4.85-5.144 4.85s-5.143-2.123-5.143-4.85l.001-6.358z" fill="#4896EC"/></g><defs><clipPath id="clip0_149_569"><path fill="#fff" d="M0 0h161v33H0z"/></clipPath></defs></svg>