<svg width="30" height="23" fill="none" xmlns="http://www.w3.org/2000/svg"><path d="M26.468 10.18c-1.02-.51-2.935-.517-3.016-.517a.44.44 0 000 .88c.494 0 1.928.075 2.623.423a.437.437 0 00.59-.197.44.44 0 00-.197-.59z" fill="#EB5757"/><path d="M28.659 16.436l-1.815-.518a.184.184 0 01-.133-.177v-.605c.148-.103.288-.217.42-.345.638-.62.99-1.45.99-2.339v-.836l.175-.35c.193-.386.294-.817.294-1.248V7.753a.44.44 0 00-.439-.44h-4.229a2.792 2.792 0 00-2.789 2.79v.026c0 .358.085.717.245 1.037l.225.45v.718c0 1.137.56 2.158 1.41 2.772v.635c0 .098 0 .139-.363.242l-.886.253-2.561-.931a.439.439 0 00-.12-.337l-.819-.86v-1.443a5.158 5.158 0 001.88-3.971V7.54a5.08 5.08 0 00.47-2.136V.705a.44.44 0 00-.44-.44h-6.578a4.203 4.203 0 00-4.198 4.2v.94c0 .739.158 1.457.47 2.135v.992a5.37 5.37 0 001.879 4.099v1.477l-.819.86a.44.44 0 00-.12.337l-2.703.983a2.306 2.306 0 00-.544.285l-.424-.213C8.4 15.81 8.8 15.037 8.82 14.998a.44.44 0 000-.393c-.317-.634-.355-1.795-.386-2.728-.01-.31-.02-.604-.038-.866-.15-2.107-1.753-3.697-3.728-3.697-1.975 0-3.577 1.59-3.727 3.697a23.78 23.78 0 00-.039.866c-.03.933-.069 2.094-.386 2.728a.44.44 0 000 .393c.02.039.419.81 1.685 1.361l-1.179.59A1.84 1.84 0 000 18.603v3.247a.44.44 0 00.879 0v-3.247c0-.37.205-.702.536-.868l1.469-.734.51.485a1.844 1.844 0 002.548 0l.51-.485.48.24c-.226.36-.354.783-.354 1.226v3.383a.44.44 0 00.88 0v-3.383c0-.603.38-1.147.947-1.353l2.85-1.037 1.187 1.78a.906.906 0 00.758.406c.24 0 .47-.095.642-.267l.724-.724v4.578a.44.44 0 10.879 0v-4.578l.724.724a.906.906 0 00.732.262.906.906 0 00.668-.4l1.186-1.78 2.851 1.036c.567.206.948.75.948 1.354v3.382a.44.44 0 00.879 0v-3.383c0-.61-.243-1.183-.65-1.607l.108-.031c.11-.032.26-.074.41-.148l1.121 1.122v4.047a.44.44 0 00.88 0v-4.047l1.114-1.114c.059.03.12.055.186.074l1.815.519a.974.974 0 01.704.933v3.635a.44.44 0 00.879 0v-3.636a1.86 1.86 0 00-1.341-1.778zm-25.84-.776c-.822-.296-1.234-.69-1.41-.905.12-.314.198-.673.25-1.053a3.277 3.277 0 001.16 1.431v.527zm2.518 1.19a.97.97 0 01-1.337 0l-.409-.389a.91.91 0 00.107-.43v-.467a3.248 3.248 0 001.94 0v.468c0 .153.038.3.107.43l-.408.387zm-.668-2.018a2.382 2.382 0 01-2.38-2.38.44.44 0 00-.512-.433l.004-.113c.01-.302.02-.587.037-.832.056-.79.371-1.517.888-2.05a2.716 2.716 0 011.962-.831c.744 0 1.441.295 1.963.832.517.532.832 1.26.888 2.049.018.245.027.53.037.832l.003.078c-.478-.736-1.217-1.28-2.171-1.586a5.51 5.51 0 00-1.671-.264.44.44 0 00-.305.134l-.793.822a.44.44 0 00.633.61l.66-.684c.568.028 2.396.24 3.107 1.806a2.374 2.374 0 01-2.35 2.01zm1.848.83v-.525a3.25 3.25 0 001.16-1.432c.053.378.131.737.25 1.05-.174.213-.588.61-1.41.907zm4.23-7.13v-1.09a.44.44 0 00-.044-.191 4.215 4.215 0 01-.427-1.847v-.94c0-1.83 1.49-3.32 3.32-3.32h6.139v4.26c0 .64-.144 1.261-.426 1.847a.44.44 0 00-.044.191v1.251a4.22 4.22 0 01-1.347 3.109 4.38 4.38 0 01-.338.285l-.007.006a4.225 4.225 0 01-2.852.85c-2.229-.144-3.975-2.082-3.975-4.41zm2.474 8.843c-.003.003-.01.01-.025.008a.027.027 0 01-.022-.013l-1.367-2.05.44-.462 2.073 1.417-1.1 1.1zm1.785-1.696l-2.38-1.627v-.82a4.948 4.948 0 002.384.6c.84 0 1.65-.201 2.375-.583v.803l-2.38 1.627zm1.831 1.691a.028.028 0 01-.022.014c-.014.001-.021-.006-.024-.01l-1.1-1.099 2.073-1.417.44.462-1.367 2.05zm8.025-.37l-.997-.998c.017-.079.027-.165.027-.26v-.186a3.084 3.084 0 00.971.155c.334 0 .66-.05.969-.147v.177c0 .088.011.174.032.256L24.862 17zm1.657-2.84a2.362 2.362 0 01-1.73.67c-1.272-.037-2.307-1.157-2.307-2.496v-.822a.44.44 0 00-.046-.196l-.272-.543a1.448 1.448 0 01-.152-.644v-.026c0-1.053.857-1.91 1.91-1.91h3.79v1.825c0 .295-.07.59-.202.854l-.222.444a.44.44 0 00-.046.196v.94a2.36 2.36 0 01-.723 1.708z" fill="#EB5757"/><path d="M27.681 18.59a.44.44 0 00-.44.44v2.82a.44.44 0 00.88 0v-2.82a.44.44 0 00-.44-.44zm-25.362.582a.44.44 0 00-.44.44v2.238a.44.44 0 00.88 0v-2.24a.44.44 0 00-.44-.44zM18.605 5.563c-1.662-1.662-5.14-1.344-6.557-1.13a.902.902 0 00-.771.898v1.013a.44.44 0 10.879 0V5.33a.03.03 0 01.023-.03c.566-.085 1.69-.216 2.855-.139 1.37.091 2.363.435 2.95 1.023a.44.44 0 00.621-.622zM9.837 19.53a.44.44 0 00-.44.44v1.88a.44.44 0 00.88 0v-1.88a.44.44 0 00-.44-.44zm10.337 0a.44.44 0 00-.44.44v1.88a.44.44 0 00.88 0v-1.88a.44.44 0 00-.44-.44z" fill="#EB5757"/></svg>