<svg width="17" height="16" fill="none" xmlns="http://www.w3.org/2000/svg"><path d="M16.278 13.305l-2.256 2.237c-.333.342-.774.458-1.204.458-1.901-.057-3.698-.99-5.173-1.95C5.223 12.29 3 10.105 1.606 7.466 1.072 6.358.444 4.945.504 3.71c.005-.465.13-.921.458-1.221L3.218.234c.468-.398.921-.26 1.22.204l1.816 3.441a.999.999 0 01-.204 1.136l-.83.83a.408.408 0 00-.086.238c.319 1.234 1.284 2.37 2.137 3.153.853.783 1.77 1.843 2.96 2.094.147.04.327.055.433-.043l.966-.983c.334-.252.815-.376 1.17-.17h.018l3.273 1.933c.48.301.53.883.187 1.238z" fill="#E88645"/></svg>