<svg width="20" height="20" fill="none" xmlns="http://www.w3.org/2000/svg"><path d="M13.86 10.943c-.048.048-.226.255-.391.425-.971 1.069-3.504 2.819-4.83 3.353-.201.086-.71.267-.982.279-.26 0-.51-.06-.746-.182a1.562 1.562 0 01-.663-.753c-.083-.22-.213-.875-.213-.887-.13-.717-.202-1.883-.202-3.171 0-1.228.072-2.346.178-3.074.012-.012.142-.827.284-1.106.261-.51.77-.827 1.315-.827h.047c.355.013 1.1.33 1.1.34 1.255.536 3.73 2.2 4.724 3.306 0 0 .28.284.402.461.19.256.284.571.284.887 0 .353-.107.681-.308.949z" fill="#fff"/></svg>