<svg width="32" height="32" fill="none" xmlns="http://www.w3.org/2000/svg"><path d="M8.548 12.944a.436.436 0 00-.873 0v.437a.437.437 0 00.873 0v-.437zm3.055.874a.437.437 0 00.437-.437v-.437a.436.436 0 10-.873 0v.437a.436.436 0 00.436.437z" fill="#F2C94C"/><path d="M15.968 29.095h-4.365v-1.29a4.809 4.809 0 00-.785-2.638l.407-.612a1.07 1.07 0 00.742-.013 1.077 1.077 0 00.684-.836l.139-.831.9.4a5.476 5.476 0 011.54 1.023.437.437 0 10.6-.635 6.36 6.36 0 00-1.782-1.186l-2.445-1.086V20.06a5.247 5.247 0 003.474-4.496h.018a1.746 1.746 0 001.721-2.04l.003-.005.596-1.79c.199-.593.3-1.215.3-1.84A7.857 7.857 0 102 9.889c0 .625.1 1.246.299 1.839l.597 1.79v.004a1.746 1.746 0 001.723 2.041h.018A5.246 5.246 0 008.11 20.06v1.332l-2.444 1.086a6.032 6.032 0 00-3.654 5.08 6.82 6.82 0 00-.013.405v1.57a.437.437 0 00.437.436h13.531a.436.436 0 100-.873zm-7.517-6.9l.751.753-.933.748a.215.215 0 01-.346-.131l-.175-1.055.703-.315zm1.406 1.348l.649.519-.446.668h-.406l-.446-.668.65-.519zm-.209 2.07l.006-.01h.406l.006.01c.434.649.665 1.412.664 2.193v1.29H8.984v-1.29c0-.781.23-1.544.664-2.194zm2.144-2.05a.215.215 0 01-.346.13l-.934-.745.753-.753.704.313-.177 1.055zM2.873 9.889a6.984 6.984 0 1113.968 0 4.95 4.95 0 01-.253 1.564l-.35 1.047a1.746 1.746 0 00-.706-.374V8.58a.436.436 0 00-.632-.39 11.327 11.327 0 01-10.086 0 .437.437 0 00-.631.39v3.547a1.746 1.746 0 00-.706.376l-.35-1.05a4.932 4.932 0 01-.254-1.563zm2.62 5.238a.437.437 0 00-.437-.437h-.437a.873.873 0 010-1.746.437.437 0 00.437-.436V9.263a12.222 12.222 0 009.603 0v3.245a.437.437 0 00.436.436.873.873 0 010 1.746h-.436a.437.437 0 00-.437.437 4.365 4.365 0 01-8.73 0zm4.364 5.238c.293-.001.585-.027.873-.077v1.206l-.873.873-.873-.873v-1.206c.288.05.58.076.873.077zM2.873 27.96c0-.116.004-.233.011-.349a5.163 5.163 0 013.138-4.338l.9-.4.14.832a1.077 1.077 0 00.684.837 1.09 1.09 0 00.744.013l.407.612a4.81 4.81 0 00-.786 2.639v1.29H2.873V27.96z" fill="#F2C94C"/><path fill-rule="evenodd" clip-rule="evenodd" d="M21.093 27.888h4.26c.482-1.424 2.495-1.41 2.972 0h.356v-2.053a.466.466 0 00-.464-.465H25.08a.41.41 0 01-.41-.41v-2.464h-7.014v.492h.753c.539 0 .539.822 0 .822h-.753v.793h1.965c.54 0 .54.822 0 .822h-1.965v2.463h.465c.483-1.424 2.495-1.41 2.973 0zm-4.256-4.078h-.492c-.539 0-.539-.822 0-.822h.492v-.903a.41.41 0 01.409-.41c.627 0 7.512.002 7.512 0 1.12 0 2.097.556 2.671 1.523l.803 1.35c.7.009 1.268.583 1.268 1.287V28.3a.41.41 0 01-.41.41h-.713a1.571 1.571 0 01-1.538 1.26 1.571 1.571 0 01-1.538-1.26h-4.156a1.571 1.571 0 01-1.538 1.26 1.571 1.571 0 01-1.538-1.26h-.823a.41.41 0 01-.41-.41v-1.232h-.9c-.539 0-.539-.821 0-.821h.9v-.821h-.9c-.539 0-.539-.822 0-.822h.9v-.793zm10.533 4.052a.754.754 0 010 1.065c-.472.473-1.282.136-1.282-.533 0-.668.81-1.005 1.282-.532zm-.088-3.313h-1.794v-1.942c.522.168.95.52 1.24 1.011l.554.93zm-7.145 3.313a.754.754 0 010 1.065c-.471.473-1.28.136-1.28-.533 0-.668.809-1.005 1.28-.532z" fill="#F2C94C"/></svg>