<svg width="32" height="32" fill="none" xmlns="http://www.w3.org/2000/svg"><g clip-path="url(#clip0_105_988)" fill="#E88645"><path d="M7.467 21.067a3.203 3.203 0 00-3.2 3.2c0 1.765 1.435 3.2 3.2 3.2 1.765 0 3.2-1.435 3.2-3.2 0-1.765-1.436-3.2-3.2-3.2zm0 5.333a2.135 2.135 0 01-2.134-2.133c0-1.177.957-2.134 2.134-2.134 1.176 0 2.133.957 2.133 2.134A2.135 2.135 0 017.467 26.4zM25.6 21.067a3.203 3.203 0 00-3.2 3.2c0 1.765 1.435 3.2 3.2 3.2 1.765 0 3.2-1.435 3.2-3.2 0-1.765-1.435-3.2-3.2-3.2zm0 5.333a2.135 2.135 0 01-2.133-2.133c0-1.177.957-2.134 2.133-2.134 1.177 0 2.133.957 2.133 2.134A2.135 2.135 0 0125.6 26.4z"/><path d="M31.915 18.111l-4.8-7.466a.533.533 0 00-.448-.245H20.8a.533.533 0 00-.533.533v13.334c0 .294.238.533.533.533h2.133v-1.067h-1.6V11.467h5.043l4.557 7.09v5.176h-2.666V24.8h3.2a.533.533 0 00.533-.533V18.4a.531.531 0 00-.085-.289z"/><path d="M23.467 17.333V13.6h4.266v-1.067h-4.8a.533.533 0 00-.533.534v4.8c0 .294.239.533.533.533h8v-1.067h-7.466zM20.8 6.667H.533A.534.534 0 000 7.2v17.067c0 .294.239.533.533.533H4.8v-1.067H1.067v-16h19.2v16H10.133V24.8H20.8a.533.533 0 00.533-.534V7.2a.533.533 0 00-.533-.534z"/><path d="M3.733 21.6h-3.2v1.066h3.2V21.6zm16.534 0H11.2v1.066h9.067V21.6zm11.2 0h-2.134v1.066h2.134V21.6zM20.8 8.8H2.133v1.066H20.8V8.8zM8 23.733H6.933V24.8H8v-1.067zm18.133 0h-1.066V24.8h1.066v-1.067zM9.6 4.533H2.133V5.6H9.6V4.533zm-8.533 0H0V5.6h1.067V4.533z"/></g><defs><clipPath id="clip0_105_988"><path fill="#fff" d="M0 0h32v32H0z"/></clipPath></defs></svg>