<svg width="22" height="24" fill="none" xmlns="http://www.w3.org/2000/svg"><path fill-rule="evenodd" clip-rule="evenodd" d="M20.595 9.66H4.647l15.318-4.437a.469.469 0 00.32-.579l-.802-2.767A2.617 2.617 0 0016.98 0a2.59 2.59 0 00-.72.102L1.878 4.27A2.584 2.584 0 00.325 5.514 2.583 2.583 0 00.103 7.49l.783 2.704v11.137a2.604 2.604 0 002.602 2.601h5.617a.467.467 0 000-.935H3.488a1.668 1.668 0 01-1.667-1.666V14.97h18.307v6.362c0 .919-.748 1.666-1.667 1.666h-5.617a.468.468 0 000 .935h5.617a2.604 2.604 0 002.602-2.601V10.128a.467.467 0 00-.468-.467zm-8.242 4.376l1.986-3.44h2.583l-1.986 3.44h-2.584zm-3.663 0l1.986-3.44h2.583l-1.986 3.44H8.69zm-3.663 0l1.986-3.44h2.583l-1.986 3.44H5.027zm1.738-6.052L3.439 4.79l2.492-.722c.018.026.038.05.061.072l3.326 3.194-2.492.722a.465.465 0 00-.061-.072zm6.264-5.882l3.326 3.194-2.492.722a.453.453 0 00-.062-.072l-3.325-3.194 2.491-.722c.018.025.038.05.062.072zM9.51 3.122l3.326 3.193-2.492.722a.458.458 0 00-.061-.072L6.957 3.771l2.492-.722c.018.025.038.05.061.072zM16.52 1a1.677 1.677 0 012.064 1.137l.672 2.318L17.381 5a.473.473 0 00-.062-.072l-3.325-3.195L16.52 1zM1.144 5.965c.216-.392.569-.675.994-.798l.275-.08c.018.026.038.05.061.072L5.8 8.354 1.673 9.549 1 7.231a1.655 1.655 0 01.143-1.266zm.677 4.63h4.112l-1.985 3.44H1.82v-3.44zm14.194 3.44l1.986-3.44h2.127v3.44h-4.113z" fill="#2D9CDB"/><path fill-rule="evenodd" clip-rule="evenodd" d="M14.206 18.937a.467.467 0 00-.233-.405L9.866 16.16a.467.467 0 00-.701.405v4.742a.467.467 0 00.701.404l4.107-2.37a.467.467 0 00.233-.405zM10.1 20.498v-3.123l2.704 1.562-2.704 1.561zm.874 2.5a.468.468 0 000 .935.468.468 0 000-.935z" fill="#2D9CDB"/></svg>