<svg width="32" height="32" fill="none" xmlns="http://www.w3.org/2000/svg"><path d="M27.645 1.148a.471.471 0 00-.368.867A6.21 6.21 0 0131.07 7.74c0 5.694-7.091 8.408-10.867 4.118-2.135-2.406-2.11-6.143.26-8.512a6.187 6.187 0 015.13-1.777.471.471 0 00.11-.935c-6.167-.733-10.244 6.215-6.7 11.224H9.139a.797.797 0 00-.797.797v6.09l-.884 1.737c-.168.33-.447.576-.778.701 0-.726-.57-1.23-1.207-1.23H3.657c-.626 0-1.207.486-1.207 1.255H1.283C.575 21.208 0 21.783 0 22.49v.57a.47.47 0 10.941 0v-.57c0-.189.153-.342.342-.342H2.45v6.516H1.283a.342.342 0 01-.342-.341v-3.38a.47.47 0 10-.941 0v3.38c0 .707.575 1.282 1.283 1.282H2.45c0 .77.581 1.256 1.207 1.256h1.815c.553 0 1.02-.374 1.162-.883.579.155-1.016.094 20.053.094.485 0 .88-.395.88-.88V14.365c5.853-2.396 5.942-10.733.078-13.217zM5.737 25.38v4.275a.269.269 0 01-.265.265H3.657a.27.27 0 01-.266-.265V21.16c0-.144.122-.265.266-.265h1.815c.144 0 .265.12.265.265v4.22zm8.601-12.581h3.59v3.693l-1.396-1.091a.65.65 0 00-.799 0l-1.395 1.091V12.8zm-.108 16.33c-7.473.003-7.11.05-7.551-.124v-6.84c.695-.154 1.27-.578 1.662-1.345l1.069-2.1c.156-.311 1.037.477.622 1.293l-.454.893a.904.904 0 00.806 1.314l5.896-.002c.292 0 .541.24.538.518a.513.513 0 01-.509.503h-3.68a.47.47 0 100 .942h5.495c.237 0 .484.217.523.428.068.342-.132.592-.485.592H12.59a.47.47 0 100 .941h4.72a.51.51 0 01-.02 1.022l-5.152.002a.47.47 0 100 .941c2.242 0 2.254-.05 2.455.15a.512.512 0 01-.362.871zm12.395.002h-2.7v-9.05a.471.471 0 00-.94 0v9.05h-7.399a1.43 1.43 0 00.006-1.024h1.698a1.452 1.452 0 001.33-2.032c1.047-.323 1.301-1.628.545-2.387-.508-.508-1.015-.448-1.5-.448.364-.958-.37-1.963-1.386-1.963l-5.836.002.427-.838c.716-1.408-.52-2.96-1.588-2.706v-4.936h4.115v4.294a.65.65 0 00.65.649c.29 0 .23-.007 2.086-1.459 1.83 1.432 1.79 1.459 2.087 1.459a.65.65 0 00.65-.649V12.8h.927a7.104 7.104 0 003.187 1.849V18.2a.47.47 0 10.942 0v-3.364a7.247 7.247 0 002.7-.16V29.13z" fill="#5D94CE"/><path d="M21.748 7.654a.47.47 0 10-.704.624l1.895 2.14a.919.919 0 001.373.003l4.354-4.887a.47.47 0 10-.703-.626l-4.336 4.866-1.879-2.12z" fill="#5D94CE"/></svg>