<svg width="32" height="32" fill="none" xmlns="http://www.w3.org/2000/svg"><path d="M17.333 11.394l10.279 2.042A1.724 1.724 0 0129 15.14v11.9c0 .969-.782 1.75-1.75 1.75h-10.5a.578.578 0 00.583-.583v-.583h9.917a.585.585 0 00.583-.584v-11.9a.586.586 0 00-.455-.571l-10.045-1.984v-1.19z" fill="#E88645"/><path d="M23.75 17.123c.327 0 .583.256.583.583a.578.578 0 01-.583.583h-2.333a.578.578 0 01-.584-.583c0-.327.257-.583.584-.583h2.333zm0 3.5c.327 0 .583.256.583.583a.578.578 0 01-.583.583h-2.333a.578.578 0 01-.584-.583c0-.327.257-.583.584-.583h2.333zm0 3.5c.327 0 .583.256.583.583a.578.578 0 01-.583.583h-2.333a.578.578 0 01-.584-.583c0-.327.257-.583.584-.583h2.333zm-6.417 4.083a.578.578 0 01-.583.583.578.578 0 01-.583-.583V11.873a.62.62 0 01.21-.455.613.613 0 01.49-.117l.466.093v16.812z" fill="#E88645"/><path d="M16.167 27.623v.583c0 .327.256.583.583.583h-4.667a.578.578 0 00.584-.583v-.583h3.5zm-2.917-21c.327 0 .583.256.583.583a.578.578 0 01-.583.583h-2.333a.578.578 0 01-.584-.583c0-.327.257-.583.584-.583h2.333zm.583 4.083a.578.578 0 01-.583.583h-2.333a.578.578 0 01-.584-.583c0-.327.257-.583.584-.583h2.333c.327 0 .583.256.583.583zm-.583 2.917c.327 0 .583.256.583.583a.578.578 0 01-.583.583h-2.333a.578.578 0 01-.584-.583c0-.327.257-.583.584-.583h2.333zm0 3.5c.327 0 .583.256.583.583a.578.578 0 01-.583.583h-2.333a.578.578 0 01-.584-.583c0-.327.257-.583.584-.583h2.333zM8 17.706a.578.578 0 01-.583.583H5.083a.578.578 0 01-.583-.583c0-.327.257-.583.583-.583h2.334c.326 0 .583.256.583.583zM7.417 6.623c.326 0 .583.256.583.583a.578.578 0 01-.583.583H5.083a.578.578 0 01-.583-.583c0-.327.257-.583.583-.583h2.334zm0 3.5c.326 0 .583.256.583.583a.578.578 0 01-.583.583H5.083a.578.578 0 01-.583-.583c0-.327.257-.583.583-.583h2.334zm0 3.5c.326 0 .583.256.583.583a.578.578 0 01-.583.583H5.083a.578.578 0 01-.583-.583c0-.327.257-.583.583-.583h2.334zm4.083 8.75a.585.585 0 00-.583-.584h-3.5a.578.578 0 00-.584.584v5.25H5.667v-5.25c0-.969.781-1.75 1.75-1.75h3.5c.968 0 1.75.781 1.75 1.75v5.25H11.5v-5.25z" fill="#E88645"/><path d="M6.833 27.623h5.834v.583a.578.578 0 01-.584.583H6.25a.578.578 0 01-.583-.583v-.583h1.166z" fill="#E88645"/><path d="M3.042 1.023L15.863 2.97c.852.14 1.47.863 1.47 1.727v6.696l-.466-.093a.613.613 0 00-.49.117.62.62 0 00-.21.455V4.698a.59.59 0 00-.49-.584L2.855 2.178c-.035-.012-.07-.012-.105-.012a.55.55 0 00-.373.14.558.558 0 00-.21.443v24.29c0 .327.268.584.583.584h2.917v.583c0 .327.256.583.583.583h-3.5c-.968 0-1.75-.781-1.75-1.75V2.75c0-.513.222-1.003.618-1.33.397-.338.91-.478 1.424-.396z" fill="#E88645"/><path d="M15.25 30.122V21.45H25.6l.9.45 2.7 3.15 1.35.9v3.6h-.45l-1.35-.45v1.8H27.4l-1.8-.778-5.4-.572-1.8 1.35-1.535-.778H15.25z" fill="#fff"/><path fill-rule="evenodd" clip-rule="evenodd" d="M20.166 29.091h5.49c.621-1.854 3.215-1.837 3.83 0h.459v-2.673a.604.604 0 00-.598-.606h-4.044a.531.531 0 01-.528-.535V22.07h-9.038v.642h.97c.694 0 .694 1.07 0 1.07h-.97v1.033h2.532c.694 0 .694 1.07 0 1.07h-2.532v3.207h.599c.621-1.855 3.215-1.836 3.83 0zm-5.485-5.31h-.632c-.695 0-.695-1.07 0-1.07h.632v-1.176c0-.296.237-.535.528-.535.807 0 9.68.003 9.68 0 1.445 0 2.703.725 3.443 1.983l1.034 1.76c.903.01 1.634.758 1.634 1.675v3.208a.531.531 0 01-.527.534h-.92a2.03 2.03 0 01-1.982 1.64 2.03 2.03 0 01-1.982-1.64h-5.356a2.03 2.03 0 01-1.982 1.64 2.03 2.03 0 01-1.982-1.64h-1.06a.531.531 0 01-.528-.534v-1.604h-1.16c-.695 0-.695-1.07 0-1.07h1.16v-1.069h-1.16c-.695 0-.695-1.07 0-1.07h1.16V23.78zm13.574 5.276a.99.99 0 010 1.387c-.608.615-1.651.177-1.651-.694 0-.87 1.043-1.308 1.65-.693zm-.113-4.314H25.83v-2.529c.673.219 1.224.678 1.599 1.317l.713 1.212zm-9.207 4.314a.99.99 0 010 1.387c-.607.615-1.651.177-1.651-.694 0-.87 1.044-1.308 1.651-.693z" fill="#E88645"/></svg>