<svg width="130" height="50" viewBox="0 0 130 50" fill="none" xmlns="http://www.w3.org/2000/svg">
<path d="M0.771484 20.2074L12.4873 20.21L19.6113 20.2108V13.1533L0.771484 20.2074Z" fill="#FF9D28"/>
<path d="M19.6108 13.152V38.069L28.5084 9.81934L19.6108 13.152Z" fill="#68C5ED"/>
<path d="M19.6118 20.2098L12.4878 20.209L19.6118 38.0693V20.2098Z" fill="#044D80"/>
<path d="M0.771484 20.207L14.3141 24.792L12.4873 20.2096L0.771484 20.207Z" fill="#E54747"/>
<path d="M43.9299 31.5114C43.8268 31.6146 43.6546 31.7437 43.4138 31.8985C43.1729 32.0532 42.8588 32.2083 42.4718 32.3631C42.0852 32.5178 41.6112 32.6512 41.0529 32.7633C40.4937 32.8745 39.853 32.9308 39.1302 32.9308C37.7364 32.9308 36.5323 32.707 35.5174 32.2599C34.5017 31.8128 33.6633 31.1888 33.0014 30.3892C32.339 29.5892 31.8531 28.6429 31.5433 27.5505C31.2334 26.4585 31.0791 25.2582 31.0791 23.9506C31.0791 22.6433 31.2466 21.4345 31.5821 20.3251C31.9175 19.2156 32.4209 18.2566 33.0918 17.4476C33.7626 16.639 34.6015 16.0069 35.6078 15.5509C36.6141 15.0952 37.7969 14.8672 39.1557 14.8672C39.8266 14.8672 40.4331 14.9277 40.9753 15.0479C41.517 15.1685 41.9901 15.3105 42.3946 15.4737C42.7983 15.6374 43.1337 15.8092 43.401 15.9899C43.6674 16.1706 43.8694 16.3215 44.0075 16.4413C44.1618 16.5793 44.2952 16.7426 44.4073 16.9314C44.519 17.1211 44.5748 17.3274 44.5748 17.5507C44.5748 17.8951 44.4457 18.2391 44.1882 18.5831C43.9303 18.9275 43.6465 19.2454 43.3362 19.5378C43.1299 19.3315 42.898 19.121 42.6397 18.9057C42.3819 18.6909 42.0933 18.5016 41.7753 18.338C41.4569 18.1747 41.0955 18.0371 40.6914 17.925C40.2869 17.8133 39.8356 17.757 39.3364 17.757C38.4588 17.757 37.724 17.9339 37.1303 18.286C36.5365 18.6389 36.0592 19.0988 35.6981 19.6665C35.3367 20.2343 35.0788 20.8834 34.9241 21.6148C34.7694 22.3462 34.6918 23.09 34.6918 23.847C34.6918 24.656 34.7694 25.4296 34.9241 26.1695C35.0788 26.909 35.3452 27.5637 35.7242 28.1306C36.1022 28.6983 36.5971 29.1544 37.2079 29.4984C37.8182 29.8432 38.5795 30.0145 39.4912 30.0145C39.9728 30.0145 40.4157 29.9544 40.8201 29.8338C41.2238 29.714 41.5814 29.5674 41.8913 29.3952C42.2007 29.2239 42.4718 29.0432 42.7037 28.8539C42.936 28.6647 43.1295 28.5014 43.2846 28.3633C43.3873 28.4839 43.5075 28.6306 43.6456 28.8023C43.7842 28.9758 43.9137 29.1565 44.0326 29.3441C44.1528 29.5333 44.256 29.7226 44.3425 29.9114C44.4286 30.1011 44.4717 30.2728 44.4717 30.4275C44.4717 30.6513 44.4286 30.8406 44.3425 30.9953C44.2568 31.15 44.1192 31.3222 43.9299 31.5114ZM57.2283 29.5325C57.2283 30.8994 57.4273 31.8951 57.8254 32.5178C57.5134 32.6384 57.224 32.7253 56.9555 32.7773C56.687 32.8289 56.4061 32.8549 56.1116 32.8549C55.4888 32.8549 55.017 32.7343 54.6969 32.4918C54.3768 32.2497 54.1731 31.9032 54.087 31.4526C53.7055 31.8516 53.2042 32.1887 52.5811 32.4658C51.958 32.742 51.1963 32.8813 50.2969 32.8813C49.8294 32.8813 49.3622 32.8166 48.8951 32.6874C48.4275 32.5574 48.0034 32.3464 47.6228 32.0536C47.2417 31.7604 46.9306 31.3678 46.6885 30.8759C46.446 30.3841 46.3249 29.7844 46.3249 29.0772C46.3249 28.1971 46.5367 27.481 46.9608 26.9295C47.3849 26.3771 47.9169 25.9419 48.5575 25.6222C49.1977 25.3034 49.8899 25.0839 50.6345 24.9629C51.3783 24.8422 52.0624 24.7647 52.6855 24.7297C52.8931 24.7122 53.0964 24.7037 53.2955 24.7037H53.8534V24.231C53.8534 23.5657 53.6757 23.093 53.3215 22.8134C52.9664 22.5333 52.3906 22.3931 51.5948 22.3931C50.8506 22.3931 50.1882 22.5146 49.609 22.7567C49.0289 22.9992 48.4624 23.2758 47.9088 23.5874C47.6663 23.2933 47.4715 22.969 47.3244 22.6139C47.1774 22.2597 47.1036 21.9954 47.1036 21.8224C47.1036 21.5803 47.2375 21.3467 47.506 21.1212C47.7741 20.8966 48.1419 20.6929 48.6095 20.5109C49.0771 20.3293 49.6128 20.1823 50.2189 20.0697C50.8246 19.9572 51.4648 19.901 52.14 19.901C53.0742 19.901 53.8666 19.9964 54.5153 20.1865C55.1641 20.3775 55.6922 20.6712 56.0988 21.0693C56.5054 21.4678 56.7957 21.9652 56.9687 22.5623C57.1413 23.1595 57.2279 23.8564 57.2279 24.6517V29.5325H57.2283ZM53.9054 26.5212H53.5418C53.4203 26.5212 53.2993 26.5301 53.1782 26.5476C52.7452 26.5825 52.3168 26.6341 51.8927 26.7032C51.4686 26.7722 51.0919 26.8933 50.7637 27.0663C50.435 27.2394 50.1669 27.4648 49.9589 27.741C49.7514 28.0181 49.6474 28.3727 49.6474 28.8057C49.6474 29.2904 49.7859 29.7013 50.0629 30.0388C50.3396 30.3764 50.8067 30.5452 51.4648 30.5452C51.7934 30.5452 52.105 30.5021 52.3995 30.4152C52.6932 30.3291 52.9532 30.2161 53.1782 30.078C53.4024 29.9395 53.5802 29.7882 53.7102 29.6237C53.8402 29.4596 53.905 29.3083 53.905 29.1697V26.5212H53.9054ZM63.6921 21.4068C63.9683 21.0782 64.3996 20.7449 64.9861 20.4073C65.5726 20.0697 66.3142 19.901 67.2119 19.901C67.8503 19.901 68.4586 20.0092 69.0365 20.2257C69.6137 20.4423 70.1277 20.7931 70.5761 21.2773C71.0249 21.7619 71.3829 22.4025 71.6506 23.1983C71.9179 23.9945 72.0513 24.9727 72.0513 26.1316C72.0513 27.4814 71.8961 28.5935 71.5854 29.4677C71.2742 30.3419 70.8736 31.0345 70.3826 31.5447C69.8907 32.0549 69.3426 32.4142 68.739 32.6218C68.1351 32.8289 67.5311 32.9329 66.9276 32.9329C66.4272 32.9329 65.9916 32.8767 65.6207 32.7641C65.2499 32.6512 64.9349 32.5263 64.6762 32.3873C64.4175 32.2493 64.2193 32.1111 64.0812 31.9718C63.9435 31.8337 63.857 31.7382 63.8225 31.6862V38.0681H60.2916V20.2641C60.3785 20.2471 60.483 20.2296 60.6053 20.2121C60.7101 20.1951 60.8321 20.1818 60.9719 20.1729C61.1112 20.1644 61.277 20.1601 61.4684 20.1601C62.0438 20.1601 62.5319 20.2556 62.9334 20.4457C63.3344 20.6371 63.5876 20.9567 63.6921 21.4068ZM68.3652 26.2092C68.3652 25.69 68.3218 25.2058 68.2361 24.7557C68.15 24.3056 68.0081 23.9165 67.8103 23.5874C67.6121 23.2588 67.3453 23.0031 67.0098 22.8215C66.674 22.6399 66.2656 22.5491 65.784 22.5491C65.0611 22.5491 64.5577 22.6881 64.2734 22.9647C63.99 23.2417 63.8476 23.5448 63.8476 23.8734V29.3773C63.9853 29.5158 64.23 29.6799 64.5833 29.87C64.9362 30.0606 65.3445 30.1556 65.8096 30.1556C66.6876 30.1556 67.3325 29.8099 67.7455 29.1173C68.1589 28.4247 68.3652 27.4554 68.3652 26.2092ZM74.7766 30.6748C74.6551 30.3287 74.5775 29.9655 74.543 29.584C74.5081 29.2034 74.491 28.8232 74.491 28.4417V16.3961C74.6116 16.379 74.7416 16.3615 74.8801 16.3441C75.0008 16.327 75.1312 16.3142 75.2697 16.3053C75.4078 16.2968 75.5463 16.2925 75.6849 16.2925C75.9615 16.2925 76.239 16.3185 76.516 16.3705C76.7922 16.4225 77.0433 16.5265 77.2692 16.6821C77.4934 16.8376 77.6754 17.0499 77.8139 17.318C77.9524 17.5865 78.0215 17.9369 78.0215 18.3695V20.2125H81.6559V22.8347H78.0215V28.3706C78.0215 29.5781 78.5146 30.1816 79.5013 30.1816C79.7434 30.1816 79.9723 30.1428 80.1893 30.0648C80.4054 29.9868 80.6001 29.9007 80.7732 29.8053C80.9462 29.7102 81.098 29.6109 81.2276 29.5073C81.3576 29.4033 81.4483 29.3253 81.4999 29.2733C81.7595 29.6548 81.9585 29.9843 82.0971 30.2622C82.2352 30.5409 82.3046 30.8026 82.3046 31.0469C82.3046 31.274 82.2139 31.497 82.0319 31.7152C81.8499 31.9334 81.5945 32.1342 81.2659 32.3179C80.9373 32.5016 80.5392 32.6495 80.0716 32.7633C79.6045 32.8771 79.0934 32.9334 78.5398 32.9334C77.4665 32.9334 76.6315 32.7262 76.0344 32.3106C75.4385 31.8951 75.0187 31.3499 74.7766 30.6748ZM90.5982 30.3372C91.0321 30.3372 91.414 30.2903 91.7443 30.1944C92.0738 30.0993 92.3692 29.983 92.6296 29.844C92.8901 29.7059 93.1164 29.5542 93.3073 29.3901C93.4983 29.2256 93.6718 29.0743 93.8286 28.9362C94.0366 29.1949 94.2536 29.5291 94.4795 29.9352C94.7049 30.3423 94.8183 30.6752 94.8183 30.9352C94.8183 31.3158 94.6018 31.6619 94.1692 31.9735C93.806 32.2505 93.2907 32.4888 92.6245 32.6878C91.9579 32.8869 91.1749 32.9858 90.2751 32.9858C89.461 32.9858 88.661 32.8826 87.8733 32.6746C87.0857 32.4675 86.3849 32.1035 85.7707 31.5839C85.1561 31.0652 84.6583 30.3683 84.2777 29.4945C83.8966 28.6208 83.7065 27.5173 83.7065 26.1844C83.7065 25.0937 83.8753 24.1556 84.2129 23.3679C84.5504 22.5807 85.0005 21.9272 85.5632 21.4081C86.1249 20.889 86.7613 20.5083 87.471 20.2658C88.1806 20.0237 88.9078 19.9022 89.652 19.9022C90.6208 19.9022 91.443 20.054 92.1177 20.3566C92.7929 20.6596 93.3423 21.0663 93.7664 21.5769C94.1901 22.0875 94.4974 22.6714 94.6879 23.3291C94.878 23.9872 94.9735 24.679 94.9735 25.4061V25.7693C94.9735 25.9082 94.9688 26.0549 94.9607 26.2104C94.9517 26.3664 94.9432 26.5186 94.9347 26.6648C94.9257 26.8123 94.9125 26.9286 94.8959 27.0152H87.237C87.3064 27.9669 87.6014 28.7589 88.1227 29.3905C88.644 30.0222 89.4691 30.3372 90.5982 30.3372ZM91.7814 25.0673C91.7814 24.2366 91.6199 23.5618 91.2981 23.0423C90.9759 22.5231 90.397 22.2631 89.5621 22.2631C88.8481 22.2631 88.2778 22.5099 87.8516 23.0031C87.4249 23.4962 87.2122 24.1841 87.2122 25.0669H91.7814V25.0673ZM101.118 21.4725C101.222 21.3182 101.361 21.1464 101.534 20.9572C101.707 20.7683 101.919 20.5966 102.17 20.4423C102.421 20.2875 102.698 20.1588 103.001 20.0557C103.303 19.9525 103.628 19.9014 103.974 19.9014C104.182 19.9014 104.403 19.9189 104.636 19.953C104.87 19.9875 105.086 20.0518 105.285 20.146C105.484 20.2407 105.644 20.369 105.765 20.5322C105.886 20.695 105.947 20.8966 105.947 21.137C105.947 21.5147 105.852 21.9481 105.662 22.4379C105.471 22.928 105.281 23.3457 105.09 23.6918C104.796 23.4497 104.501 23.2635 104.208 23.1335C103.914 23.0039 103.567 22.9387 103.169 22.9387C102.633 22.9387 102.183 23.0951 101.82 23.4075C101.456 23.7195 101.274 24.0929 101.274 24.5273V32.9312H97.744V20.265C97.8305 20.2479 97.9341 20.2304 98.0551 20.213C98.1591 20.1959 98.2802 20.1827 98.4191 20.1737C98.5572 20.1652 98.7217 20.161 98.9122 20.161C99.4659 20.161 99.9463 20.2684 100.353 20.4828C100.759 20.6963 101.015 21.0266 101.118 21.4725ZM111.157 21.4725C111.26 21.3182 111.399 21.1464 111.572 20.9572C111.745 20.7683 111.957 20.5966 112.208 20.4423C112.459 20.2875 112.736 20.1588 113.039 20.0557C113.341 19.9525 113.666 19.9014 114.012 19.9014C114.219 19.9014 114.44 19.9189 114.674 19.953C114.908 19.9875 115.124 20.0518 115.323 20.146C115.522 20.2407 115.682 20.369 115.803 20.5322C115.924 20.695 115.985 20.8966 115.985 21.137C115.985 21.5147 115.889 21.9481 115.7 22.4379C115.509 22.928 115.318 23.3457 115.128 23.6918C114.834 23.4497 114.54 23.2635 114.246 23.1335C113.952 23.0039 113.605 22.9387 113.208 22.9387C112.671 22.9387 112.221 23.0951 111.858 23.4075C111.494 23.7195 111.313 24.0929 111.313 24.5273V32.9312H107.782V20.265C107.869 20.2479 107.972 20.2304 108.094 20.213C108.197 20.1959 108.318 20.1827 108.457 20.1737C108.595 20.1652 108.76 20.161 108.95 20.161C109.504 20.161 109.984 20.2684 110.391 20.4828C110.797 20.6963 111.053 21.0266 111.157 21.4725ZM128.005 29.5325C128.005 30.8994 128.204 31.8951 128.602 32.5178C128.291 32.6384 128.001 32.7253 127.733 32.7773C127.464 32.8289 127.183 32.8549 126.889 32.8549C126.266 32.8549 125.794 32.7343 125.474 32.4918C125.154 32.2497 124.95 31.9032 124.864 31.4526C124.483 31.8516 123.981 32.1887 123.358 32.4658C122.735 32.742 121.973 32.8813 121.074 32.8813C120.606 32.8813 120.14 32.8166 119.672 32.6874C119.205 32.5574 118.78 32.3464 118.4 32.0536C118.019 31.7604 117.708 31.3678 117.466 30.8759C117.223 30.3841 117.102 29.7844 117.102 29.0772C117.102 28.1971 117.314 27.481 117.738 26.9295C118.162 26.3771 118.694 25.9419 119.335 25.6222C119.975 25.3034 120.667 25.0839 121.412 24.9629C122.155 24.8422 122.839 24.7647 123.463 24.7297C123.67 24.7122 123.874 24.7037 124.073 24.7037H124.631V24.231C124.631 23.5657 124.453 23.093 124.099 22.8134C123.744 22.5333 123.168 22.3931 122.372 22.3931C121.628 22.3931 120.966 22.5146 120.387 22.7567C119.806 22.9992 119.24 23.2758 118.686 23.5874C118.444 23.2933 118.249 22.969 118.102 22.6139C117.955 22.2597 117.881 21.9954 117.881 21.8224C117.881 21.5803 118.015 21.3467 118.284 21.1212C118.552 20.8966 118.919 20.6929 119.387 20.5109C119.854 20.3293 120.39 20.1823 120.996 20.0697C121.602 19.9572 122.242 19.901 122.917 19.901C123.852 19.901 124.644 19.9964 125.293 20.1865C125.942 20.3775 126.47 20.6712 126.876 21.0693C127.283 21.4678 127.573 21.9652 127.746 22.5623C127.919 23.1595 128.005 23.8564 128.005 24.6517V29.5325H128.005ZM124.682 26.5212H124.319C124.197 26.5212 124.076 26.5301 123.955 26.5476C123.522 26.5825 123.094 26.6341 122.669 26.7032C122.245 26.7722 121.869 26.8933 121.54 27.0663C121.212 27.2394 120.944 27.4648 120.736 27.741C120.528 28.0181 120.424 28.3727 120.424 28.8057C120.424 29.2904 120.563 29.7013 120.84 30.0388C121.116 30.3764 121.584 30.5452 122.241 30.5452C122.57 30.5452 122.882 30.5021 123.176 30.4152C123.47 30.3291 123.73 30.2161 123.955 30.078C124.179 29.9395 124.357 29.7882 124.487 29.6237C124.617 29.4596 124.682 29.3083 124.682 29.1697V26.5212H124.682Z" fill="#044D80"/>
</svg>
