<svg width="120" height="46" viewBox="0 0 120 46" fill="none" xmlns="http://www.w3.org/2000/svg">
<path d="M31.4756 23.6413L24.0207 15.5455C23.763 15.2856 23.3764 15.2856 23.1371 15.5455L21.6645 17.1447L27.6469 23.6413C27.8862 23.9012 27.8862 24.341 27.6469 24.6009L21.4805 31.2974L22.9531 32.8966C23.2108 33.1565 23.5973 33.1565 23.8366 32.8966L31.4572 24.6208C31.7149 24.341 31.7149 23.9212 31.4756 23.6413Z" fill="#009C9C"/>
<path d="M18.7747 16.1447L18.2409 15.565C17.9832 15.3052 17.5966 15.3052 17.3573 15.565L15.8848 17.1642L16.8603 18.2237L18.7747 20.3026L20.6891 18.2237L18.7747 16.1447Z" fill="#40E3E3"/>
<path d="M18.6097 28.1797L16.6953 30.2586L15.7197 31.3181L17.1923 32.9173C17.45 33.1771 17.8366 33.1771 18.0759 32.9173L18.6097 32.3376L20.524 30.2586L18.6097 28.1797Z" fill="#40E3E3"/>
<path d="M21.8854 23.6423C22.1247 23.9222 22.1247 24.3419 21.8854 24.6018L18.6089 28.16L20.5232 30.2389L25.7141 24.6018C25.9534 24.3419 25.9534 23.9022 25.7141 23.6423L20.7073 18.2051L18.7746 20.284L21.8854 23.6423Z" fill="#1ABAB8"/>
<path d="M9.71814 23.8412L14.909 18.2041L12.9946 16.1252L12.4424 15.5455C12.1847 15.2856 11.7982 15.2856 11.5589 15.5455L3.93826 23.8412C3.69897 24.1011 3.69897 24.5409 3.93826 24.8008L11.3932 32.8966C11.6509 33.1565 12.0375 33.1565 12.2767 32.8966L12.829 32.3169L14.7433 30.238L9.73655 24.8008C9.47885 24.5409 9.47885 24.1211 9.71814 23.8412Z" fill="#87F0F0"/>
<path d="M15.4981 23.8417L17.7806 21.363L15.8662 19.2841L14.8906 18.2246L9.7366 23.8617C9.49731 24.1216 9.49731 24.5614 9.7366 24.8212L14.725 30.2385L15.7006 29.179L17.6149 27.1001L15.4981 24.8013C15.2588 24.5614 15.2588 24.1216 15.4981 23.8417Z" fill="#40E3E3"/>
<path d="M15.4982 24.8005L17.615 27.0994L19.8975 24.6206C20.1368 24.3608 20.1368 23.921 19.8975 23.6611L17.7807 21.3623L15.4982 23.841C15.2773 24.1209 15.2773 24.5407 15.4982 24.8005Z" fill="#17CFCF"/>
<path d="M37.4582 21.9424C37.4766 21.0229 37.6423 20.1234 37.9552 19.2638C38.2497 18.4842 38.6915 17.7646 39.2437 17.1849C39.8511 16.5852 40.569 16.1254 41.3421 15.8456C42.2809 15.5057 43.2749 15.3458 44.2505 15.3658C45.3549 15.3258 46.4594 15.5057 47.4902 15.9055C48.2265 16.2054 48.9259 16.6451 49.515 17.2249C49.9751 17.6646 50.3249 18.2044 50.5642 18.804C50.7483 19.2438 50.8587 19.7036 50.9139 20.1833C50.9323 20.3632 50.8771 20.5432 50.7483 20.6631C50.6194 20.783 50.4721 20.843 50.3065 20.843H48.4842C48.3369 20.843 48.208 20.803 48.0976 20.7031C48.0056 20.6231 47.9319 20.5232 47.8951 20.4232C47.8583 20.3632 47.7847 20.2233 47.6558 20.0034C47.4902 19.7436 47.2877 19.5037 47.0484 19.3238C46.7171 19.0639 46.3489 18.844 45.9624 18.6841C45.4285 18.4842 44.8395 18.3843 44.2689 18.4043C43.2933 18.3443 42.3177 18.7041 41.563 19.3837C40.882 20.0634 40.4954 21.0229 40.477 22.0424C40.4402 22.6621 40.4402 23.3217 40.4402 24.0414C40.4402 24.741 40.4402 25.4207 40.477 26.0403C40.5138 27.3996 40.882 28.3791 41.563 28.9788C42.3361 29.6185 43.2933 29.9384 44.2505 29.8984C44.7659 29.8984 45.2813 29.8384 45.7783 29.6985C46.2201 29.5785 46.625 29.3586 46.9748 29.0588C47.3245 28.759 47.6006 28.3592 47.7663 27.8994C47.9688 27.3397 48.0608 26.74 48.0424 26.1403V25.9404H45.2997C45.134 25.9404 44.9868 25.8804 44.8763 25.7405C44.7659 25.6206 44.6923 25.4606 44.6923 25.2807V23.5416C44.6923 23.1818 44.9684 22.882 45.2997 22.882H50.4905C50.8219 22.882 51.098 23.1818 51.098 23.5416V26.2202C51.1164 27.1398 50.9691 28.0593 50.6746 28.9189C50.3985 29.7185 49.9567 30.4381 49.3861 31.0378C48.7787 31.6575 48.0424 32.1372 47.2509 32.4371C45.3181 33.0967 43.2381 33.0967 41.2869 32.4371C40.5138 32.1572 39.7959 31.6975 39.2069 31.0978C38.6547 30.4981 38.2129 29.7784 37.9368 28.9788C37.6423 28.1193 37.4766 27.1998 37.4582 26.2802C37.4582 25.9804 37.4398 25.6206 37.4214 25.2607C37.4214 24.8809 37.4214 24.5011 37.4214 24.1013C37.4214 23.7015 37.4214 23.3217 37.4214 22.9619C37.4214 22.5821 37.4398 22.2623 37.4582 21.9424Z" fill="#424A52"/>
<path d="M58.0372 22.7022C57.6507 22.6822 57.2825 22.7622 56.9144 22.9021C56.6199 23.022 56.3622 23.2019 56.1413 23.4418C55.9388 23.6417 55.7731 23.9016 55.6627 24.1814C55.5523 24.4213 55.4786 24.6812 55.4602 24.941H60.5406C60.5038 24.6812 60.4486 24.4213 60.375 24.1814C60.2829 23.9016 60.1541 23.6617 59.97 23.4418C59.7675 23.2019 59.5098 23.022 59.2337 22.9021C58.8472 22.7422 58.4422 22.6822 58.0372 22.7022ZM52.5335 26.3603C52.5335 25.4808 52.6623 24.6212 52.92 23.7816C53.1593 23.002 53.5275 22.2824 54.0245 21.6627C54.503 21.063 55.1105 20.5833 55.7731 20.2634C56.491 19.9236 57.2641 19.7437 58.0372 19.7437C58.8103 19.7237 59.5834 19.9036 60.3013 20.2434C60.964 20.5633 61.5714 21.023 62.0684 21.6027C62.547 22.1824 62.9336 22.8421 63.1913 23.5817C63.449 24.3413 63.5962 25.1409 63.5778 25.9605V27.06C63.5778 27.4198 63.3017 27.7196 62.9704 27.7196H55.4602C55.4602 28.0594 55.5338 28.3993 55.6627 28.6991C55.81 28.979 55.994 29.2188 56.2333 29.3988C56.491 29.5987 56.7671 29.7386 57.0617 29.8385C57.3746 29.9385 57.7059 29.9785 58.0372 29.9785C58.4238 29.9984 58.8288 29.9385 59.2153 29.8185C59.473 29.7386 59.7307 29.5986 59.9516 29.4187C60.0804 29.3188 60.2093 29.2188 60.3566 29.1389C60.4854 29.0789 60.6327 29.0589 60.7799 29.0589H62.5838C62.7495 29.0589 62.9152 29.1389 63.0256 29.2588C63.1545 29.3788 63.2097 29.5387 63.1913 29.7186C63.136 30.0384 63.0256 30.3383 62.8415 30.5981C62.5838 31.0179 62.2525 31.3777 61.866 31.6576C61.369 32.0374 60.8167 32.3372 60.2461 32.5371C59.5282 32.797 58.7735 32.917 58.0372 32.897C57.2641 32.897 56.491 32.737 55.7731 32.4172C55.1105 32.1174 54.503 31.6576 54.0245 31.0779C53.5275 30.4582 53.1593 29.7586 52.92 28.979C52.6439 28.1594 52.5151 27.2598 52.5335 26.3603Z" fill="#424A52"/>
<path d="M68.9718 28.1187C68.9534 28.5585 69.0823 28.9983 69.34 29.3181C69.5793 29.6179 70.0394 29.7779 70.7205 29.7779H72.0826C72.414 29.7779 72.6901 30.0777 72.6901 30.4375V32.0567C72.6901 32.4165 72.414 32.7164 72.0826 32.7164H70.4076C68.9902 32.7164 67.9226 32.3366 67.1679 31.5969C66.4132 30.8573 66.0451 29.7179 66.0267 28.1987V22.9414H64.5357C64.37 22.9414 64.2227 22.8814 64.1123 22.7415C64.0019 22.6215 63.9282 22.4616 63.9282 22.2817V20.6625C63.9282 20.4826 63.9834 20.3227 64.1123 20.2028C64.2227 20.0828 64.37 20.0029 64.5357 20.0029H66.0267V16.0249C66.0267 15.6651 66.3028 15.3652 66.6341 15.3652H68.346C68.6773 15.3652 68.9534 15.6651 68.9534 16.0249V20.0029H71.8618C72.1931 20.0229 72.4324 20.3027 72.4508 20.6625V22.2817C72.4508 22.6415 72.1747 22.9414 71.8433 22.9414H68.935L68.9718 28.1187Z" fill="#424A52"/>
<path d="M83.7521 26.3401L81.2671 19.3836L78.8005 26.3401H83.7521ZM82.5004 15.6056C82.7029 15.5856 82.8869 15.6655 83.0342 15.8055C83.1814 15.9854 83.2919 16.2053 83.3655 16.4252L88.8693 31.8773C88.8877 31.9372 88.8877 31.9972 88.8877 32.0372C88.8877 32.397 88.6116 32.6968 88.2803 32.6968H86.6604C86.4395 32.7168 86.2002 32.6569 86.0346 32.4969C85.9241 32.377 85.8505 32.2371 85.7953 32.0971L84.8197 29.3785H77.7145L76.7389 32.0971C76.6837 32.2571 76.5916 32.377 76.4996 32.4969C76.3155 32.6569 76.0947 32.7368 75.8738 32.6968H74.2539C73.9226 32.6968 73.6465 32.397 73.6465 32.0372C73.6465 31.9772 73.6465 31.9172 73.6649 31.8773L79.1687 16.4252C79.2423 16.2053 79.3527 15.9854 79.5 15.8055C79.6473 15.6655 79.8497 15.5856 80.0338 15.6056H82.5004Z" fill="#424A52"/>
<path d="M98.5329 27.0385C98.5697 26.5788 98.5697 26.119 98.5329 25.6792C98.4408 24.6198 98.1463 23.8602 97.6309 23.4004C97.1155 22.9206 96.4528 22.6808 95.7718 22.7007C95.0907 22.6808 94.4281 22.9206 93.9126 23.4004C93.3788 23.9201 93.0843 24.6597 93.0475 25.4194C93.0107 25.7192 92.9923 26.039 93.0107 26.3389C93.0107 26.6587 93.0291 26.9586 93.0475 27.2584C93.0843 28.018 93.3972 28.7377 93.9126 29.2574C94.4281 29.7571 95.0907 30.017 95.7718 29.997C96.4528 30.017 97.1155 29.7571 97.6309 29.2974C98.1463 28.8376 98.4408 28.078 98.5329 27.0385ZM96.4528 32.9555C96.0295 32.9555 95.6061 32.9155 95.2012 32.8156C94.8698 32.7356 94.5385 32.6157 94.2256 32.4558C93.9863 32.3158 93.747 32.1559 93.5261 31.956C93.3604 31.8161 93.1948 31.6562 93.0475 31.4763V36.6736C93.0475 37.0334 92.7714 37.3333 92.4401 37.3333H90.7466C90.4153 37.3333 90.1392 37.0334 90.1392 36.6736V20.6618C90.1392 20.302 90.4153 20.0021 90.7466 20.0021H92.4585C92.7898 20.0021 93.0659 20.302 93.0659 20.6618V21.2215C93.2132 21.0416 93.3604 20.8817 93.5445 20.7417C93.7654 20.5618 94.0047 20.4019 94.2624 20.262C94.5753 20.1021 94.9066 19.9821 95.238 19.9022C95.6429 19.8022 96.0663 19.7622 96.4897 19.7622C97.1891 19.7423 97.8886 19.9222 98.5329 20.242C99.1219 20.5418 99.6557 20.9816 100.079 21.5213C100.521 22.0611 100.852 22.6808 101.091 23.3604C101.331 24.0601 101.478 24.7797 101.515 25.5193C101.533 25.7592 101.533 26.039 101.533 26.3789C101.533 26.7187 101.533 26.9985 101.515 27.2384C101.478 27.978 101.349 28.7177 101.091 29.3973C100.852 30.077 100.521 30.6967 100.079 31.2364C99.6557 31.7761 99.1219 32.1959 98.5329 32.5157C97.8518 32.8156 97.1523 32.9755 96.4528 32.9555Z" fill="#424A52"/>
<path d="M111.253 27.0385C111.29 26.5788 111.29 26.119 111.253 25.6792C111.161 24.6198 110.866 23.8602 110.351 23.4004C109.835 22.9206 109.173 22.6808 108.492 22.7007C107.811 22.6808 107.148 22.9206 106.633 23.4004C106.099 23.9201 105.804 24.6597 105.767 25.4194C105.731 25.7192 105.712 26.039 105.731 26.3389C105.731 26.6587 105.749 26.9586 105.767 27.2584C105.804 28.018 106.117 28.7377 106.633 29.2574C107.148 29.7571 107.811 30.017 108.492 29.997C109.173 30.017 109.835 29.7571 110.351 29.2974C110.866 28.8376 111.161 28.078 111.253 27.0385ZM109.154 32.9355C108.731 32.9355 108.308 32.8955 107.903 32.7956C107.571 32.7156 107.24 32.5957 106.927 32.4358C106.669 32.2958 106.43 32.1359 106.228 31.956C106.062 31.8161 105.896 31.6562 105.749 31.4763V36.6736C105.749 36.8535 105.675 37.0134 105.565 37.1334C105.455 37.2533 105.307 37.3333 105.142 37.3333H103.43C103.098 37.3333 102.822 37.0334 102.822 36.6736V20.6618C102.822 20.302 103.098 20.0021 103.43 20.0021H105.142C105.473 20.0021 105.749 20.302 105.749 20.6618V21.2215C105.896 21.0416 106.062 20.8817 106.228 20.7417C106.448 20.5618 106.688 20.4019 106.927 20.262C107.24 20.1021 107.571 19.9821 107.903 19.9022C108.308 19.8022 108.731 19.7622 109.154 19.7622C109.854 19.7423 110.553 19.9222 111.198 20.242C111.787 20.5418 112.32 20.9816 112.744 21.5213C113.186 22.0611 113.517 22.6808 113.756 23.3604C113.995 24.0601 114.143 24.7797 114.18 25.5193C114.198 25.7592 114.198 26.039 114.198 26.3789C114.198 26.7187 114.198 26.9985 114.18 27.2384C114.143 27.978 114.014 28.7177 113.756 29.3973C113.517 30.077 113.186 30.6967 112.744 31.2364C112.302 31.7761 111.787 32.1959 111.198 32.5157C110.553 32.8356 109.854 32.9955 109.154 32.9955" fill="#424A52"/>
</svg>
