<svg width="84" height="45" viewBox="0 0 84 45" fill="none" xmlns="http://www.w3.org/2000/svg">
<path d="M20.8108 18.3407H11.054V21.2273H17.9736C17.6318 25.2751 14.2541 27.0014 11.0657 27.0014C6.98657 27.0014 3.42703 23.8014 3.42703 19.3163C3.42703 14.9471 6.82018 11.5823 11.0747 11.5823C14.3571 11.5823 16.2913 13.6685 16.2913 13.6685L18.3185 11.5755C18.3185 11.5755 15.7165 8.6875 10.9711 8.6875C4.92825 8.68742 0.253418 13.7723 0.253418 19.2648C0.253418 24.6467 4.65087 29.8946 11.1251 29.8946C16.8192 29.8946 20.9873 26.0055 20.9873 20.2545C20.9873 19.0412 20.8106 18.34 20.8106 18.34L20.8108 18.3407Z" fill="#4885ED"/>
<path d="M28.8028 16.251C24.7993 16.251 21.9302 19.3716 21.9302 23.0111C21.9302 26.7044 24.7131 29.883 28.8498 29.883C32.5947 29.883 35.6626 27.0293 35.6626 23.0904C35.6626 18.576 32.0939 16.251 28.8028 16.251ZM28.8426 18.9283C30.8113 18.9283 32.677 20.5153 32.677 23.0724C32.677 25.5753 30.8193 27.2075 28.8335 27.2075C26.6517 27.2075 24.9304 25.4652 24.9304 23.0525C24.9304 20.6916 26.6303 18.9283 28.8426 18.9283Z" fill="#DB3236"/>
<path d="M43.7495 16.251C39.7461 16.251 36.877 19.3716 36.877 23.0111C36.877 26.7044 39.6599 29.883 43.7966 29.883C47.5414 29.883 50.6094 27.0293 50.6094 23.0904C50.6094 18.576 47.0407 16.251 43.7495 16.251ZM43.7894 18.9283C45.7581 18.9283 47.6238 20.5153 47.6238 23.0724C47.6238 25.5753 45.7661 27.2075 43.7803 27.2075C41.5985 27.2075 39.8772 25.4652 39.8772 23.0525C39.8772 20.6916 41.5771 18.9283 43.7894 18.9283Z" fill="#F4C20D"/>
<path d="M58.4103 16.2578C54.7356 16.2578 51.8472 19.4667 51.8472 23.0684C51.8472 27.171 55.1959 29.8917 58.347 29.8917C60.2954 29.8917 61.3314 29.1205 62.0963 28.2354V29.5795C62.0963 31.9311 60.6643 33.3393 58.5026 33.3393C56.4144 33.3393 55.367 31.7912 55.003 30.9128L52.3756 32.0079C53.3077 33.9729 55.1841 36.022 58.5244 36.022C62.178 36.022 64.9627 33.7276 64.9627 28.9155V16.6676H62.0964V17.8222C61.2151 16.8753 60.0098 16.258 58.4103 16.258V16.2578ZM58.6763 18.9297C60.4779 18.9297 62.3279 20.4635 62.3279 23.0828C62.3279 25.7452 60.4819 27.2125 58.6365 27.2125C56.6774 27.2125 54.8545 25.6265 54.8545 23.1081C54.8545 20.4913 56.7477 18.9297 58.6762 18.9297H58.6763Z" fill="#4885ED"/>
<path d="M77.7068 16.2412C74.2405 16.2412 71.3301 18.9909 71.3301 23.0482C71.3301 27.3414 74.5742 29.8877 78.0398 29.8877C80.9323 29.8877 82.7075 28.31 83.767 26.8964L81.4037 25.3286C80.7905 26.2775 79.7652 27.2049 78.0543 27.2049C76.1324 27.2049 75.2487 26.1556 74.7012 25.1392L83.8679 21.3469L83.392 20.2355C82.5065 18.0592 80.4408 16.2416 77.7072 16.2416L77.7068 16.2412ZM77.8263 18.8626C79.0753 18.8626 79.9742 19.5247 80.356 20.3186L74.2343 22.8696C73.9704 20.8946 75.8471 18.8626 77.8263 18.8626Z" fill="#DB3236"/>
<path d="M66.9604 29.4831H69.9715V9.39258H66.9604V29.4831Z" fill="#3CBA54"/>
</svg>
