<svg width="196" height="46" viewBox="0 0 196 46" fill="none" xmlns="http://www.w3.org/2000/svg">
<path d="M170.478 12.7738C170.478 11.8059 171.26 11.0498 172.192 11.0498H184.938C185.9 11.0498 186.651 11.8362 186.651 12.7738V19.065C186.651 20.0329 185.87 20.789 184.938 20.789H183.615C182.653 20.789 181.21 21.1822 180.368 21.6359L175.739 24.237C174.897 24.6907 174.567 24.358 174.957 23.5111L175.499 22.3315C175.889 21.4544 175.438 20.7588 174.476 20.7588H172.162C171.2 20.7588 170.448 19.9724 170.448 19.0347V12.7738" fill="url(#paint0_linear_2_5942)"/>
<path d="M170.479 29.1663C170.57 29.1663 170.66 29.1361 170.72 29.1058C170.78 29.0756 170.81 29.0151 170.81 28.8941C170.81 28.8336 170.81 28.7731 170.78 28.7429C170.75 28.7126 170.72 28.6824 170.69 28.6521C170.66 28.6219 170.6 28.6219 170.57 28.6219C170.51 28.6219 170.479 28.6219 170.419 28.6219H170.119V29.1361L170.479 29.1663ZM170.479 28.2589C170.75 28.2589 170.96 28.3194 171.081 28.4404C171.201 28.5614 171.291 28.7126 171.291 28.9244C171.291 29.1058 171.231 29.2571 171.141 29.3478C171.051 29.4385 170.93 29.499 170.78 29.5293L171.291 30.4064H170.78L170.269 29.5595H170.089V30.4064H169.638V28.2892L170.479 28.2589ZM169.157 29.862C169.217 30.0435 169.307 30.1947 169.427 30.3157C169.548 30.4366 169.698 30.5576 169.848 30.6181C170.029 30.6786 170.209 30.7391 170.389 30.7391C170.6 30.7391 170.78 30.7089 170.93 30.6181C171.111 30.5576 171.231 30.4366 171.351 30.3157C171.471 30.1947 171.562 30.0435 171.622 29.862C171.682 29.6805 171.712 29.499 171.712 29.3176C171.712 29.1361 171.682 28.9546 171.622 28.7731C171.562 28.5917 171.471 28.4404 171.351 28.3194C171.231 28.1985 171.081 28.0775 170.93 28.017C170.75 27.9565 170.57 27.896 170.389 27.896C170.179 27.896 169.998 27.9262 169.848 28.017C169.668 28.0775 169.548 28.1985 169.427 28.3194C169.307 28.4404 169.217 28.5917 169.157 28.7731C169.097 28.9546 169.067 29.1361 169.067 29.3176C169.067 29.5293 169.097 29.7107 169.157 29.862ZM168.616 28.5614C168.706 28.3194 168.856 28.1077 169.036 27.9262C169.217 27.7448 169.427 27.5935 169.668 27.5028C169.908 27.4121 170.149 27.3516 170.419 27.3516C170.69 27.3516 170.93 27.4121 171.171 27.5028C171.411 27.5935 171.622 27.7448 171.802 27.9262C171.983 28.1077 172.133 28.3194 172.223 28.5614C172.313 28.8034 172.373 29.0453 172.373 29.3176C172.373 29.5898 172.313 29.8317 172.223 30.0737C172.133 30.3157 171.983 30.5274 171.802 30.7089C171.622 30.8903 171.411 31.0113 171.171 31.1323C170.93 31.223 170.69 31.2835 170.419 31.2835C170.149 31.2835 169.908 31.223 169.668 31.1323C169.427 31.0416 169.217 30.8903 169.036 30.7089C168.856 30.5274 168.706 30.3157 168.616 30.0737C168.525 29.8317 168.465 29.5898 168.465 29.3176C168.465 29.0453 168.525 28.8034 168.616 28.5614Z" fill="#2D2E2C"/>
<path d="M164.016 23.4194H161.19C160.98 23.4194 160.919 23.2984 160.919 23.1472L160.949 22.7842C161.01 22.0281 161.701 21.4836 162.633 21.4836C163.535 21.4836 164.256 22.0281 164.316 22.754L164.346 23.1169C164.346 23.2984 164.286 23.4194 164.016 23.4194ZM162.543 18.5195C159.506 18.5195 157.312 20.7275 157.312 23.2379V26.5952C157.312 29.4081 159.386 31.3438 162.543 31.3438C164.256 31.3438 165.489 30.7389 166.36 29.892C166.781 29.4686 167.112 28.9846 167.383 28.5007C167.533 28.2285 167.473 27.9563 167.292 27.8655L164.737 26.565C164.587 26.4742 164.437 26.5347 164.346 26.7767C163.986 27.6841 163.384 28.1075 162.513 28.1075C161.551 28.1075 160.889 27.4723 160.889 26.6255V26.0508C160.889 25.8693 160.98 25.7786 161.19 25.7786H167.443C167.593 25.7786 167.713 25.6878 167.713 25.5064V23.2379C167.683 20.7577 165.549 18.5195 162.543 18.5195Z" fill="#2D2E2C"/>
<path d="M151.359 21.6964C152.171 21.6964 152.742 22.2106 153.193 23.2692C153.283 23.4507 153.403 23.5111 153.584 23.4204L156.109 22.2711C156.259 22.1803 156.319 22.0291 156.229 21.8174C155.988 21.2729 155.748 20.789 155.417 20.3656C154.576 19.2162 153.313 18.5811 151.329 18.5811C148.112 18.5811 146.188 20.5168 146.188 23.3297V26.5055C146.188 29.3184 148.112 31.2239 151.329 31.2239C153.133 31.2239 154.335 30.6794 155.177 29.7116C155.628 29.2276 155.958 28.6227 156.229 27.9573C156.319 27.7456 156.259 27.6246 156.109 27.5339L153.584 26.3543C153.403 26.2635 153.283 26.324 153.193 26.5055C152.742 27.5339 152.171 28.0783 151.359 28.0783C150.397 28.0783 149.796 27.4129 149.796 26.566V23.1784C149.796 22.392 150.427 21.6964 151.359 21.6964Z" fill="#2D2E2C"/>
<path d="M143.934 18.8838H140.868C140.687 18.8838 140.597 18.9745 140.597 19.156V30.71C140.597 30.8914 140.687 30.9822 140.868 30.9822H143.934C144.084 30.9822 144.174 30.8914 144.174 30.71V19.156C144.144 18.9443 144.054 18.8838 143.934 18.8838Z" fill="#2D2E2C"/>
<path d="M142.371 13.7715C141.379 13.7715 140.567 14.5881 140.567 15.5862C140.567 16.5844 141.379 17.401 142.371 17.401C143.363 17.401 144.175 16.5844 144.175 15.5862C144.205 14.5881 143.363 13.7715 142.371 13.7715Z" fill="#2D2E2C"/>
<path d="M138.973 18.8838H135.697C135.576 18.8838 135.456 18.9745 135.426 19.0955L133.502 24.691C133.412 24.9632 133.232 25.6589 133.202 25.9916H133.111C133.051 25.6589 132.931 25.0237 132.811 24.691L130.797 19.0653C130.737 18.9443 130.676 18.8838 130.526 18.8838H127.249C127.009 18.8838 126.949 19.035 127.009 19.2467L131.638 30.7704C131.699 30.8914 131.789 30.9519 131.909 30.9519H134.314C134.434 30.9519 134.554 30.8914 134.584 30.7704L139.244 19.2467C139.304 19.035 139.214 18.8838 138.973 18.8838Z" fill="#2D2E2C"/>
<path d="M122.05 26.4746C122.05 27.3214 121.359 27.9869 120.457 27.9869C119.525 27.9869 118.894 27.3517 118.894 26.4746V23.3592C118.894 22.5123 119.525 21.9074 120.457 21.9074C121.389 21.9074 122.05 22.5426 122.05 23.3592V26.4746ZM125.357 14.5879H122.321C122.2 14.5879 122.05 14.6786 122.05 14.8601V18.4594C122.05 18.8526 122.14 19.6087 122.14 19.6087C121.629 19.155 120.758 18.8828 120.156 18.8828C117.331 18.8828 115.316 20.7883 115.316 23.6012V26.2326C115.316 29.2572 117.06 30.951 120.216 30.951C120.938 30.951 121.78 30.709 122.321 30.2553C122.471 30.1343 122.651 30.1646 122.651 30.3763V30.7695C122.651 30.8602 122.742 30.951 122.862 30.951H125.357C125.507 30.951 125.627 30.8602 125.627 30.6787V14.8299C125.627 14.6786 125.507 14.5879 125.357 14.5879Z" fill="#2D2E2C"/>
<path d="M108.582 25.3857H107.019C106.748 25.3857 106.658 25.2345 106.718 25.0832L107.259 22.966C107.53 21.9982 107.71 20.8488 107.77 20.1834H107.861C107.921 20.8488 108.071 21.9982 108.312 22.966L108.853 25.0832C108.913 25.2042 108.793 25.3857 108.582 25.3857ZM109.183 14.7694C109.123 14.6484 109.063 14.5879 108.913 14.5879H106.598C106.448 14.5879 106.388 14.6484 106.328 14.7694L101.307 30.6183C101.217 30.83 101.337 30.951 101.578 30.951H104.824C104.945 30.951 105.005 30.8905 105.065 30.7695L105.816 28.4103C105.877 28.2893 105.907 28.2591 106.087 28.2591H109.484C109.664 28.2591 109.724 28.2893 109.755 28.4103L110.476 30.7695C110.536 30.8905 110.566 30.951 110.747 30.951H114.023C114.294 30.951 114.354 30.83 114.294 30.6183L109.183 14.7694Z" fill="#2D2E2C"/>
<path d="M92.0179 23.4194H89.1922C88.9817 23.4194 88.9216 23.2984 88.9216 23.1472L88.9517 22.7842C89.0118 22.0281 89.7032 21.4836 90.6351 21.4836C91.5369 21.4836 92.2584 22.0281 92.3185 22.754L92.3486 23.1169C92.3185 23.2984 92.2885 23.4194 92.0179 23.4194ZM90.5149 18.5195C87.4787 18.5195 85.2842 20.7275 85.2842 23.2379V26.5952C85.2842 29.4081 87.3584 31.3438 90.5149 31.3438C92.2283 31.3438 93.4609 30.7389 94.3326 29.892C94.7535 29.4686 95.0842 28.9846 95.3547 28.5007C95.505 28.2285 95.4449 27.9563 95.2645 27.8655L92.7093 26.565C92.559 26.4742 92.4087 26.5347 92.3185 26.7767C91.9578 27.6841 91.3566 28.1075 90.4848 28.1075C89.5228 28.1075 88.8615 27.4723 88.8615 26.6255V26.0508C88.8615 25.8693 88.9517 25.7786 89.1621 25.7786H95.3848C95.5351 25.7786 95.6553 25.6878 95.6553 25.5064V23.2379C95.6854 20.7577 93.551 18.5195 90.5149 18.5195Z" fill="#2D2E2C"/>
<path d="M83.7514 18.9443C83.571 18.914 83.3606 18.8838 83.09 18.8838C82.098 18.8838 81.1661 19.3375 80.7753 19.8819C80.655 20.0029 80.4446 19.9726 80.4446 19.7609V19.156C80.4446 18.9745 80.3544 18.8838 80.1741 18.8838H77.709C77.5587 18.8838 77.4385 18.9745 77.4385 19.156V30.71C77.4385 30.8914 77.5287 30.9822 77.709 30.9822H80.7452C80.8955 30.9822 81.0158 30.8914 81.0158 30.71V23.8139C81.0158 22.9065 81.6471 22.2411 82.579 22.2411C82.9698 22.2411 83.3004 22.3016 83.6011 22.3621C83.8415 22.4226 83.9918 22.3318 83.9918 22.0899V19.156C83.9918 19.0653 83.9017 18.9443 83.7514 18.9443Z" fill="#2D2E2C"/>
<path d="M70.0732 28.169H69.1112C68.5701 28.169 68.2695 27.8363 68.2695 27.1104C68.2695 26.5962 68.6302 26.2333 69.1413 26.2333H71.3357C71.4861 26.2333 71.5462 26.5055 71.5462 26.5962C71.4861 27.5339 70.7646 28.169 70.0732 28.169ZM69.983 18.5811C68.3897 18.5811 67.1873 19.0952 66.3155 19.9119C65.8345 20.3656 65.4437 20.8797 65.1131 21.4544C64.9627 21.7266 65.0229 21.9989 65.2032 22.0896L67.7584 23.3902C67.9088 23.4809 68.0591 23.4204 68.1492 23.1784C68.51 22.2711 69.1112 21.8476 69.983 21.8476C70.945 21.8476 71.5462 22.513 71.5462 23.3297V23.4507C71.5462 23.6321 71.456 23.7229 71.2756 23.7229H68.991C66.7063 23.7229 64.8726 24.963 64.8726 27.1407V27.4129C64.8726 29.6208 66.5259 30.9517 68.7505 30.9517H69.6523C70.3437 30.9517 71.1253 30.7097 71.6664 30.2862C71.7566 30.1955 71.9069 30.2257 71.937 30.3165L72.0272 30.7702C72.0572 30.8912 72.1474 30.9819 72.2977 30.9819H74.8229C74.9732 30.9819 75.0934 30.8912 75.0934 30.7097V23.3599C75.0934 20.547 73.1394 18.5811 69.983 18.5811Z" fill="#2D2E2C"/>
<path d="M63.8499 18.8838H60.7235C60.5732 18.8838 60.453 18.9745 60.453 19.0955L59.2806 23.9651C59.1603 24.5095 59.0401 25.2959 59.01 25.8404H58.9198C58.8898 25.2959 58.7996 24.6003 58.6493 23.9651L57.4769 19.0955C57.4468 18.9745 57.3566 18.8838 57.2063 18.8838H54.6511C54.5008 18.8838 54.4106 18.9745 54.3806 19.0955L53.2382 23.9651C53.118 24.5095 52.9978 25.2052 52.9677 25.7194H52.9076C52.8775 25.2052 52.7873 24.5095 52.637 23.9651L51.4346 19.0955C51.4045 18.9745 51.3444 18.8838 51.164 18.8838H47.9775C47.737 18.8838 47.6769 19.0048 47.737 19.2165L51.3744 30.7704C51.4346 30.8914 51.4947 30.9519 51.645 30.9519H53.9297C54.08 30.9519 54.1701 30.8914 54.2002 30.7704L55.6131 25.3867C55.7634 24.7818 55.8836 23.7836 55.8836 23.7836H55.9738C55.9738 23.7836 56.0941 24.812 56.2444 25.3867L57.6272 30.7402C57.6573 30.8612 57.7174 30.9519 57.8978 30.9519H60.1524C60.2726 30.9519 60.3628 30.8914 60.4229 30.7704L64.1205 19.2165C64.1806 19.035 64.0904 18.8838 63.8499 18.8838Z" fill="#2D2E2C"/>
<path d="M46.4452 18.8838H44.7016C44.4611 18.8838 44.401 18.7931 44.401 18.6116V16.9783C44.401 16.7968 44.3409 16.7363 44.1605 16.7363H42.5372C42.447 16.7363 42.2967 16.7968 42.2366 16.8573L39.02 20.0936V21.8479C39.02 22.0294 39.1102 22.0899 39.2906 22.0899H40.5832C40.8237 22.0899 40.8838 22.1806 40.8838 22.3621V26.415C40.8838 29.5304 42.8078 31.1334 45.2728 31.1334H46.355C46.5955 31.1334 46.6857 31.0427 46.6857 30.8612V28.1995C46.6857 28.0483 46.5955 27.9273 46.4151 27.9273H45.9943C44.9421 27.9273 44.4311 27.2922 44.4311 26.1731V22.3923C44.4311 22.2109 44.5212 22.1201 44.7317 22.1201H46.4752C46.6556 22.1201 46.7157 22.0596 46.7157 21.8781V19.1258C46.6857 18.9443 46.6255 18.8838 46.4452 18.8838Z" fill="#2D2E2C"/>
<path d="M38.7197 14.4676C38.2688 14.3769 37.5473 14.2861 36.886 14.2861C33.0682 14.2861 31.6252 16.9478 31.6252 19.065V19.7002C31.6252 19.8816 31.5351 19.9724 31.3547 19.9724H30.7535C30.6032 19.9724 30.4829 20.0631 30.4829 20.2446V22.9667C30.4829 23.1482 30.5731 23.2389 30.7535 23.2389H31.3547C31.5952 23.2389 31.6252 23.3297 31.6252 23.5112V30.7399C31.6252 30.9214 31.7154 31.0122 31.8958 31.0122H34.932C35.1124 31.0122 35.2025 30.9214 35.2025 30.7399V23.5112C35.2025 23.3297 35.2927 23.2389 35.4731 23.2389H37.1565C37.3369 23.2389 37.4271 23.1482 37.4271 22.9667V20.2446C37.4271 20.0631 37.3369 19.9724 37.1565 19.9724H35.4731C35.2627 19.9724 35.2025 19.8816 35.2025 19.7002V19.0045C35.2025 18.0971 35.8338 17.5225 36.8259 17.5225C37.1565 17.5225 37.5173 17.5829 37.8179 17.6434C37.9982 17.7039 38.0884 17.6434 38.1486 17.4922L38.9602 14.8306C38.9903 14.6491 38.9301 14.4979 38.7197 14.4676Z" fill="#2D2E2C"/>
<path d="M25.372 26.6265C25.372 27.4734 24.7106 28.1388 23.8088 28.1388C22.8468 28.1388 22.1855 27.4734 22.1855 26.6265V23.2389C22.1855 22.4223 22.8468 21.7266 23.8088 21.7266C24.7106 21.7266 25.372 22.392 25.372 23.2389V26.6265ZM23.8088 18.5811C20.6524 18.5811 18.5781 20.5168 18.5781 23.3297V26.5055C18.5781 29.3184 20.6524 31.2239 23.8088 31.2239C26.9051 31.2239 28.9794 29.3184 28.9794 26.5055V23.3297C28.9794 20.5168 26.9051 18.5811 23.8088 18.5811Z" fill="#2D2E2C"/>
<path d="M13.0465 21.1831C11.6336 20.6387 10.1005 20.2455 10.1005 19.0659C10.1005 18.1283 10.7919 17.4931 11.6937 17.4931H12.0845C12.9563 17.4931 13.5575 17.9166 13.9183 18.8239C14.0085 19.0659 14.1588 19.0962 14.3091 19.0357L16.8643 17.7351C17.0146 17.6444 17.1048 17.3721 16.9545 17.0999C16.744 16.7067 16.5035 16.3135 16.1729 15.9808C15.271 14.9827 13.9784 14.2266 12.0845 14.2266H11.6937C8.47716 14.2266 6.46305 16.1623 6.46305 19.0962C6.46305 22.0905 8.38698 23.2096 10.7618 24.1775C12.325 24.8126 13.6477 25.1454 13.6477 26.4459C13.6477 27.5045 12.8361 27.9885 11.9042 27.9885H11.2729C10.4011 27.9885 9.79986 27.565 9.43912 26.6577C9.34894 26.4157 9.19863 26.3854 9.04833 26.4459L6.49311 27.7465C6.34281 27.8372 6.25262 28.1095 6.40293 28.3817C6.64342 28.8051 6.91397 29.1983 7.24465 29.5915C8.11643 30.5896 9.40906 31.255 11.2428 31.255H12.0545C15.3311 31.255 17.2551 29.3495 17.2551 26.4157C17.2551 23.3608 15.4815 22.151 13.0465 21.1831Z" fill="#2D2E2C"/>
<defs>
<linearGradient id="paint0_linear_2_5942" x1="178.574" y1="13.4797" x2="178.574" y2="25.711" gradientUnits="userSpaceOnUse">
<stop stop-color="#F2C069"/>
<stop offset="1" stop-color="#EB8F3B"/>
</linearGradient>
</defs>
</svg>
