<svg width="122" height="22" fill="none" xmlns="http://www.w3.org/2000/svg"><path d="M6.524 5.464a.5.5 0 01.952 0l.983 3.027a.5.5 0 00.476.346h3.184a.5.5 0 01.293.904l-2.575 1.872a.5.5 0 00-.182.559l.984 3.028a.5.5 0 01-.77.559l-2.575-1.872a.5.5 0 00-.588 0L4.13 15.76a.5.5 0 01-.769-.56l.984-3.027a.5.5 0 00-.182-.56l-2.575-1.87a.5.5 0 01.293-.905h3.184a.5.5 0 00.476-.346l.983-3.027zm15 0a.5.5 0 01.951 0l.984 3.027a.5.5 0 00.476.346h3.184a.5.5 0 01.293.904l-2.575 1.872a.5.5 0 00-.182.559l.984 3.028a.5.5 0 01-.77.559l-2.575-1.872a.5.5 0 00-.588 0l-2.575 1.872a.5.5 0 01-.77-.56l.984-3.027a.5.5 0 00-.182-.56l-2.575-1.87a.5.5 0 01.293-.905h3.184a.5.5 0 00.476-.346l.983-3.027zm15.001 0a.5.5 0 01.95 0l.984 3.027a.5.5 0 00.476.346h3.184a.5.5 0 01.293.904l-2.575 1.872a.5.5 0 00-.182.559l.984 3.028a.5.5 0 01-.77.559l-2.575-1.872a.5.5 0 00-.588 0L34.13 15.76a.5.5 0 01-.769-.56l.984-3.027a.5.5 0 00-.182-.56l-2.575-1.87a.5.5 0 01.293-.905h3.184a.5.5 0 00.476-.346l.984-3.027zm15 0a.5.5 0 01.95 0l.984 3.027a.5.5 0 00.476.346h3.184a.5.5 0 01.293.904l-2.575 1.872a.5.5 0 00-.182.559l.984 3.028a.5.5 0 01-.77.559l-2.575-1.872a.5.5 0 00-.588 0L49.13 15.76a.5.5 0 01-.769-.56l.984-3.027a.5.5 0 00-.182-.56l-2.575-1.87a.5.5 0 01.293-.905h3.184a.5.5 0 00.476-.346l.984-3.027zm15 0a.5.5 0 01.95 0l.984 3.027a.5.5 0 00.476.346h3.184a.5.5 0 01.293.904l-2.575 1.872a.5.5 0 00-.182.559l.984 3.028a.5.5 0 01-.77.559l-2.575-1.872a.5.5 0 00-.588 0L64.13 15.76a.5.5 0 01-.769-.56l.984-3.027a.5.5 0 00-.182-.56l-2.575-1.87a.5.5 0 01.293-.905h3.184a.5.5 0 00.476-.346l.984-3.027zm23.145 9h-1.162V17h-1.149v-2.536h-4.62v-1.046l4.49-6.645h1.279v6.7h1.258l-.096.99zm-2.31-6.139l-3.419 5.148h3.418V8.325zm4.85 8.757c-.283 0-.506-.089-.67-.267a.936.936 0 01-.24-.635.92.92 0 01.24-.636c.159-.178.382-.267.67-.267.286 0 .51.09.67.267.159.178.239.39.239.636a.92.92 0 01-.24.635c-.16.178-.383.267-.67.267zm5.533-4.17a3.446 3.446 0 01-1.6-.376 3.04 3.04 0 01-1.613-2.734c0-.93.319-1.7.957-2.31.638-.611 1.472-.917 2.502-.917a3.87 3.87 0 011.45.26c.437.169.794.403 1.072.704.283.296.499.645.65 1.046.155.396.232.827.232 1.292 0 .652-.111 1.242-.335 1.77-.223.53-.608 1.165-1.155 1.908-.196.26-.524.676-.984 1.25-.456.575-.864 1.083-1.224 1.525l-.54.67h-1.504l3.63-4.498c-.515.273-1.028.41-1.538.41zm2.358-3.165c0-.624-.177-1.135-.533-1.531-.35-.401-.864-.602-1.538-.602-.679 0-1.217.21-1.613.63-.397.414-.595.927-.595 1.537 0 .638.191 1.149.574 1.531.383.383.914.575 1.593.575.72 0 1.251-.199 1.593-.595.346-.396.519-.912.519-1.545zm3.278 8.743h-.984l4.621-11.511h.998l-4.635 11.511zm12.185-11.717l-.096 1.122h-4.177a570.93 570.93 0 00-.102 3.22 3.057 3.057 0 011.675-.493c.506 0 .957.082 1.353.246.401.16.727.38.978.663.255.283.449.613.581.992.132.373.198.779.198 1.216 0 1.035-.333 1.864-.998 2.488-.661.62-1.561.93-2.7.93-1.144 0-2.06-.312-2.748-.936l.444-.964c.675.529 1.456.793 2.345.793.747 0 1.337-.212 1.77-.636.433-.424.65-.977.65-1.661 0-.61-.183-1.105-.547-1.483-.365-.383-.884-.575-1.559-.575-.674 0-1.217.226-1.627.677l-.95-.13.267-5.469h5.243z" fill="#044D80"/></svg>