<svg width="74" height="14" fill="none" xmlns="http://www.w3.org/2000/svg"><path d="M6.524 1.464a.5.5 0 01.952 0l.983 3.027a.5.5 0 00.476.346h3.184a.5.5 0 01.293.904L9.837 7.613a.5.5 0 00-.182.559l.984 3.028a.5.5 0 01-.77.559L7.295 9.887a.5.5 0 00-.588 0L4.13 11.76a.5.5 0 01-.769-.56l.984-3.027a.5.5 0 00-.182-.56l-2.575-1.87a.5.5 0 01.293-.905h3.184a.5.5 0 00.476-.346l.983-3.027zm15 0a.5.5 0 01.951 0l.984 3.027a.5.5 0 00.476.346h3.184a.5.5 0 01.293.904l-2.575 1.872a.5.5 0 00-.182.559l.984 3.028a.5.5 0 01-.77.559l-2.575-1.872a.5.5 0 00-.588 0l-2.575 1.872a.5.5 0 01-.77-.56l.984-3.027a.5.5 0 00-.182-.56l-2.575-1.87a.5.5 0 01.293-.905h3.184a.5.5 0 00.476-.346l.983-3.027zm15.001 0a.5.5 0 01.95 0l.984 3.027a.5.5 0 00.476.346h3.184a.5.5 0 01.293.904l-2.575 1.872a.5.5 0 00-.182.559l.984 3.028a.5.5 0 01-.77.559l-2.575-1.872a.5.5 0 00-.588 0L34.13 11.76a.5.5 0 01-.769-.56l.984-3.027a.5.5 0 00-.182-.56l-2.575-1.87a.5.5 0 01.293-.905h3.184a.5.5 0 00.476-.346l.984-3.027zm15 0a.5.5 0 01.95 0l.984 3.027a.5.5 0 00.476.346h3.184a.5.5 0 01.293.904l-2.575 1.872a.5.5 0 00-.182.559l.984 3.028a.5.5 0 01-.77.559l-2.575-1.872a.5.5 0 00-.588 0L49.13 11.76a.5.5 0 01-.769-.56l.984-3.027a.5.5 0 00-.182-.56l-2.575-1.87a.5.5 0 01.293-.905h3.184a.5.5 0 00.476-.346l.984-3.027zm15 0a.5.5 0 01.95 0l.984 3.027a.5.5 0 00.476.346h3.184a.5.5 0 01.293.904l-2.575 1.872a.5.5 0 00-.182.559l.984 3.028a.5.5 0 01-.77.559l-2.575-1.872a.5.5 0 00-.588 0L64.13 11.76a.5.5 0 01-.769-.56l.984-3.027a.5.5 0 00-.182-.56l-2.575-1.87a.5.5 0 01.293-.905h3.184a.5.5 0 00.476-.346l.984-3.027z" fill="#4885ED"/></svg>