<svg width="26" height="26" viewBox="0 0 26 26" fill="none" xmlns="http://www.w3.org/2000/svg">
<path d="M25.6191 22.47H25.0098V11.3989C25.0098 10.2653 24.0875 9.34302 22.9539 9.34302H20.2363V7.82938L22.7586 4.33833C22.8345 4.4534 22.8866 4.58375 22.9091 4.72391C22.951 4.98401 22.8891 5.24487 22.7348 5.45841L21.1059 7.71304C20.8215 8.10675 21.4376 8.55479 21.7233 8.15916L23.3522 5.90452C23.6257 5.52605 23.7354 5.06374 23.6611 4.60274C23.6058 4.25906 23.453 3.94685 23.222 3.69686L23.9886 2.63593C24.2487 2.2759 24.353 1.83618 24.2824 1.39763C24.2117 0.959138 23.9745 0.574419 23.6145 0.314317C22.8714 -0.222491 21.8298 -0.0548114 21.2929 0.688321L17.9166 5.36147C17.7846 5.34197 17.6509 5.3313 17.5168 5.3313H8.33082C6.8313 5.3313 5.61133 6.55122 5.61133 8.05079V9.34302H3.04611C1.91252 9.34302 0.990234 10.2653 0.990234 11.3989V18.1663C0.990234 18.6576 1.75195 18.6576 1.75195 18.1663V11.3989C1.75195 10.6853 2.33254 10.1047 3.04611 10.1047H5.61133V11.0103H2.89453C2.68414 11.0103 2.51367 11.1807 2.51367 11.3911V22.47H1.75195V20.1975C1.75195 19.7062 0.990234 19.7062 0.990234 20.1975V22.47H0.380859C0.170473 22.47 0 22.6404 0 22.8508V23.7832C0 24.8232 0.846016 25.6692 1.88596 25.6692H20.8203C21.3116 25.6692 21.3116 24.9075 20.8203 24.9075H1.88596C1.26608 24.9075 0.761719 24.4031 0.761719 23.7832V23.2317H10.9688V23.237C10.9688 23.9201 11.5244 24.4758 12.2076 24.4758H13.7925C14.4755 24.4758 15.0313 23.9201 15.0313 23.237V23.2317H25.2383V23.7832C25.2383 24.4031 24.734 24.9075 24.1141 24.9075H22.9531C22.4618 24.9075 22.4618 25.6692 22.9531 25.6692H24.114C25.154 25.6692 26 24.8232 26 23.7832V22.8508C26 22.6404 25.8295 22.47 25.6191 22.47ZM15.5092 10.5803L16.4136 11.2337L15.4862 11.5648L15.5092 10.5803ZM17.1379 10.8173L15.6771 9.76186L20.7182 2.78452L22.179 3.83991L17.1379 10.8173ZM21.9104 1.13443C22.2013 0.731688 22.7658 0.640739 23.1685 0.931767C23.3635 1.07268 23.4921 1.28119 23.5304 1.51885C23.5686 1.75645 23.5121 1.99472 23.3712 2.18982L22.6251 3.22246L21.1643 2.16707L21.9104 1.13443ZM14.2695 23.237C14.2695 23.5001 14.0555 23.7141 13.7924 23.7141H12.2075C11.9445 23.7141 11.7304 23.5001 11.7304 23.237V23.2317H14.2695V23.237H14.2695ZM3.27539 22.47V11.772H5.61133V13.479C5.61133 14.8493 6.6301 15.9861 7.94996 16.1719V19.0676C7.94996 19.2216 8.04273 19.3605 8.18507 19.4194C8.2322 19.439 8.28166 19.4484 8.33071 19.4484C8.42984 19.4484 8.52724 19.4097 8.60016 19.3369L11.7386 16.1984H15.5391C16.0304 16.1984 16.0304 15.4367 15.5391 15.4367H11.5808C11.4798 15.4367 11.383 15.4768 11.3115 15.5482L8.71168 18.1481V15.8175C8.71168 15.6071 8.5412 15.4367 8.33082 15.4367C7.25131 15.4367 6.37305 14.5584 6.37305 13.4789V8.05074C6.37305 6.97123 7.25131 6.09297 8.33082 6.09297H17.3881L14.8367 9.62445C14.792 9.6863 14.7672 9.76258 14.7646 9.83865L14.7117 12.1008C14.7057 12.3607 14.9743 12.5563 15.2206 12.4684L17.3516 11.7077C17.4228 11.6828 17.4881 11.6332 17.5323 11.5721L19.4747 8.88365V13.479C19.4747 14.5585 18.5964 15.4368 17.5169 15.4368C17.0256 15.4368 17.0256 16.1985 17.5169 16.1985C19.0164 16.1985 20.2364 14.9786 20.2364 13.479V11.772H22.7247V22.47H3.27539ZM23.4863 22.47V11.3911C23.4863 11.1807 23.3159 11.0103 23.1055 11.0103H20.2363V10.1047H22.9539C23.6675 10.1047 24.248 10.6853 24.248 11.3989V22.47H23.4863Z" fill="#9B51E0"/>
<path d="M13.1523 11.7288H8.9375C8.72711 11.7288 8.55664 11.8992 8.55664 12.1096C8.55664 12.32 8.72711 12.4905 8.9375 12.4905H13.1523C13.3627 12.4905 13.5332 12.32 13.5332 12.1096C13.5332 11.8992 13.3627 11.7288 13.1523 11.7288Z" fill="#9B51E0"/>
<path d="M13.1523 9.03873H8.9375C8.72711 9.03873 8.55664 9.2092 8.55664 9.41959C8.55664 9.62997 8.72711 9.80045 8.9375 9.80045H13.1523C13.3627 9.80045 13.5332 9.62997 13.5332 9.41959C13.5332 9.2092 13.3627 9.03873 13.1523 9.03873Z" fill="#9B51E0"/>
</svg>
