<svg width="24" height="23" viewBox="0 0 24 23" fill="none" xmlns="http://www.w3.org/2000/svg">
<path d="M8.15707 5.89301H22.2706L14.5609 11.9472C14.3975 12.0754 14.2032 12.138 14.0269 12.1551C13.8493 12.1377 13.6544 12.0751 13.4892 11.9472L7.97955 7.61913C7.92118 7.5722 7.85529 7.53639 7.78278 7.51413C8.04213 7.14826 8.19016 6.70568 8.18234 6.22879C8.18084 6.11957 8.17121 6.00704 8.15707 5.89301ZM4.56792 1.99937C4.58567 2.00238 4.61485 2.01351 4.67834 2.043C4.8038 2.10257 5.00328 2.25602 5.19855 2.46994C5.5918 2.89839 5.98474 3.54738 6.18874 3.97583C6.19505 3.98846 6.20167 4.0023 6.20769 4.01644C6.78658 5.00964 7.0363 5.76935 7.04383 6.24594C7.05195 6.72463 6.92347 6.93073 6.51759 7.16391L5.47054 7.76747C4.78846 8.16011 4.46622 8.86386 4.38619 9.52037C4.30585 10.1772 4.4241 10.8153 4.71625 11.3199L7.30077 15.7744C7.59353 16.2787 8.09328 16.7005 8.70436 16.9595C9.31604 17.2192 10.0896 17.2926 10.7717 16.9009L11.8187 16.2985C12.2243 16.0659 12.4695 16.0611 12.8814 16.306C13.2945 16.5515 13.831 17.1446 14.4075 18.1384C14.4156 18.1531 14.4234 18.1654 14.4327 18.1796C14.7029 18.5692 15.0709 19.2302 15.2484 19.7839C15.3366 20.0589 15.3712 20.3074 15.36 20.4449C15.3477 20.583 15.3447 20.5688 15.3083 20.5905L14.5116 21.0472C12.5101 21.9153 10.6757 21.7194 9.03623 20.8691C7.39374 20.0152 5.96609 18.4732 4.97079 16.6629C4.96748 16.6593 4.96597 16.6547 4.96327 16.6523L2.78312 12.895C2.77951 12.8914 2.778 12.8881 2.77499 12.8833C1.69635 11.1201 1.06782 9.1184 1.14665 7.27674C1.22548 5.43778 1.97166 3.7613 3.72937 2.47145L4.52639 2.01622C4.54475 2.00569 4.55077 1.99757 4.56792 1.99937ZM4.57604 0.879811C4.36513 0.876501 4.15 0.92073 3.95654 1.03296L3.11378 1.51767C3.09483 1.5285 3.07738 1.53963 3.06023 1.55046C1.03262 3.03438 0.0990027 5.1002 0.0078372 7.2295C-0.0833283 9.3579 0.627341 11.5546 1.80136 13.4751L3.97429 17.2195L3.96917 17.2084C5.05383 19.1794 6.60816 20.8893 8.50759 21.8743C10.4079 22.8609 12.6717 23.0896 14.9776 22.0841C14.9966 22.0759 15.0158 22.0669 15.033 22.0564L15.8769 21.5717C16.2672 21.3496 16.4634 20.9176 16.4952 20.5403C16.528 20.1642 16.4513 19.798 16.3349 19.4372C16.1068 18.7239 15.7091 18.031 15.3805 17.5556C14.7598 16.4878 14.1604 15.7467 13.4678 15.3324C12.7698 14.9163 11.9319 14.9223 11.2483 15.3152L10.2012 15.9188C9.89192 16.0969 9.53027 16.0762 9.14966 15.9152C8.77085 15.7542 8.42003 15.4323 8.28975 15.2066L5.70523 10.7525C5.57465 10.5256 5.46784 10.0629 5.51838 9.65486C5.56713 9.24808 5.73231 8.92945 6.04191 8.75103L7.05917 8.16613C7.08565 8.30242 7.16267 8.42608 7.2743 8.50913L12.7842 12.8381C13.1426 13.1198 13.5671 13.2765 13.9947 13.3012C14.0163 13.3024 14.0386 13.3024 14.0606 13.3012C14.4884 13.2765 14.9108 13.1195 15.2695 12.8381L22.8582 6.87657V16.7255C22.8582 16.8753 22.6873 17.0727 22.3521 17.0727H17.0985C16.7823 17.0709 16.5262 17.326 16.5262 17.6404C16.5262 17.9542 16.7826 18.2094 17.0985 18.2076H22.3521C23.2108 18.2076 24 17.5869 24 16.7255V6.24022C24 5.37821 23.2108 4.7578 22.3521 4.7578H7.84446C7.68379 4.35613 7.47167 3.93039 7.20449 3.46765C6.95447 2.94713 6.54888 2.25903 6.04131 1.70572C5.78496 1.4253 5.50845 1.17678 5.16275 1.01611V1.01761C4.99095 0.936375 4.78665 0.884324 4.57604 0.879811Z" fill="#E88645"/>
</svg>
