<svg width="32" height="32" viewBox="0 0 32 32" fill="none" xmlns="http://www.w3.org/2000/svg">
<path d="M27.7 12.0999H26.8333V11.2332C26.8333 10.5152 26.2513 9.93323 25.5333 9.93323H17.7333C17.0513 9.93323 16.4091 10.2543 16 10.7999C15.5908 10.2543 14.9486 9.93323 14.2667 9.93323H6.46668C5.74874 9.93323 5.16668 10.5153 5.16668 11.2332V12.0999H4.3C3.58205 12.0999 3 12.682 3 13.3999V26.3999C3 27.1179 3.58205 27.6999 4.3 27.6999H13.4546C13.874 27.7005 14.2675 27.9029 14.5119 28.2437C14.8587 28.719 15.4116 29 16 29C16.5883 29 17.1412 28.719 17.488 28.2437C17.7325 27.903 18.126 27.7007 18.5453 27.6999H27.6999C28.4178 27.6999 28.9999 27.1179 28.9999 26.3999V13.3999C29 12.682 28.418 12.0999 27.7 12.0999ZM17.7334 10.7999H25.5334C25.7727 10.7999 25.9667 10.9939 25.9667 11.2332V24.2332C25.9667 24.4726 25.7726 24.6665 25.5334 24.6665H17.7334C17.2637 24.667 16.8071 24.8211 16.4334 25.1055V12.0999C16.4334 11.382 17.0154 10.7999 17.7334 10.7999ZM6.03337 11.2332C6.03337 10.9939 6.2274 10.7999 6.46668 10.7999H14.2667C14.9847 10.7999 15.5667 11.382 15.5667 12.0999V25.1055C15.1929 24.8212 14.7363 24.667 14.2667 24.6666H6.46668C6.22735 24.6666 6.03337 24.4726 6.03337 24.2333V11.2332ZM28.1334 26.3999C28.1334 26.6392 27.9394 26.8332 27.7001 26.8332H18.5454C17.8468 26.8341 17.1913 27.171 16.7839 27.7385C16.5998 27.9867 16.3091 28.1331 16 28.1331C15.6909 28.1331 15.4002 27.9867 15.2161 27.7385C14.8088 27.1709 14.1532 26.834 13.4546 26.8332H4.3C4.06067 26.8332 3.86668 26.6392 3.86668 26.3999V13.3999C3.86668 13.1606 4.06072 12.9666 4.3 12.9666H5.16668V24.2333C5.16668 24.9512 5.74874 25.5333 6.46668 25.5333H14.2667C14.9847 25.5333 15.5667 26.1153 15.5667 26.8333C15.5667 27.0726 15.7607 27.2666 16 27.2666C16.2393 27.2666 16.4333 27.0726 16.4333 26.8333C16.4333 26.1153 17.0154 25.5333 17.7333 25.5333H25.5333C26.2513 25.5333 26.8333 24.9512 26.8333 24.2333V12.9666H27.7C27.9393 12.9666 28.1333 13.1606 28.1333 13.3999V26.3999H28.1334Z" fill="#2D9CDB"/>
<path fill-rule="evenodd" clip-rule="evenodd" d="M7.76681 13.8333H13.8335C14.0729 13.8333 14.2668 13.6393 14.2668 13.4C14.2668 13.1607 14.0729 12.9667 13.8335 12.9667H7.76681C7.52748 12.9667 7.3335 13.1607 7.3335 13.4C7.3335 13.6393 7.52748 13.8333 7.76681 13.8333Z" fill="#2D9CDB"/>
<path fill-rule="evenodd" clip-rule="evenodd" d="M7.76681 16H13.8335C14.0729 16 14.2668 15.806 14.2668 15.5666C14.2668 15.3273 14.0729 15.1333 13.8335 15.1333H7.76681C7.52748 15.1333 7.3335 15.3274 7.3335 15.5666C7.3335 15.806 7.52748 16 7.76681 16Z" fill="#2D9CDB"/>
<path fill-rule="evenodd" clip-rule="evenodd" d="M13.8335 17.2999H10.3668C10.1275 17.2999 9.93347 17.4939 9.93347 17.7332C9.93347 17.9726 10.1275 18.1665 10.3668 18.1665H13.8335C14.0728 18.1665 14.2668 17.9725 14.2668 17.7332C14.2668 17.4939 14.0728 17.2999 13.8335 17.2999Z" fill="#2D9CDB"/>
<path fill-rule="evenodd" clip-rule="evenodd" d="M7.76681 18.1666H8.6335C8.87283 18.1666 9.06682 17.9726 9.06682 17.7333C9.06682 17.494 8.87278 17.3 8.6335 17.3H7.76681C7.52748 17.3 7.3335 17.494 7.3335 17.7333C7.3335 17.9726 7.52748 18.1666 7.76681 18.1666Z" fill="#2D9CDB"/>
<path fill-rule="evenodd" clip-rule="evenodd" d="M7.76681 20.3333H13.8335C14.0729 20.3333 14.2668 20.1393 14.2668 19.8999C14.2668 19.6606 14.0729 19.4666 13.8335 19.4666H7.76681C7.52748 19.4666 7.3335 19.6606 7.3335 19.8999C7.3335 20.1393 7.52748 20.3333 7.76681 20.3333Z" fill="#2D9CDB"/>
<path fill-rule="evenodd" clip-rule="evenodd" d="M7.76681 22.5H12.1001C12.3395 22.5 12.5335 22.3059 12.5335 22.0666C12.5335 21.8273 12.3394 21.6333 12.1001 21.6333H7.76681C7.52748 21.6333 7.3335 21.8274 7.3335 22.0666C7.3335 22.306 7.52748 22.5 7.76681 22.5Z" fill="#2D9CDB"/>
<path fill-rule="evenodd" clip-rule="evenodd" d="M18.1668 13.8333H24.2335C24.4729 13.8333 24.6669 13.6393 24.6669 13.4C24.6669 13.1607 24.4729 12.9667 24.2335 12.9667H18.1668C17.9275 12.9667 17.7335 13.1607 17.7335 13.4C17.7335 13.6393 17.9275 13.8333 18.1668 13.8333Z" fill="#2D9CDB"/>
<path fill-rule="evenodd" clip-rule="evenodd" d="M18.1668 16H24.2335C24.4729 16 24.6669 15.806 24.6669 15.5666C24.6669 15.3273 24.4729 15.1333 24.2335 15.1333H18.1668C17.9275 15.1333 17.7335 15.3274 17.7335 15.5666C17.7335 15.806 17.9275 16 18.1668 16Z" fill="#2D9CDB"/>
<path fill-rule="evenodd" clip-rule="evenodd" d="M24.2335 17.2999H20.7668C20.5275 17.2999 20.3335 17.4939 20.3335 17.7332C20.3335 17.9726 20.5275 18.1665 20.7668 18.1665H24.2335C24.4728 18.1665 24.6668 17.9725 24.6668 17.7332C24.6668 17.4939 24.4728 17.2999 24.2335 17.2999Z" fill="#2D9CDB"/>
<path fill-rule="evenodd" clip-rule="evenodd" d="M18.1668 18.1666H19.0335C19.2729 18.1666 19.4668 17.9726 19.4668 17.7333C19.4668 17.494 19.2728 17.3 19.0335 17.3H18.1668C17.9275 17.3 17.7335 17.494 17.7335 17.7333C17.7335 17.9726 17.9275 18.1666 18.1668 18.1666Z" fill="#2D9CDB"/>
<path fill-rule="evenodd" clip-rule="evenodd" d="M18.1668 20.3333H24.2335C24.4729 20.3333 24.6669 20.1393 24.6669 19.8999C24.6669 19.6606 24.4729 19.4666 24.2335 19.4666H18.1668C17.9275 19.4666 17.7335 19.6606 17.7335 19.8999C17.7335 20.1393 17.9275 20.3333 18.1668 20.3333Z" fill="#2D9CDB"/>
<path fill-rule="evenodd" clip-rule="evenodd" d="M18.1668 22.5H22.5002C22.7395 22.5 22.9335 22.3059 22.9335 22.0666C22.9335 21.8273 22.7395 21.6333 22.5002 21.6333H18.1668C17.9275 21.6333 17.7335 21.8274 17.7335 22.0666C17.7335 22.306 17.9275 22.5 18.1668 22.5Z" fill="#2D9CDB"/>
<path fill-rule="evenodd" clip-rule="evenodd" d="M15.5668 8.63329C15.5668 8.87262 15.7608 9.06661 16.0001 9.06661C16.2394 9.06661 16.4334 8.87257 16.4334 8.63329V5.59996C16.4334 5.36063 16.2394 5.16664 16.0001 5.16664C15.7608 5.16664 15.5668 5.36068 15.5668 5.59996V8.63329Z" fill="#2D9CDB"/>
<path fill-rule="evenodd" clip-rule="evenodd" d="M16.0001 4.29994C16.2394 4.29994 16.4334 4.10591 16.4334 3.86663V3.43326C16.4334 3.19392 16.2394 2.99994 16.0001 2.99994C15.7608 2.99994 15.5668 3.19397 15.5668 3.43326V3.86658C15.5668 4.10591 15.7608 4.29994 16.0001 4.29994Z" fill="#2D9CDB"/>
<path fill-rule="evenodd" clip-rule="evenodd" d="M12.0299 5.89289L12.9893 8.77022C13.0382 8.91728 13.1619 9.02712 13.3138 9.05825C13.4656 9.08943 13.6225 9.03723 13.7255 8.92129C13.8284 8.80541 13.8616 8.64337 13.8127 8.4963L12.8516 5.61852C12.8026 5.47145 12.6788 5.36166 12.527 5.33059C12.3751 5.29951 12.2182 5.35176 12.1153 5.46775C12.0124 5.58373 11.9792 5.74578 12.0282 5.89284H12.0299V5.89289Z" fill="#2D9CDB"/>
<path fill-rule="evenodd" clip-rule="evenodd" d="M12.1665 3.56325C12.1175 3.41619 11.9937 3.3064 11.8419 3.27532C11.6901 3.24424 11.5331 3.29649 11.4302 3.41248C11.3273 3.52846 11.2942 3.69051 11.3432 3.83757L11.4801 4.24839C11.5559 4.47574 11.8016 4.59863 12.0289 4.52292C12.2563 4.44715 12.3792 4.20147 12.3035 3.97412L12.1665 3.56325Z" fill="#2D9CDB"/>
<path fill-rule="evenodd" clip-rule="evenodd" d="M10.3669 9.06665C10.5264 9.06644 10.673 8.97859 10.7483 8.83793C10.8237 8.69726 10.8157 8.52658 10.7274 8.39364L9.57778 6.66032C9.44362 6.46567 9.17823 6.41448 8.9813 6.54519C8.78437 6.67591 8.72856 6.94037 8.85582 7.13959L10.0055 8.87291C10.0858 8.99403 10.2215 9.06675 10.3669 9.06665Z" fill="#2D9CDB"/>
<path fill-rule="evenodd" clip-rule="evenodd" d="M8.29682 5.9466C8.45653 5.9465 8.60323 5.8586 8.67864 5.71778C8.754 5.57697 8.74583 5.40614 8.65737 5.27319L8.46887 4.98978C8.33628 4.79041 8.06718 4.73628 7.86782 4.86887C7.66845 5.00146 7.61432 5.27055 7.74691 5.46992L7.93541 5.75374C8.016 5.87449 8.15168 5.94691 8.29682 5.9466Z" fill="#2D9CDB"/>
<path fill-rule="evenodd" clip-rule="evenodd" d="M19.1487 5.61859L18.1893 8.49637C18.1404 8.64344 18.1736 8.80543 18.2765 8.92136C18.3794 9.03725 18.5364 9.08945 18.6882 9.05832C18.8401 9.02719 18.9637 8.91735 19.0127 8.77029L19.9721 5.89296C20.0211 5.7459 19.9879 5.58385 19.885 5.46787C19.7821 5.35188 19.6252 5.29963 19.4733 5.33071C19.3215 5.36174 19.1977 5.47153 19.1487 5.61859Z" fill="#2D9CDB"/>
<path fill-rule="evenodd" clip-rule="evenodd" d="M19.9704 4.52226C20.1974 4.59797 20.4428 4.47539 20.5186 4.24839L20.6555 3.83757C20.7045 3.69051 20.6713 3.52846 20.5685 3.41248C20.4656 3.29649 20.3087 3.24424 20.1568 3.27532C20.0049 3.3064 19.8812 3.41619 19.8322 3.56325L19.6948 3.97407C19.6585 4.0833 19.6672 4.20249 19.7189 4.30532C19.7706 4.40815 19.861 4.4862 19.9704 4.52226Z" fill="#2D9CDB"/>
<path fill-rule="evenodd" clip-rule="evenodd" d="M21.6335 9.0666C21.7788 9.0667 21.9145 8.99398 21.9949 8.87292L23.1445 7.1396C23.2302 7.01056 23.2404 6.84562 23.1714 6.70699C23.1025 6.56836 22.9648 6.477 22.8102 6.46735C22.6557 6.4577 22.5077 6.53129 22.4221 6.66032L21.2725 8.39364C21.1842 8.52664 21.1762 8.69742 21.2517 8.83808C21.3271 8.97875 21.4738 9.06655 21.6335 9.0666Z" fill="#2D9CDB"/>
<path fill-rule="evenodd" clip-rule="evenodd" d="M24.0649 5.75165L24.2534 5.46783C24.3391 5.33885 24.3495 5.17401 24.2807 5.03527C24.2118 4.89654 24.0742 4.80513 23.9197 4.79543C23.7652 4.78568 23.6172 4.85916 23.5315 4.9881L23.343 5.27151C23.2104 5.47088 23.2645 5.73997 23.4639 5.87256C23.6633 6.0051 23.9323 5.95097 24.0649 5.75165Z" fill="#2D9CDB"/>
</svg>
