<svg width="32" height="32" viewBox="0 0 32 32" fill="none" xmlns="http://www.w3.org/2000/svg">
<path d="M20.1999 21.6983H22.4443C22.6804 21.6983 22.8717 21.507 22.8717 21.2709C22.8717 21.0348 22.6804 20.8434 22.4443 20.8434H20.1999C19.9638 20.8434 19.7725 21.0348 19.7725 21.2709C19.7725 21.507 19.9638 21.6983 20.1999 21.6983Z" fill="#5D94CE"/>
<path d="M23.462 18.1382C22.0091 17.4913 19.2162 17.109 18.1928 16.9856V15.0672C18.9845 14.4449 19.8402 13.4352 19.9131 11.9528H19.9405C20.7773 11.9528 21.458 11.2718 21.458 10.4346V9.91859C21.458 9.69742 21.4092 9.48001 21.3175 9.28152C21.4099 9.13688 21.4603 8.96774 21.4603 8.78965C21.4603 8.27424 21.2613 7.792 20.9315 7.42716V5.95349C20.9315 4.35764 19.9202 2.92911 18.415 2.39877C18.1924 2.32047 17.9482 2.4373 17.8698 2.65989C17.7914 2.88249 17.9083 3.12657 18.131 3.20505C19.2948 3.61502 20.0767 4.71958 20.0767 5.95349V6.8656C20.0136 6.84451 19.9491 6.8261 19.8832 6.81134C16.6431 6.08531 13.3572 6.08531 10.1168 6.81134C10.0509 6.8261 9.98648 6.84451 9.92334 6.8656V5.95349C9.92334 4.71963 10.7053 3.61508 11.8691 3.20505L14.0988 2.41946C14.68 2.21476 15.32 2.21476 15.9011 2.41946L16.2548 2.54409C16.4775 2.62245 16.7216 2.50557 16.8 2.28297C16.8784 2.06032 16.7615 1.81629 16.5389 1.73782L16.1851 1.61318C15.4208 1.34403 14.579 1.34403 13.8148 1.61318L11.585 2.39877C10.0797 2.92911 9.06845 4.35759 9.06845 5.95349V7.42716C8.73866 7.792 8.53954 8.2743 8.53954 8.7897C8.53954 8.96779 8.59003 9.13693 8.68241 9.28152C8.59072 9.47995 8.54194 9.69736 8.54194 9.91853V10.4346C8.54194 11.2717 9.22272 11.9527 10.0595 11.9527H10.0869C10.16 13.4354 11.0155 14.4449 11.8072 15.0672V16.9856C10.7838 17.109 7.99086 17.4913 6.53793 18.1382C4.99622 18.8247 4 20.3587 4 22.0463V28.6224C4 29.7066 4.88213 30.5888 5.96634 30.5888H24.0337C25.1179 30.5888 26 29.7066 26 28.6224V22.0463C26 20.3587 25.0038 18.8247 23.462 18.1382ZM12.0895 17.8135L14.1649 19.7096L13.0035 20.0772C12.5668 20.2152 12.0892 20.0247 11.8677 19.6239L10.9504 17.9637C11.4541 17.89 11.8641 17.8397 12.0895 17.8135ZM14.992 16.3364C14.9947 16.3365 14.9973 16.3365 15 16.3365C15.0027 16.3365 15.0053 16.3365 15.008 16.3364C15.5906 16.3255 16.4733 16.0997 17.338 15.6279V17.1786L15.0001 19.3147L12.6621 17.1786V15.6279C13.5267 16.0996 14.4094 16.3255 14.992 16.3364ZM17.9105 17.8135C18.1359 17.8397 18.5458 17.89 19.0496 17.9637L18.1323 19.6239C17.9108 20.0247 17.433 20.2154 16.9965 20.0772L15.8351 19.7097L17.9105 17.8135ZM20.6032 10.4346C20.6032 10.8003 20.3059 11.0979 19.9405 11.0979H19.9198L19.9224 9.57125C20.0483 9.60361 20.1741 9.6369 20.2998 9.67177C20.3886 9.69645 20.4785 9.70602 20.5676 9.70403C20.5908 9.77213 20.6032 9.84411 20.6032 9.91853V10.4346ZM10.3037 7.64549C13.4195 6.94738 16.5797 6.94709 19.6963 7.64549C20.2231 7.76351 20.6055 8.24478 20.6055 8.7897C20.6055 8.83148 20.566 8.85826 20.5284 8.84812C16.86 7.8303 13.14 7.83024 9.47165 8.84812C9.43375 8.85826 9.39449 8.83125 9.39449 8.7897C9.39443 8.24472 9.77682 7.76357 10.3037 7.64549ZM9.39682 10.4346V9.91853C9.39682 9.84445 9.40908 9.77276 9.43216 9.70488C9.52357 9.70693 9.60842 9.6973 9.70023 9.67177C9.82595 9.6369 9.95172 9.60361 10.0776 9.57125L10.0802 11.0979H10.0595C9.69408 11.0979 9.39682 10.8003 9.39682 10.4346ZM10.9361 11.7467L10.932 9.37082C13.6365 8.797 16.3635 8.797 19.068 9.37082L19.0639 11.7474C19.0639 12.9822 18.4487 13.7577 17.4981 14.5212C16.6135 15.1563 15.5731 15.468 15 15.4814C14.1264 15.461 13.1998 14.9714 12.4668 14.4959C11.6268 13.8819 10.9361 12.9728 10.9361 11.7467ZM6.88568 18.9191C7.6736 18.5683 8.94285 18.2951 10.0522 18.1056L11.1195 20.0373C11.5372 20.7933 12.4378 21.1528 13.2613 20.8921L14.9999 20.342L16.7386 20.8921C17.5619 21.1527 18.4627 20.7932 18.8804 20.0373L19.9477 18.1056C21.0571 18.2951 22.3263 18.5683 23.1143 18.9191C24.348 19.4684 25.1452 20.6959 25.1452 22.0463V25.7529H23.3254C23.166 25.7529 23.0131 25.7817 22.8717 25.8341V23.8275C22.8717 23.1203 22.2963 22.5449 21.589 22.5449C20.9367 22.5449 12.2769 22.5449 11.7768 22.5449C11.5408 22.5449 11.3494 22.7362 11.3494 22.9723C11.3494 23.2085 11.5408 23.3998 11.7768 23.3998H12.9242V26.9637C12.9242 27.2034 13.0545 27.4245 13.2642 27.5408C13.4738 27.657 13.7302 27.6504 13.9337 27.5233L14.9999 26.8572L16.0661 27.5233C16.2695 27.6503 16.526 27.657 16.7357 27.5407C16.9454 27.4245 17.0756 27.2034 17.0756 26.9637V23.3998H21.589C21.8249 23.3998 22.0168 23.5916 22.0168 23.8275V27.0615C22.0168 27.3117 21.8133 27.5153 21.563 27.5153C20.2927 27.5153 19.2468 28.4921 19.1356 29.7339H10.8643C10.7531 28.4921 9.70718 27.5153 8.43685 27.5153C8.18661 27.5153 7.98311 27.3117 7.98311 27.0615V23.8275C7.98311 23.5916 8.17499 23.3998 8.41086 23.3998H9.76577C10.0018 23.3998 10.1932 23.2085 10.1932 22.9723C10.1932 22.7362 10.0018 22.5449 9.76577 22.5449H8.41086C7.70363 22.5449 7.12828 23.1203 7.12828 23.8275V25.8341C6.98683 25.7817 6.83399 25.7529 6.67453 25.7529H4.85483V22.0464C4.85483 20.6959 5.65199 19.4684 6.88568 18.9191ZM13.7792 23.3998H16.2209V26.612L15.3497 26.0677C15.1372 25.935 14.8628 25.9351 14.6504 26.0677L13.7791 26.612V23.3998H13.7792ZM4.85483 28.6224V26.6077H6.67453C6.92477 26.6077 7.12828 26.8112 7.12828 27.0615V27.0615V27.0616C7.12833 27.7831 7.71532 28.3701 8.43685 28.3701C9.23532 28.3701 9.89718 28.9645 10.0043 29.7339H5.96634C5.35342 29.7339 4.85483 29.2353 4.85483 28.6224ZM24.0337 29.7339H19.9957C20.1027 28.9644 20.7646 28.37 21.5631 28.37C22.2846 28.37 22.8717 27.783 22.8717 27.0614C22.8717 26.8112 23.0752 26.6077 23.3254 26.6077H25.1452V28.6224C25.1452 29.2353 24.6466 29.7339 24.0337 29.7339Z" fill="#5D94CE"/>
</svg>
