<svg width="32" height="32" viewBox="0 0 32 32" fill="none" xmlns="http://www.w3.org/2000/svg">
<path d="M2.62769 20.7761V29.8503C2.62769 29.9769 2.678 30.0984 2.76755 30.188C2.8571 30.2775 2.97857 30.3279 3.10522 30.3279H5.96812C6.30944 30.327 6.63925 30.2043 6.89823 29.982C7.15721 29.7596 7.32839 29.4522 7.38098 29.115L11.941 31.2175C13.035 31.7057 14.2476 31.8649 15.4306 31.6757C16.6136 31.4864 17.7159 30.9569 18.6031 30.1518L24.6796 24.6488C25.6988 23.7861 24.9392 22.0318 23.6411 22.1433V16.9556C23.6407 16.5758 23.4896 16.2116 23.221 15.943C22.9524 15.6744 22.5882 15.5233 22.2084 15.5229C20.4823 15.5255 16.7384 15.521 15.0446 15.5229H10.7466C10.3667 15.5233 10.0025 15.6744 9.73391 15.943C9.4653 16.2116 9.3142 16.5758 9.31378 16.9556V21.2695C9.30184 21.2404 7.40215 21.2584 7.31489 21.2538C7.21635 20.9751 7.03403 20.7337 6.79293 20.5626C6.55182 20.3916 6.26373 20.2993 5.96812 20.2984H3.10516C3.04244 20.2984 2.98034 20.3108 2.92239 20.3348C2.86445 20.3588 2.81181 20.394 2.76747 20.4384C2.72313 20.4827 2.68796 20.5354 2.66398 20.5933C2.63999 20.6513 2.62766 20.7134 2.62769 20.7761ZM17.4328 16.4778V18.4387L16.747 17.9701C16.3494 17.6833 15.9039 18.2254 15.5224 18.4387V16.4778H17.4328ZM10.7466 16.4778H14.5673V19.3434C14.5848 19.4838 14.6312 19.6254 14.751 19.7106C14.8306 19.7727 14.9275 19.8087 15.0283 19.8135C15.1291 19.8184 15.229 19.7919 15.3142 19.7377L16.4777 18.9428L17.6407 19.7377C17.7358 19.8013 17.8506 19.8287 17.9642 19.815C18.0777 19.8013 18.1827 19.7474 18.2599 19.663C18.3444 19.581 18.3694 19.4554 18.3877 19.3434V16.4778H22.2086C22.3352 16.478 22.4566 16.5284 22.5461 16.6179C22.6357 16.7075 22.686 16.8288 22.6862 16.9554V22.4816L15.6585 25.9093C16.507 24.5544 15.4271 22.6412 13.823 22.6865H10.6244C10.537 22.4338 10.4386 22.0428 10.269 21.8356V16.9556C10.2691 16.829 10.3194 16.7076 10.409 16.618C10.4985 16.5284 10.6199 16.478 10.7466 16.4778H10.7466ZM9.56922 22.5363C9.74818 22.9524 9.76362 23.6457 10.2793 23.6417H13.8239C14.1406 23.6417 14.4442 23.7674 14.6681 23.9913C14.892 24.2152 15.0178 24.5189 15.0178 24.8355C15.0178 25.1521 14.892 25.4558 14.6681 25.6797C14.4442 25.9036 14.1406 26.0294 13.8239 26.0294H11.7017C11.6385 26.0286 11.5759 26.0405 11.5173 26.0641C11.4587 26.0878 11.4054 26.1229 11.3605 26.1673C11.3156 26.2117 11.2799 26.2646 11.2556 26.3229C11.2312 26.3812 11.2187 26.4438 11.2187 26.5069C11.2187 26.5701 11.2312 26.6326 11.2556 26.6909C11.2799 26.7492 11.3156 26.8021 11.3605 26.8466C11.4054 26.891 11.4587 26.926 11.5173 26.9497C11.5759 26.9734 11.6385 26.9852 11.7017 26.9845H15.5224C15.5949 26.9844 15.6664 26.9679 15.7316 26.9362C15.8295 26.8887 23.5487 23.1234 23.4978 23.1484C23.6008 23.0909 23.722 23.0755 23.8361 23.1053C23.9503 23.1351 24.0484 23.2079 24.1101 23.3084C24.1803 23.4038 24.2117 23.5222 24.198 23.6398C24.1844 23.7574 24.1268 23.8655 24.0367 23.9423L17.9617 29.4438C17.2128 30.1241 16.2822 30.5718 15.2833 30.7323C14.2844 30.8928 13.2604 30.7593 12.3361 30.3479L7.40301 28.0735V22.2092H9.1163C9.21664 22.209 9.31448 22.2405 9.39583 22.2993C9.47718 22.358 9.53787 22.441 9.56922 22.5363ZM3.58276 21.2537H5.96812C6.09537 21.2539 6.21737 21.3045 6.30735 21.3945C6.39733 21.4845 6.44795 21.6065 6.44812 21.7337V28.8923C6.4479 29.0196 6.39727 29.1415 6.30729 29.2315C6.21732 29.3215 6.09536 29.3721 5.96812 29.3723H3.58276V21.2537Z" fill="#EB5757"/>
<path d="M18.3877 22.6865H19.8205C20.4446 22.6838 20.4453 21.734 19.8205 21.7313H18.3877C17.7639 21.734 17.7631 22.6838 18.3877 22.6865Z" fill="#EB5757"/>
<path d="M29.3723 10.7468V3.58307C29.3723 3.45642 29.322 3.33495 29.2324 3.24538C29.1428 3.15582 29.0214 3.10549 28.8947 3.10547C28.5571 3.1344 25.8106 3.02547 25.5574 3.19163L21.424 0.871627C20.5253 0.361292 19.4857 0.155274 18.4603 0.284328C17.435 0.413381 16.4788 0.870583 15.7346 1.58769L13.5344 3.71926L9.9975 1.53095L8.37116 0.524673C8.31731 0.491758 8.2575 0.469785 8.19515 0.460012C8.1328 0.450239 8.06913 0.452858 8.00779 0.46772C7.94645 0.482581 7.88865 0.509393 7.83769 0.546621C7.78672 0.583848 7.7436 0.630761 7.71079 0.684673C7.14673 1.62067 5.93522 3.63286 5.36371 4.58129L4.36765 6.2347C4.30316 6.3417 4.28314 6.46971 4.3119 6.59129C4.34066 6.71286 4.4159 6.81834 4.5215 6.8851L14.3668 13.1037C16.809 14.5991 16.0971 14.7349 17.6801 12.3676C17.6801 12.3676 17.6806 12.3673 17.6808 12.3669C17.681 12.3666 18.5818 10.9707 18.5819 10.9703L19.5007 11.5274C20.0281 11.8498 20.6353 12.0177 21.2534 12.0121C21.8714 12.0064 22.4755 11.8274 22.9969 11.4954L24.7356 10.3971C24.8503 10.6437 25.0329 10.8525 25.262 10.9991C25.4911 11.1456 25.7573 11.2239 26.0293 11.2246H28.8948C28.9575 11.2246 29.0196 11.2122 29.0776 11.1882C29.1355 11.1642 29.1881 11.129 29.2325 11.0846C29.2768 11.0402 29.312 10.9876 29.336 10.9296C29.36 10.8717 29.3723 10.8096 29.3723 10.7468ZM8.27953 1.59132L9.02014 2.04953C8.85741 2.18871 8.66459 2.2882 8.45687 2.34018C8.24915 2.39215 8.03219 2.39518 7.8231 2.34904L8.27953 1.59132ZM5.88211 5.57157C6.02074 5.74025 6.11892 5.93843 6.16914 6.15092C6.21936 6.36341 6.22028 6.58457 6.17184 6.79747L5.42722 6.32707L5.88211 5.57157ZM16.0939 13.0646L15.3488 12.594C15.5169 12.453 15.7161 12.3539 15.9301 12.305C16.144 12.2561 16.3665 12.2587 16.5792 12.3127L16.0939 13.0646ZM17.1127 11.4859C16.2303 11.1135 15.1483 11.364 14.5107 12.0644L7.00753 7.32535C7.17564 6.87904 7.20733 6.39285 7.09857 5.92849C6.98981 5.46414 6.74551 5.04258 6.3967 4.71735L7.3151 3.19255C8.19344 3.53003 9.24359 3.26381 9.86279 2.57101L15.0057 5.75317C13.8744 6.37341 13.8691 8.16486 14.9973 8.7968L17.7648 10.4749L17.1127 11.4859ZM22.4865 10.6879C22.1152 10.9244 21.685 11.052 21.2447 11.0561C20.8045 11.0602 20.3719 10.9406 19.9963 10.711L15.4928 7.98024C15.3983 7.92311 15.3165 7.84736 15.2523 7.75761C15.1881 7.66785 15.1428 7.56597 15.1192 7.45815C14.9436 6.78553 15.7367 6.18387 16.3253 6.57317L19.3169 8.42073C19.5221 8.564 19.8203 8.73717 20.0619 8.576C20.3716 8.41372 20.3683 7.94369 20.0718 7.76424L14.3721 4.2376L16.3992 2.27366C16.9949 1.69956 17.7603 1.33368 18.5811 1.2307C19.402 1.12771 20.2341 1.29317 20.9531 1.70233L24.7801 3.85003C24.6615 4.05959 24.5984 4.29599 24.5968 4.5368V9.35526L22.4865 10.6879ZM28.4172 10.2694H26.0295C25.9029 10.2692 25.7815 10.2189 25.692 10.1294C25.6025 10.0398 25.5521 9.91848 25.5519 9.79187V4.53704C25.552 4.41072 25.6022 4.2896 25.6916 4.20028C25.7809 4.11096 25.902 4.06073 26.0283 4.06061H28.4172V10.2694Z" fill="#EB5757"/>
<path d="M12.1794 5.49341C9.65475 5.57341 9.65536 9.23421 12.1794 9.31409C14.704 9.23384 14.7034 5.57329 12.1794 5.49341ZM12.1794 8.35889C10.924 8.33661 10.924 6.4707 12.1794 6.44855C13.4346 6.47089 13.4344 8.33679 12.1794 8.35889Z" fill="#EB5757"/>
<path d="M27.3236 9.17538C27.5297 8.91649 27.4827 8.66529 27.3236 8.49723C27.0717 8.29674 26.8202 8.32954 26.6455 8.49723C26.5571 8.58799 26.5077 8.70965 26.5077 8.83631C26.5077 8.96296 26.5571 9.08462 26.6455 9.17538C26.8156 9.33649 27.0702 9.37729 27.3236 9.17538Z" fill="#EB5757"/>
<path d="M4.67652 27.6008C4.51437 27.7709 4.47295 28.0233 4.67652 28.279C4.74359 28.3461 4.82903 28.3917 4.92204 28.4102C5.01505 28.4287 5.11147 28.4192 5.19908 28.3829C5.2867 28.3466 5.36158 28.2852 5.41427 28.2063C5.46696 28.1275 5.49508 28.0348 5.49508 27.9399C5.49508 27.8451 5.46696 27.7524 5.41427 27.6735C5.36158 27.5947 5.2867 27.5332 5.19908 27.4969C5.11147 27.4606 5.01505 27.4511 4.92204 27.4696C4.82903 27.4881 4.74359 27.5338 4.67652 27.6008Z" fill="#EB5757"/>
</svg>
