<svg width="32" height="32" viewBox="0 0 32 32" fill="none" xmlns="http://www.w3.org/2000/svg">
<path d="M15.5 29H9.5V25H10.5C10.6326 25 10.7598 24.9473 10.8536 24.8536C10.9473 24.7598 11 24.6326 11 24.5C11 24.3674 10.9473 24.2402 10.8536 24.1464C10.7598 24.0527 10.6326 24 10.5 24H9.5V23.5C9.5 23.3674 9.44732 23.2402 9.35355 23.1464C9.25979 23.0527 9.13261 23 9 23C8.86739 23 8.74021 23.0527 8.64645 23.1464C8.55268 23.2402 8.5 23.3674 8.5 23.5V29H6V23.21C6.00132 22.0938 6.4453 21.0238 7.23454 20.2345C8.02378 19.4453 9.09384 19.0013 10.21 19H11.795L13.5 20.705V24.5C13.5 24.6326 13.5527 24.7598 13.6464 24.8536C13.7402 24.9473 13.8674 25 14 25C14.1326 25 14.2598 24.9473 14.3536 24.8536C14.4473 24.7598 14.5 24.6326 14.5 24.5V20.705L16.205 19H17.79C18.7296 18.9977 19.6423 19.3131 20.38 19.895C20.4848 19.9772 20.6179 20.0145 20.7501 19.9985C20.8823 19.9826 21.0028 19.9148 21.085 19.81C21.1672 19.7052 21.2045 19.5721 21.1885 19.4399C21.1726 19.3077 21.1048 19.1872 21 19.105C20.0836 18.3883 18.9534 17.9992 17.79 18H10.21C8.82863 18.0013 7.50421 18.5507 6.52744 19.5274C5.55066 20.5042 5.00132 21.8286 5 23.21V29.5C5 29.6326 5.05268 29.7598 5.14645 29.8536C5.24021 29.9473 5.36739 30 5.5 30H15.5C15.6326 30 15.7598 29.9473 15.8536 29.8536C15.9473 29.7598 16 29.6326 16 29.5C16 29.3674 15.9473 29.2402 15.8536 29.1464C15.7598 29.0527 15.6326 29 15.5 29ZM14 19.795L13.205 19H14.795L14 19.795Z" fill="#6FCF97"/>
<path d="M8.5 11.925C8.60247 13.3097 9.22483 14.6043 10.2422 15.5491C11.2595 16.494 12.5966 17.0191 13.985 17.0191C15.3734 17.0191 16.7105 16.494 17.7278 15.5491C18.7452 14.6043 19.3675 13.3097 19.47 11.925C19.7622 11.8272 20.0162 11.6398 20.1957 11.3893C20.3752 11.1389 20.4712 10.8382 20.47 10.53V9.46502C20.4688 9.15251 20.3678 8.84856 20.1815 8.59759C19.9953 8.34661 19.7337 8.16175 19.435 8.07002L19.34 6.94502C19.2239 5.60082 18.6078 4.34905 17.6136 3.43699C16.6194 2.52493 15.3192 2.01892 13.97 2.01892C12.6208 2.01892 11.3206 2.52493 10.3264 3.43699C9.33215 4.34905 8.71612 5.60082 8.6 6.94502L8.505 8.07002C8.21226 8.16764 7.95767 8.3549 7.77729 8.60527C7.59691 8.85565 7.4999 9.15644 7.5 9.46502V10.535C7.49984 10.8423 7.59632 11.1419 7.77578 11.3913C7.95524 11.6408 8.20859 11.8275 8.5 11.925ZM9.61 7.02502C9.70098 5.92726 10.2013 4.90381 11.0118 4.15777C11.8222 3.41173 12.8835 2.99762 13.985 2.99762C15.0865 2.99762 16.1478 3.41173 16.9582 4.15777C17.7687 4.90381 18.269 5.92726 18.36 7.02502L18.43 7.89002C15.489 7.37503 12.481 7.37503 9.54 7.89002L9.61 7.02502ZM18.42 8.91002C18.3319 9.2202 18.1462 9.49373 17.8904 9.69007C17.6346 9.88641 17.3224 9.9951 17 10H11C10.675 9.99832 10.3594 9.89111 10.1006 9.69453C9.84178 9.49795 9.65383 9.22264 9.565 8.91002C12.4975 8.37501 15.5025 8.37501 18.435 8.91002H18.42ZM8.5 9.46502C8.50358 9.36275 8.54045 9.26444 8.605 9.18502C8.7535 9.70629 9.06739 10.1652 9.49937 10.4925C9.93134 10.8199 10.458 10.998 11 11H17C17.542 10.998 18.0687 10.8199 18.5006 10.4925C18.9326 10.1652 19.2465 9.70629 19.395 9.18502C19.4596 9.26444 19.4964 9.36275 19.5 9.46502V10.535C19.4911 10.6615 19.4346 10.7798 19.3417 10.8662C19.2489 10.9525 19.1268 11.0003 19 11C18.8674 11 18.7402 11.0527 18.6464 11.1465C18.5527 11.2402 18.5 11.3674 18.5 11.5C18.5 12.6935 18.0259 13.8381 17.182 14.682C16.3381 15.5259 15.1935 16 14 16C12.8065 16 11.6619 15.5259 10.818 14.682C9.97411 13.8381 9.5 12.6935 9.5 11.5C9.4911 11.3643 9.43083 11.237 9.33145 11.1442C9.23206 11.0513 9.10103 10.9997 8.965 11C8.84437 10.9918 8.73079 10.9402 8.6453 10.8547C8.55981 10.7692 8.50819 10.6557 8.5 10.535V9.46502Z" fill="#6FCF97"/>
<path d="M26.5 21H17.5C17.3674 21 17.2402 21.0527 17.1464 21.1464C17.0527 21.2402 17 21.3674 17 21.5V29.5C17 29.6326 17.0527 29.7598 17.1464 29.8536C17.2402 29.9473 17.3674 30 17.5 30H26.5C26.6326 30 26.7598 29.9473 26.8536 29.8536C26.9473 29.7598 27 29.6326 27 29.5V21.5C27 21.3674 26.9473 21.2402 26.8536 21.1464C26.7598 21.0527 26.6326 21 26.5 21ZM22.5 22V23H21.5V22H22.5ZM26 29H18V22H20.5V23.5C20.5 23.6326 20.5527 23.7598 20.6464 23.8536C20.7402 23.9473 20.8674 24 21 24H23C23.1326 24 23.2598 23.9473 23.3536 23.8536C23.4473 23.7598 23.5 23.6326 23.5 23.5V22H26V29Z" fill="#6FCF97"/>
<path d="M15.5 6.5C15.5 6.36739 15.4473 6.24021 15.3536 6.14645C15.2598 6.05268 15.1326 6 15 6H13C12.8674 6 12.7402 6.05268 12.6464 6.14645C12.5527 6.24021 12.5 6.36739 12.5 6.5C12.5 6.63261 12.5527 6.75979 12.6464 6.85355C12.7402 6.94732 12.8674 7 13 7H15C15.1326 7 15.2598 6.94732 15.3536 6.85355C15.4473 6.75979 15.5 6.63261 15.5 6.5Z" fill="#6FCF97"/>
</svg>
