<svg width="32" height="32" viewBox="0 0 32 32" fill="none" xmlns="http://www.w3.org/2000/svg">
<path d="M27.3947 14.3768C27.6648 14.1432 27.857 13.8326 27.9454 13.4866C28.0337 13.1406 28.014 12.7758 27.8888 12.4413C27.7636 12.1069 27.539 11.8188 27.2452 11.6158C26.9514 11.4129 26.6024 11.3047 26.2453 11.306H25.368V5.60321C25.367 4.78909 25.0432 4.00857 24.4675 3.4329C23.8919 2.85722 23.1114 2.5334 22.2972 2.53247H12.6463C11.8322 2.5334 11.0517 2.85722 10.476 3.4329C9.90034 4.00857 9.57652 4.78909 9.57559 5.60321V8.04226C9.31066 7.88269 9.00749 7.79781 8.69823 7.7966H7.3822C7.26586 7.7966 7.15428 7.84281 7.07201 7.92508C6.98974 8.00735 6.94352 8.11893 6.94352 8.23527V22.0931L4 25.0322L4.62292 25.6551L7.69366 22.5844C7.77446 22.5008 7.82001 22.3892 7.82088 22.2729V8.67395H8.69823C8.93071 8.67465 9.15346 8.7673 9.31785 8.93169C9.48223 9.09608 9.57489 9.31883 9.57559 9.55131V13.0607C9.57561 13.1395 9.59682 13.2167 9.637 13.2844L10.0801 14.0214C10.6113 14.9082 10.8918 15.9225 10.8916 16.9562V17.5923C10.8931 18.3885 10.6762 19.17 10.2643 19.8514L11.0188 20.3077C11.51 19.4871 11.7692 18.5486 11.769 17.5923V16.9562C11.769 15.7631 11.4445 14.5924 10.8302 13.5696L10.4529 12.9379V5.60321C10.4529 5.02149 10.684 4.46359 11.0954 4.05225C11.5067 3.64091 12.0646 3.40983 12.6463 3.40983H22.2972C22.5853 3.40983 22.8705 3.46656 23.1366 3.57679C23.4027 3.68701 23.6445 3.84858 23.8482 4.05225C24.0519 4.25593 24.2134 4.49772 24.3237 4.76384C24.4339 5.02995 24.4906 5.31517 24.4906 5.60321V11.306C24.1335 11.3047 23.7846 11.4129 23.4908 11.6158C23.1969 11.8188 22.9723 12.1069 22.8471 12.4413C22.722 12.7758 22.7022 13.1406 22.7906 13.4866C22.8789 13.8326 23.0711 14.1432 23.3413 14.3768C23.1514 14.5395 22.999 14.7413 22.8945 14.9685C22.79 15.1957 22.7359 15.4427 22.7359 15.6928C22.7359 15.9428 22.79 16.1899 22.8945 16.4171C22.999 16.6442 23.1514 16.8461 23.3413 17.0088C23.1514 17.1715 22.999 17.3734 22.8945 17.6006C22.79 17.8277 22.7359 18.0748 22.7359 18.3249C22.7359 18.5749 22.79 18.822 22.8945 19.0491C22.999 19.2763 23.1514 19.4782 23.3413 19.6409C23.0711 19.8744 22.8789 20.185 22.7906 20.5311C22.7022 20.8771 22.722 21.2418 22.8471 21.5763C22.9723 21.9107 23.1969 22.1988 23.4908 22.4018C23.7846 22.6048 24.1335 22.7129 24.4906 22.7116V23.1503C24.4906 23.4383 24.4339 23.7236 24.3237 23.9897C24.2134 24.2558 24.0519 24.4976 23.8482 24.7013C23.6445 24.9049 23.4027 25.0665 23.1366 25.1767C22.8705 25.287 22.5853 25.3437 22.2972 25.3437H12.6463C12.0646 25.3437 11.5067 25.1126 11.0954 24.7013C10.684 24.2899 10.4529 23.732 10.4529 23.1503V20.9569H9.57559V23.1503C9.57652 23.9644 9.90034 24.7449 10.476 25.3206C11.0517 25.8963 11.8322 26.2201 12.6463 26.221H18.1693L15.8443 28.5416L16.4672 29.1646L19.4063 26.221H22.2972C23.1114 26.2201 23.8919 25.8963 24.4675 25.3206C25.0432 24.7449 25.367 23.9644 25.368 23.1503V22.7116H26.2453C26.6024 22.7129 26.9514 22.6048 27.2452 22.4018C27.539 22.1988 27.7636 21.9107 27.8888 21.5763C28.014 21.2418 28.0337 20.8771 27.9454 20.5311C27.857 20.185 27.6648 19.8744 27.3947 19.6409C27.5845 19.4782 27.7369 19.2763 27.8414 19.0491C27.9459 18.822 28 18.5749 28 18.3249C28 18.0748 27.9459 17.8277 27.8414 17.6006C27.7369 17.3734 27.5845 17.1715 27.3947 17.0088C27.5845 16.8461 27.7369 16.6442 27.8414 16.4171C27.9459 16.1899 28 15.9428 28 15.6928C28 15.4427 27.9459 15.1957 27.8414 14.9685C27.7369 14.7413 27.5845 14.5395 27.3947 14.3768ZM26.2453 21.8343H24.4906C24.2579 21.8343 24.0348 21.7418 23.8702 21.5773C23.7057 21.4128 23.6133 21.1896 23.6133 20.9569C23.6133 20.7242 23.7057 20.5011 23.8702 20.3365C24.0348 20.172 24.2579 20.0796 24.4906 20.0796H26.2453C26.478 20.0796 26.7012 20.172 26.8657 20.3365C27.0302 20.5011 27.1227 20.7242 27.1227 20.9569C27.1227 21.1896 27.0302 21.4128 26.8657 21.5773C26.7012 21.7418 26.478 21.8343 26.2453 21.8343ZM26.2453 19.2022H24.4906C24.2579 19.2022 24.0348 19.1098 23.8702 18.9452C23.7057 18.7807 23.6133 18.5575 23.6133 18.3249C23.6133 18.0922 23.7057 17.869 23.8702 17.7045C24.0348 17.5399 24.2579 17.4475 24.4906 17.4475H26.2453C26.478 17.4475 26.7012 17.5399 26.8657 17.7045C27.0302 17.869 27.1227 18.0922 27.1227 18.3249C27.1227 18.5575 27.0302 18.7807 26.8657 18.9452C26.7012 19.1098 26.478 19.2022 26.2453 19.2022ZM26.2453 16.5701H24.4906C24.2579 16.5701 24.0348 16.4777 23.8702 16.3132C23.7057 16.1486 23.6133 15.9255 23.6133 15.6928C23.6133 15.4601 23.7057 15.2369 23.8702 15.0724C24.0348 14.9079 24.2579 14.8154 24.4906 14.8154H26.2453C26.478 14.8154 26.7012 14.9079 26.8657 15.0724C27.0302 15.2369 27.1227 15.4601 27.1227 15.6928C27.1227 15.9255 27.0302 16.1486 26.8657 16.3132C26.7012 16.4777 26.478 16.5701 26.2453 16.5701ZM26.2453 13.9381H24.4906C24.2579 13.9381 24.0348 13.8456 23.8702 13.6811C23.7057 13.5166 23.6133 13.2934 23.6133 13.0607C23.6133 12.828 23.7057 12.6049 23.8702 12.4403C24.0348 12.2758 24.2579 12.1834 24.4906 12.1834H26.2453C26.478 12.1834 26.7012 12.2758 26.8657 12.4403C27.0302 12.6049 27.1227 12.828 27.1227 13.0607C27.1227 13.2934 27.0302 13.5166 26.8657 13.6811C26.7012 13.8456 26.478 13.9381 26.2453 13.9381Z" fill="#EB5757"/>
<path d="M14.4011 4.28717H15.2784V5.16452H14.4011V4.28717Z" fill="#EB5757"/>
<path d="M16.1558 4.28717H18.7878V5.16452H16.1558V4.28717Z" fill="#EB5757"/>
<path d="M16.5944 21.8343C16.2454 21.8343 15.9106 21.9729 15.6638 22.2197C15.417 22.4666 15.2784 22.8013 15.2784 23.1503C15.2784 23.4994 15.417 23.8341 15.6638 24.0809C15.9106 24.3277 16.2454 24.4664 16.5944 24.4664H18.3491C18.6982 24.4664 19.0329 24.3277 19.2797 24.0809C19.5265 23.8341 19.6652 23.4994 19.6652 23.1503C19.6652 22.8013 19.5265 22.4666 19.2797 22.2197C19.0329 21.9729 18.6982 21.8343 18.3491 21.8343H16.5944ZM18.7878 23.1503C18.7878 23.2667 18.7416 23.3782 18.6593 23.4605C18.577 23.5428 18.4655 23.589 18.3491 23.589H16.5944C16.4781 23.589 16.3665 23.5428 16.2842 23.4605C16.202 23.3782 16.1557 23.2667 16.1557 23.1503C16.1557 23.034 16.202 22.9224 16.2842 22.8401C16.3665 22.7579 16.4781 22.7116 16.5944 22.7116H18.3491C18.4655 22.7116 18.577 22.7579 18.6593 22.8401C18.7416 22.9224 18.7878 23.034 18.7878 23.1503Z" fill="#EB5757"/>
<path d="M21.4199 9.11261H13.5237C13.4074 9.11261 13.2958 9.15883 13.2135 9.2411C13.1312 9.32336 13.085 9.43494 13.085 9.55129V17.4475C13.085 17.5638 13.1312 17.6754 13.2135 17.7577C13.2958 17.8399 13.4074 17.8862 13.5237 17.8862H21.4199C21.5362 17.8862 21.6478 17.8399 21.7301 17.7577C21.8123 17.6754 21.8586 17.5638 21.8586 17.4475V9.55129C21.8586 9.43494 21.8123 9.32336 21.7301 9.2411C21.6478 9.15883 21.5362 9.11261 21.4199 9.11261ZM17.0331 9.98996H17.9105V12.35L17.6692 12.2316C17.6082 12.1999 17.5405 12.1833 17.4718 12.1833C17.4031 12.1833 17.3354 12.1999 17.2744 12.2316L17.0331 12.35V9.98996ZM13.9624 9.98996H16.1558V11.7447H13.9624V9.98996ZM20.9812 17.0088H13.9624V12.622H16.1558V13.0607C16.156 13.1355 16.1753 13.209 16.2119 13.2742C16.2486 13.3394 16.3012 13.3941 16.365 13.4332C16.4287 13.4724 16.5014 13.4945 16.5761 13.4977C16.6508 13.5008 16.7251 13.4848 16.7918 13.4511L17.4718 13.1133L18.1517 13.4511C18.213 13.482 18.2805 13.4985 18.3491 13.4994C18.4312 13.4993 18.5117 13.4765 18.5816 13.4336C18.6449 13.3941 18.697 13.3391 18.733 13.2739C18.7691 13.2086 18.788 13.1353 18.7878 13.0607V12.622H20.9812V17.0088ZM20.9812 11.7447H18.7878V9.98996H20.9812V11.7447Z" fill="#EB5757"/>
</svg>
