<svg width="30" height="27" viewBox="0 0 30 27" fill="none" xmlns="http://www.w3.org/2000/svg">
<path d="M20.5 7.5H19.5V8.5H20.5V7.5Z" fill="#6FCF97"/>
<path d="M23.5 7.5H22.5V8.5H23.5V7.5Z" fill="#6FCF97"/>
<path d="M29.5 20H28V16.95C27.9999 16.2728 27.8036 15.6101 27.4347 15.0422C27.0658 14.4742 26.5402 14.0254 25.9215 13.75L23.5 12.675V11.959C23.9283 11.7107 24.3071 11.3856 24.6175 11H26C26.2652 11 26.5196 10.8946 26.7071 10.7071C26.8946 10.5196 27 10.2652 27 10V8.809C27.322 8.44901 27.5 7.98298 27.5 7.5C27.5 7.01702 27.322 6.55099 27 6.191V5.5C27 4.04131 26.4205 2.64236 25.3891 1.61091C24.3576 0.579463 22.9587 0 21.5 0C20.0413 0 18.6424 0.579463 17.6109 1.61091C16.5795 2.64236 16 4.04131 16 5.5V6.191C15.7454 6.47863 15.5795 6.8338 15.5223 7.21364C15.465 7.59349 15.519 7.98177 15.6776 8.33164C15.8362 8.6815 16.0926 8.97798 16.416 9.1853C16.7394 9.39262 17.1159 9.50192 17.5 9.5C17.543 9.5 17.5855 9.4905 17.6285 9.488C17.761 10.0034 17.9946 10.4873 18.3159 10.9116C18.6372 11.3358 19.0397 11.6919 19.5 11.959V12.675L17.0785 13.75C16.4599 14.0255 15.9343 14.4743 15.5655 15.0423C15.1966 15.6102 15.0002 16.2728 15 16.95V20H13V2.5C13 2.36739 12.9473 2.24021 12.8536 2.14645C12.7598 2.05268 12.6326 2 12.5 2H2.5C2.36739 2 2.24021 2.05268 2.14645 2.14645C2.05268 2.24021 2 2.36739 2 2.5V20H0.5C0.367392 20 0.240215 20.0527 0.146447 20.1464C0.0526784 20.2402 0 20.3674 0 20.5V22.5C0 22.6326 0.0526784 22.7598 0.146447 22.8536C0.240215 22.9473 0.367392 23 0.5 23H1.5V26.5C1.5 26.6326 1.55268 26.7598 1.64645 26.8536C1.74021 26.9473 1.86739 27 2 27H28C28.1326 27 28.2598 26.9473 28.3536 26.8536C28.4473 26.7598 28.5 26.6326 28.5 26.5V23H29.5C29.6326 23 29.7598 22.9473 29.8536 22.8536C29.9473 22.7598 30 22.6326 30 22.5V20.5C30 20.3674 29.9473 20.2402 29.8536 20.1464C29.7598 20.0527 29.6326 20 29.5 20ZM25.2055 10C25.2721 9.8332 25.3276 9.66216 25.3715 9.488C25.4145 9.4905 25.457 9.5 25.5 9.5C25.669 9.49789 25.8371 9.47402 26 9.429V10H25.2055ZM26.5 7.5C26.5 7.76522 26.3946 8.01957 26.2071 8.20711C26.0196 8.39464 25.7652 8.5 25.5 8.5V6.5C25.7652 6.5 26.0196 6.60536 26.2071 6.79289C26.3946 6.98043 26.5 7.23478 26.5 7.5ZM18.3185 2.3185C18.9478 1.68936 19.7496 1.26093 20.6224 1.08737C21.4951 0.913821 22.3998 1.00293 23.2219 1.34345C24.0441 1.68396 24.7468 2.26059 25.2413 3.00044C25.7358 3.74028 25.9998 4.61012 26 5.5V5.571C25.8371 5.52597 25.669 5.50211 25.5 5.5C25.457 5.5 25.4145 5.5095 25.3715 5.512C25.1532 4.65081 24.6539 3.887 23.9527 3.34141C23.2515 2.79582 22.3884 2.49959 21.5 2.49959C20.6116 2.49959 19.7485 2.79582 19.0473 3.34141C18.3461 3.887 17.8468 4.65081 17.6285 5.512C17.5855 5.5095 17.543 5.5 17.5 5.5C17.331 5.50211 17.1629 5.52597 17 5.571V5.5C16.9986 4.90888 17.1144 4.32334 17.3407 3.77725C17.5671 3.23117 17.8994 2.73536 18.3185 2.3185ZM24.455 6H24.205L23.3515 5.1465C23.2773 5.07227 23.1817 5.02326 23.0782 5.00639C22.9746 4.98952 22.8684 5.00565 22.7745 5.0525L20.882 6H18.545C18.6625 5.30125 19.0238 4.66676 19.5648 4.20916C20.1058 3.75157 20.7914 3.50048 21.5 3.50048C22.2086 3.50048 22.8942 3.75157 23.4352 4.20916C23.9762 4.66676 24.3375 5.30125 24.455 6ZM16.5 7.5C16.5 7.23478 16.6054 6.98043 16.7929 6.79289C16.9804 6.60536 17.2348 6.5 17.5 6.5V8.5C17.2348 8.5 16.9804 8.39464 16.7929 8.20711C16.6054 8.01957 16.5 7.76522 16.5 7.5ZM18.5 8.5V7H21C21.0776 7.00007 21.1541 6.9821 21.2235 6.9475L22.9 6.1085L23.645 6.8535C23.6916 6.90011 23.7469 6.93705 23.8079 6.96219C23.8688 6.98733 23.9341 7.00018 24 7H24.5V8.5C24.4998 9.02711 24.3597 9.54473 24.094 10H21.5V11H23.155C22.7032 11.2998 22.1786 11.4715 21.6369 11.4967C21.0953 11.5219 20.557 11.3998 20.0793 11.1432C19.6016 10.8867 19.2024 10.5054 18.9243 10.0399C18.6462 9.57441 18.4996 9.04222 18.5 8.5ZM21.5 12.5C21.8376 12.4988 22.1736 12.4546 22.5 12.3685V13C22.5 13.2652 22.3946 13.5196 22.2071 13.7071C22.0196 13.8946 21.7652 14 21.5 14C21.2348 14 20.9804 13.8946 20.7929 13.7071C20.6054 13.5196 20.5 13.2652 20.5 13V12.3685C20.8264 12.4546 21.1624 12.4988 21.5 12.5ZM16 16.95C16 16.4664 16.1403 15.9931 16.4039 15.5877C16.6675 15.1822 17.043 14.8619 17.485 14.6655L19.635 13.7095C19.7774 14.0888 20.0321 14.4157 20.3652 14.6464C20.6983 14.8772 21.0938 15.0008 21.499 15.0008C21.9042 15.0008 22.2997 14.8772 22.6328 14.6464C22.9659 14.4157 23.2206 14.0888 23.363 13.7095L25.513 14.666C25.9553 14.862 26.3312 15.1821 26.5951 15.5876C26.859 15.993 26.9997 16.4662 27 16.95V20H16V16.95ZM5.5 13H3V12H5.5V13ZM3 5H5.5V6.5C5.49999 6.59052 5.52455 6.67935 5.57106 6.757C5.61758 6.83466 5.6843 6.89823 5.76412 6.94094C5.84393 6.98364 5.93384 7.00388 6.02426 6.99949C6.11467 6.99509 6.2022 6.96624 6.2775 6.916L7.5 6.1L8.7225 6.915C8.79773 6.96519 8.88516 6.99404 8.97549 6.99847C9.06582 7.00291 9.15566 6.98276 9.23544 6.94017C9.31522 6.89759 9.38196 6.83416 9.42855 6.75665C9.47514 6.67913 9.49983 6.59044 9.5 6.5V5H12V11H3V5ZM6.5 3H8.5V5.5655L7.7775 5.084C7.69533 5.02918 7.59877 4.99993 7.5 4.99993C7.40123 4.99993 7.30467 5.02918 7.2225 5.084L6.5 5.5655V3ZM6.5 12H8.5V14.5655L7.7775 14.084C7.69533 14.0292 7.59877 13.9999 7.5 13.9999C7.40123 13.9999 7.30467 14.0292 7.2225 14.084L6.5 14.5655V12ZM9.5 12H12V13H9.5V12ZM12 4H9.5V3H12V4ZM5.5 3V4H3V3H5.5ZM3 14H5.5V15.5C5.49999 15.5905 5.52455 15.6793 5.57106 15.757C5.61758 15.8347 5.6843 15.8982 5.76412 15.9409C5.84393 15.9836 5.93384 16.0039 6.02426 15.9995C6.11467 15.9951 6.2022 15.9662 6.2775 15.916L7.5 15.1L8.7225 15.915C8.79773 15.9652 8.88516 15.994 8.97549 15.9985C9.06582 16.0029 9.15566 15.9828 9.23544 15.9402C9.31522 15.8976 9.38196 15.8342 9.42855 15.7566C9.47514 15.6791 9.49983 15.5904 9.5 15.5V14H12V20H3V14ZM27.5 26H2.5V23H27.5V26ZM29 22H1V21H29V22Z" fill="#6FCF97"/>
</svg>
