<svg width="29" height="18" viewBox="0 0 29 18" fill="none" xmlns="http://www.w3.org/2000/svg">
<path d="M0.54936 9.08207L2.86057 9.99387C3.16598 10.1143 3.49897 10.0507 3.73714 9.85108L5.56742 11.0054L5.88132 11.226C5.48314 11.8562 5.58515 12.7174 6.19058 13.2307C6.52323 13.5128 6.94593 13.6331 7.35969 13.588C7.38399 14.023 7.58178 14.4104 7.90367 14.6832C8.22 14.9514 8.63297 15.0888 9.07273 15.0408C9.09719 15.4756 9.29487 15.8628 9.61676 16.1357C9.93604 16.4065 10.3498 16.5409 10.7866 16.4933C10.8094 16.9029 10.9931 17.3027 11.3298 17.5883C11.9804 18.14 12.9591 18.06 13.5107 17.4095L13.878 16.9784L14.4969 17.4351C15.5669 18.225 17.0794 17.5779 17.2189 16.265C18.3221 16.6659 19.4935 15.8927 19.5105 14.7053C20.5505 14.9009 21.4732 14.1456 21.5312 13.1437C22.8801 13.504 24.1002 12.1409 23.5045 10.808L25.1584 9.74573C25.3953 10.0263 25.7888 10.1322 26.1397 9.99381L28.4509 9.08207C28.8957 8.9066 29.115 8.40188 28.9395 7.95691L27.8831 5.27929C27.797 5.061 27.5502 4.95395 27.3321 5.04004C27.1138 5.12613 27.0067 5.37286 27.0928 5.59109L28.1491 8.26866C28.1527 8.27778 28.1482 8.28814 28.1391 8.29177L25.8279 9.20351C25.8187 9.20708 25.8084 9.20266 25.8048 9.19354C25.7239 8.98839 23.1297 2.41243 22.9003 1.83096C22.8994 1.82892 22.8976 1.82417 22.9005 1.81743C22.9035 1.81069 22.9083 1.80882 22.9103 1.80797L25.2215 0.896169C25.2235 0.89532 25.2282 0.89345 25.2351 0.896396C25.2418 0.899341 25.2437 0.904099 25.2445 0.906138L26.3644 3.74462C26.4505 3.96291 26.6972 4.06996 26.9154 3.98387C27.1337 3.89777 27.2408 3.65105 27.1547 3.43281L26.0349 0.594389C25.8595 0.149535 25.3547 -0.0696637 24.9098 0.105865L22.5985 1.01766C22.1856 1.18056 21.9675 1.62372 22.0783 2.04382L20.8393 2.50113C20.4538 2.64347 20.0352 2.68476 19.629 2.62036L18.3765 2.42184C18.1449 2.38519 17.9272 2.54327 17.8905 2.77488C17.8538 3.00659 18.0118 3.22426 18.2435 3.26096L19.496 3.45949C20.0456 3.54654 20.6117 3.49075 21.1336 3.29812L22.3838 2.83661C22.5195 3.18065 24.661 8.60895 24.8015 8.96517L22.9786 10.136L22.9477 10.1132C22.9476 10.113 22.9474 10.1129 22.9473 10.1129C22.752 9.96872 19.5824 7.62958 19.4336 7.51976C19.3425 7.45253 19.2294 7.42234 19.0992 7.44443C17.3394 7.74366 15.7627 7.11789 14.6028 5.90675C14.2418 5.52992 13.653 5.5097 13.262 5.86076C12.1367 6.87139 10.5642 7.85688 9.464 6.81124C9.35468 6.70742 9.35389 6.51564 9.5199 6.40847C10.9214 5.50693 12.3733 4.24107 13.5417 3.0591C13.8324 2.76485 14.2507 2.62806 14.6612 2.69314L16.2737 2.94876C16.5058 2.98552 16.723 2.82738 16.7597 2.59572C16.7964 2.36401 16.6384 2.14634 16.4066 2.10963L14.7941 1.85402C14.1142 1.74629 13.4202 1.97353 12.9375 2.46188C12.8023 2.59855 12.6425 2.75726 12.4623 2.93132C11.9183 2.73846 11.3513 2.62325 10.7746 2.59085C9.08649 2.49603 8.94007 2.47814 8.55673 2.50277C8.25586 2.52198 7.94977 2.47083 7.67138 2.35438L6.92271 2.0411C7.03078 1.62343 6.81311 1.17977 6.40179 1.01755L4.09058 0.105865C3.64555 -0.0697204 3.14089 0.149478 2.96541 0.594389L0.0608366 7.95691C-0.115032 8.40278 0.103317 8.90615 0.54936 9.08207ZM7.72412 12.5016C7.47518 12.7952 7.03378 12.8317 6.74005 12.5827C6.44438 12.332 6.41085 11.8913 6.65843 11.5993L7.70916 10.3661C7.95221 10.0793 8.3948 10.032 8.69323 10.285C8.98754 10.5345 9.0239 10.9747 8.77423 11.2691C8.77412 11.2692 8.77406 11.2693 8.77395 11.2694L7.72412 12.5016ZM9.43715 13.9542C9.18765 14.2485 8.74761 14.2848 8.45314 14.0352C8.15747 13.7845 8.12394 13.3439 8.37152 13.0519L9.42225 11.8186C9.6832 11.5107 10.1668 11.4838 10.458 11.7861C10.46 11.7881 10.4616 11.7903 10.4635 11.7924C10.7033 12.0474 10.719 12.4484 10.4873 12.7217L9.43715 13.9542ZM11.1502 15.4067C10.8998 15.7021 10.4593 15.7362 10.1662 15.4877C9.87056 15.2371 9.83697 14.7964 10.0845 14.5044L11.1353 13.2711C11.385 12.9768 11.828 12.9428 12.1194 13.1901C12.413 13.4391 12.4493 13.8805 12.2004 14.1742C12.2003 14.1743 12.2002 14.1744 12.2001 14.1745L11.1502 15.4067ZM13.9192 15.6192C13.9175 15.6214 13.9159 15.6238 13.9141 15.6259C13.7447 15.8248 13.2777 16.3729 12.8633 16.8592C12.6144 17.1529 12.173 17.1892 11.8793 16.9403C11.5856 16.6913 11.5493 16.2499 11.7976 15.957L12.8484 14.7236C13.0988 14.4283 13.5397 14.3943 13.8324 14.6426C14.1205 14.8868 14.1646 15.3224 13.9192 15.6192ZM6.61742 2.83452L7.34338 3.13828C7.74179 3.30497 8.18019 3.37844 8.61105 3.35074C8.93594 3.32984 9.0444 3.34468 10.7268 3.43921C11.0722 3.45864 11.4138 3.51211 11.7473 3.59888C10.9161 4.34948 9.98271 5.10183 9.04775 5.70222C8.44832 6.08704 8.35951 6.93393 8.87873 7.42738C9.58838 8.10168 11.1754 8.87686 13.8297 6.49304C13.8772 6.45033 13.9473 6.4509 13.989 6.49457C15.2747 7.8366 17.0972 8.58624 19.0653 8.30967C19.2883 8.46639 18.8565 8.15 22.4426 10.7966H22.4427C22.8265 11.0798 22.9338 11.6368 22.6334 12.0213C22.3479 12.3864 21.8322 12.4572 21.4596 12.1821C20.9562 11.8105 21.3278 12.0933 19.5581 10.7297C19.3721 10.5864 19.1055 10.621 18.9623 10.8069C18.8191 10.9927 18.8537 11.2594 19.0395 11.4027L20.5077 12.534C20.7607 12.8673 20.7306 13.3489 20.4311 13.6476C20.1367 13.9414 19.6521 13.9692 19.3038 13.7123C18.9671 13.4638 19.2468 13.6767 17.7025 12.4877C17.5166 12.3445 17.2498 12.3793 17.1067 12.5652C16.9636 12.7511 16.9983 13.0178 17.1841 13.1609L18.4861 14.1633C18.732 14.4813 18.7199 14.9387 18.4514 15.2431C18.1626 15.5706 17.6507 15.6162 17.2861 15.3471C16.7002 14.9147 16.9942 15.138 15.8658 14.2646C15.6803 14.121 15.4135 14.155 15.2699 14.3406C15.1263 14.5261 15.1603 14.7929 15.3458 14.9365L16.2484 15.635C16.4537 15.9618 16.4135 16.3898 16.1435 16.6722C15.8488 16.9805 15.3578 17.0146 15.0013 16.7515L14.4302 16.3301L14.5614 16.1761C14.823 15.8678 14.958 15.4684 14.9235 15.0482C14.8883 14.6225 14.6861 14.2527 14.3819 13.9946C14.0654 13.7263 13.6521 13.5888 13.2125 13.6365C13.1894 13.2261 13.0011 12.824 12.6688 12.5421C12.3535 12.2748 11.9533 12.1463 11.5408 12.18C11.527 12.1812 11.5132 12.1825 11.4996 12.184C11.4988 12.1704 11.4984 12.1568 11.4972 12.1431C11.4702 11.8147 11.3422 11.5105 11.1318 11.2651C11.1305 11.2635 11.1293 11.262 11.128 11.2605C10.7932 10.8732 10.2949 10.6776 9.78702 10.7322C9.76312 10.3056 9.56975 9.91446 9.24259 9.63703C8.59151 9.08507 7.61293 9.16562 7.06165 9.81585L6.42144 10.5673L6.04722 10.3043C6.04144 10.3002 6.03555 10.2962 6.02955 10.2925L4.14422 9.10343C5.56957 5.4905 5.03568 6.84381 6.61742 2.83452ZM0.851141 8.26877L3.75566 0.906251C3.75844 0.899227 3.76512 0.894979 3.7722 0.894979C3.77435 0.894979 3.77656 0.895376 3.77871 0.896226L6.08993 1.80802C6.09905 1.81159 6.10352 1.82196 6.09995 1.83102C5.96022 2.18525 3.28679 8.96188 3.19537 9.1936C3.19164 9.20283 3.18167 9.20719 3.17238 9.20356L0.861166 8.29177C0.85199 8.28814 0.847459 8.27789 0.851141 8.26877Z" fill="#5D94CE"/>
</svg>
