<svg width="25" height="26" viewBox="0 0 25 26" fill="none" xmlns="http://www.w3.org/2000/svg">
<path d="M23.6598 11.2854H15.8693C15.9444 11.1965 16.0238 11.1104 16.109 11.0275C16.9425 10.2164 17.5151 9.17517 17.7537 8.03691C17.9922 6.89866 17.8859 5.71512 17.4481 4.63765C17.0104 3.56018 16.2613 2.63775 15.2965 1.98834C14.3317 1.33892 13.1952 0.992035 12.0322 0.992035C10.8692 0.992035 9.73265 1.33892 8.76787 1.98834C7.8031 2.63775 7.05395 3.56018 6.61624 4.63765C6.17852 5.71512 6.07214 6.89866 6.31068 8.03691C6.54923 9.17517 7.12187 10.2164 7.95537 11.0275C8.04027 11.1104 8.1201 11.1963 8.19486 11.2854H3.72611C2.88807 11.2843 2.07422 11.5662 1.41631 12.0853C0.758403 12.6044 0.294963 13.3304 0.101026 14.1456C-0.0929119 14.9609 -0.0059937 15.8178 0.347707 16.5776C0.701408 17.3373 1.30118 17.9554 2.04993 18.3318C1.30118 18.7083 0.701408 19.3264 0.347707 20.0861C-0.0059937 20.8459 -0.0929119 21.7027 0.101026 22.518C0.294963 23.3333 0.758403 24.0593 1.41631 24.5784C2.07422 25.0975 2.88807 25.3793 3.72611 25.3783H23.6598C23.7667 25.3783 23.8692 25.3358 23.9447 25.2603C24.0203 25.1847 24.0628 25.0822 24.0628 24.9753V11.6884C24.0628 11.5815 24.0203 11.479 23.9447 11.4034C23.8692 11.3278 23.7667 11.2854 23.6598 11.2854ZM7.64818 20.2933V21.2983L7.36517 21.0146C7.32777 20.9771 7.28335 20.9474 7.23445 20.9271C7.18555 20.9068 7.13314 20.8964 7.08021 20.8964C7.02727 20.8964 6.97486 20.9068 6.92596 20.9271C6.87707 20.9474 6.83264 20.9771 6.79524 21.0146L6.51223 21.2973V20.2924L7.64818 20.2933ZM5.95496 22.6435C6.02868 22.6738 6.10969 22.6816 6.18784 22.6661C6.26599 22.6505 6.33782 22.6122 6.39433 22.556L7.08032 21.8703L7.76631 22.556C7.82263 22.6125 7.89442 22.6509 7.97261 22.6665C8.05079 22.6821 8.13184 22.6741 8.2055 22.6436C8.27915 22.6131 8.3421 22.5615 8.38636 22.4952C8.43063 22.4289 8.45422 22.3509 8.45415 22.2712V20.2933H23.2568V23.0106H3.72611C3.36578 23.0106 3.02021 22.8675 2.76541 22.6127C2.51062 22.3579 2.36748 22.0123 2.36748 21.652C2.36748 21.2916 2.51062 20.9461 2.76541 20.6913C3.02021 20.4365 3.36578 20.2933 3.72611 20.2933H5.70649V22.2712C5.70649 22.3508 5.73009 22.4287 5.77431 22.495C5.81853 22.5613 5.88139 22.613 5.95496 22.6435ZM3.72611 16.3687C3.36578 16.3687 3.02021 16.2256 2.76541 15.9708C2.51062 15.716 2.36748 15.3704 2.36748 15.0101C2.36748 14.6498 2.51062 14.3042 2.76541 14.0494C3.02021 13.7946 3.36578 13.6515 3.72611 13.6515H5.70649V15.6284C5.70644 15.7081 5.73005 15.7861 5.77432 15.8524C5.8186 15.9187 5.88156 15.9704 5.95522 16.0009C6.02889 16.0315 6.10996 16.0394 6.18816 16.0239C6.26637 16.0083 6.3382 15.9699 6.39456 15.9135L7.08124 15.2275L7.76724 15.9135C7.80463 15.9509 7.84904 15.9806 7.89792 16.0008C7.9468 16.021 7.99919 16.0314 8.05209 16.0314C8.105 16.0313 8.15739 16.021 8.20637 16.001C8.28 15.9704 8.34292 15.9187 8.38719 15.8524C8.43145 15.7861 8.45507 15.7081 8.45507 15.6284V13.6505H8.96951V16.3678L3.72611 16.3687ZM7.64818 13.6515V14.6566L7.36517 14.3736C7.28957 14.2981 7.18707 14.2557 7.08021 14.2557C6.97334 14.2557 6.87084 14.2981 6.79524 14.3736L6.51223 14.6566V13.6505L7.64818 13.6515ZM9.77548 14.6767H14.2912V16.3687H9.77548V14.6767ZM10.7544 8.87069H10.2777C10.1834 8.87074 10.0912 8.84281 10.0127 8.79045C9.93427 8.73808 9.87311 8.66363 9.83697 8.5765C9.80083 8.48938 9.79134 8.39349 9.8097 8.30097C9.82805 8.20846 9.87343 8.12346 9.9401 8.05673C10.0068 7.99 10.0917 7.94454 10.1842 7.92609C10.2767 7.90765 10.3726 7.91705 10.4598 7.9531C10.5469 7.98915 10.6214 8.05024 10.6739 8.12864C10.7263 8.20705 10.7543 8.29924 10.7544 8.39356V8.87069ZM12.5063 13.8707H11.5592V9.67666H12.5052L12.5063 13.8707ZM15.0972 14.2737V13.6505H23.2579V16.3678H15.096L15.0972 14.2737ZM13.5684 17.1752L13.3335 17.9289H10.7314L10.4976 17.1754L13.5684 17.1752ZM14.4123 17.1752H23.2579V17.9289H14.1772L14.4123 17.1752ZM23.2568 12.0913V12.8446H15.1409C15.1831 12.5852 15.2577 12.3321 15.3629 12.0913H23.2568ZM6.99235 6.83919C6.99214 6.00742 7.1978 5.18853 7.59098 4.45555C7.98416 3.72258 8.55265 3.09831 9.24572 2.63844C9.9388 2.17856 10.7349 1.89737 11.5631 1.81995C12.3912 1.74253 13.2257 1.87128 13.992 2.19473C14.7583 2.51817 15.4326 3.02626 15.9549 3.67365C16.4771 4.32105 16.831 5.08763 16.9849 5.90503C17.1389 6.72243 17.0882 7.56523 16.8372 8.35825C16.5863 9.15127 16.143 9.86986 15.5469 10.4499C15.2286 10.7594 14.9609 11.1168 14.7534 11.5092C14.7485 11.5186 14.7432 11.5279 14.7391 11.538C14.4751 12.0444 14.3249 12.6024 14.299 13.1729C14.2942 13.1977 14.2916 13.2228 14.2914 13.248C14.2914 13.2565 14.2935 13.2641 14.294 13.2724C14.294 13.2978 14.2901 13.3229 14.2901 13.3482V13.8711H13.3111V9.67666H13.7878C14.0415 9.6767 14.2896 9.60151 14.5006 9.46058C14.7116 9.31966 14.876 9.11933 14.9732 8.88493C15.0703 8.65054 15.0958 8.3926 15.0463 8.14374C14.9969 7.89488 14.8747 7.66627 14.6953 7.48682C14.516 7.30738 14.2874 7.18516 14.0385 7.13561C13.7897 7.08607 13.5318 7.11143 13.2973 7.20848C13.0629 7.30554 12.8625 7.46993 12.7215 7.68087C12.5805 7.89181 12.5052 8.13983 12.5052 8.39356V8.87069H11.5592V8.39356C11.5592 8.13983 11.4839 7.89181 11.3429 7.68087C11.2019 7.46993 11.0015 7.30554 10.767 7.20848C10.5326 7.11143 10.2747 7.08607 10.0258 7.13561C9.77698 7.18516 9.54842 7.30738 9.36904 7.48682C9.18966 7.66627 9.06752 7.89488 9.01806 8.14374C8.96861 8.3926 8.99406 8.65054 9.0912 8.88493C9.18834 9.11933 9.3528 9.31966 9.5638 9.46058C9.77479 9.60151 10.0228 9.6767 10.2766 9.67666H10.7532V13.8707H9.77548V13.3477C9.77548 13.3224 9.77202 13.2973 9.77156 13.272C9.77156 13.2637 9.7741 13.2561 9.7741 13.2476C9.77391 13.2224 9.77136 13.1972 9.7665 13.1725C9.74065 12.6019 9.59029 12.0439 9.32598 11.5375C9.32229 11.5283 9.31746 11.5198 9.31308 11.511C9.10539 11.1181 8.83731 10.7602 8.51863 10.4504C8.03392 9.98244 7.64884 9.42131 7.38655 8.80072C7.12426 8.18014 6.99018 7.51292 6.99235 6.83919ZM13.3111 8.87069V8.39356C13.3112 8.29924 13.3392 8.20705 13.3916 8.12864C13.4441 8.05024 13.5186 7.98915 13.6058 7.9531C13.6929 7.91705 13.7888 7.90765 13.8813 7.92609C13.9738 7.94454 14.0588 7.99 14.1254 8.05673C14.1921 8.12346 14.2375 8.20846 14.2558 8.30097C14.2742 8.39349 14.2647 8.48938 14.2286 8.5765C14.1924 8.66363 14.1313 8.73808 14.0528 8.79045C13.9744 8.84281 13.8821 8.87074 13.7878 8.87069H13.3111ZM0.807126 15.0099C0.80798 14.236 1.1158 13.4941 1.66305 12.9469C2.21029 12.3998 2.95225 12.0921 3.72611 12.0913H8.70009C8.80531 12.3321 8.87989 12.5852 8.92207 12.8446H3.72611C3.15202 12.8446 2.60145 13.0726 2.19551 13.4786C1.78957 13.8845 1.56151 14.4351 1.56151 15.0092C1.56151 15.5833 1.78957 16.1338 2.19551 16.5398C2.60145 16.9457 3.15202 17.1738 3.72611 17.1738H9.6532L9.88716 17.9289H3.72611C2.95223 17.9281 2.21029 17.6203 1.66312 17.073C1.11594 16.5257 0.808257 15.7837 0.807587 15.0099H0.807126ZM3.72611 24.5707C3.34288 24.5707 2.96339 24.4952 2.60933 24.3486C2.25527 24.2019 1.93355 23.987 1.66257 23.716C1.39158 23.445 1.17662 23.1233 1.02996 22.7692C0.883301 22.4151 0.807817 22.0357 0.807817 21.6524C0.807817 21.2692 0.883301 20.8897 1.02996 20.5356C1.17662 20.1816 1.39158 19.8599 1.66257 19.5889C1.93355 19.3179 2.25527 19.1029 2.60933 18.9563C2.96339 18.8096 3.34288 18.7341 3.72611 18.7341H23.2568V19.4874H3.72611C3.15202 19.4874 2.60145 19.7154 2.19551 20.1214C1.78957 20.5273 1.56151 21.0779 1.56151 21.652C1.56151 22.226 1.78957 22.7766 2.19551 23.1826C2.60145 23.5885 3.15202 23.8166 3.72611 23.8166H23.2568V24.5698L3.72611 24.5707Z" fill="#6FCF97"/>
</svg>
