<svg width="161" height="33" viewBox="0 0 161 33" fill="none" xmlns="http://www.w3.org/2000/svg">
<g clip-path="url(#clip0_149_569)">
<path d="M9.94956 31.3334C10.7374 30.9928 11.6894 30.5813 12.7251 30.0365C12.5685 29.7437 12.48 29.4111 12.48 29.0582C12.48 28.8619 12.5074 28.6719 12.5587 28.4914C10.3582 26.3529 8.17342 23.6066 6.9117 20.3355C5.9488 17.8393 5.55125 15.1751 5.46718 12.6623C5.3005 12.6173 5.14184 12.5536 4.99375 12.4736C4.48659 12.8156 4.00447 13.1576 3.54962 13.4936C2.08145 14.578 0.90683 15.5935 0.100745 16.3361C0.0664982 16.3677 0.0329064 16.3988 0 16.4293C0 16.4329 0 16.4365 0 16.4401C0 23.0667 4.03278 28.7775 9.84251 31.3797C9.87778 31.3644 9.91339 31.3491 9.94936 31.3334H9.94956Z" fill="#4896EC"/>
<path d="M11.813 32.1201C13.4215 32.6139 15.134 32.8802 16.9103 32.8802C17.2951 32.8802 17.6771 32.8678 18.0556 32.8431C17.3418 32.3831 16.455 31.7743 15.4871 31.0256C15.233 31.1262 14.9551 31.1816 14.6638 31.1816C14.4061 31.1816 14.1587 31.1382 13.9291 31.0585C13.172 31.4797 12.4567 31.8272 11.813 32.1201Z" fill="#4896EC"/>
<path d="M20.3818 32.5334C24.5518 31.6876 28.1581 29.3485 30.5819 26.1176C30.0799 25.3333 29.3071 24.2517 28.2101 23.031C27.3064 22.0251 26.1825 20.9246 24.8079 19.8177C24.4721 20.0223 24.075 20.1406 23.6495 20.1406H23.635H23.6271L23.62 20.1404C21.8619 24.4041 19.3272 27.2241 16.8462 29.1431C16.8333 29.4617 16.7483 29.7622 16.6064 30.0297C17.54 30.7422 18.3871 31.3149 19.0527 31.7382C19.5059 32.0263 19.8742 32.2447 20.1274 32.3901C20.233 32.4506 20.3184 32.4985 20.3818 32.5334Z" fill="#4896EC"/>
<path d="M31.482 24.7874C32.9681 22.3407 33.8208 19.4872 33.8208 16.4401C33.8208 12.9902 32.7278 9.78855 30.8601 7.1445C30.7585 7.12746 30.6488 7.1097 30.5314 7.09155C29.7146 6.96518 28.5218 6.81839 27.0334 6.74027C26.8195 6.72904 26.5996 6.71923 26.374 6.71112C26.2308 7.19859 25.913 7.61446 25.4904 7.89055C25.6021 10.477 25.4717 13.3634 24.8364 16.2347C25.4366 16.6131 25.8336 17.2701 25.8336 18.0173C25.8336 18.2446 25.7969 18.4636 25.7289 18.6687C27.185 19.8381 28.3775 21.004 29.3381 22.0731C30.2547 23.0932 30.9601 24.025 31.482 24.7874Z" fill="#4896EC"/>
<path d="M29.5208 5.48631C28.1842 4.0331 26.5859 2.81233 24.7979 1.89404C24.9264 2.58492 25.0525 3.35476 25.1628 4.18719C25.6501 4.39859 26.0431 4.77839 26.2635 5.25051C26.5562 5.2599 26.84 5.27204 27.1142 5.28642C28.027 5.33434 28.8348 5.4072 29.5208 5.48631Z" fill="#4896EC"/>
<path d="M23.1237 1.14525C23.2985 1.97134 23.483 2.96994 23.6395 4.09471C23.0141 4.27884 22.5074 4.72829 22.2578 5.30834C20.0331 5.4425 17.5317 5.76258 14.8623 6.39016C12.2458 7.00529 9.81011 8.01627 7.64698 9.16514C7.48142 8.99331 7.28684 8.84825 7.0708 8.73738C7.09821 8.41231 7.12946 8.0935 7.1638 7.78195C7.35917 6.00916 7.65233 4.48916 7.89637 3.41373C7.99104 2.99648 8.07819 2.64669 8.14915 2.37563C10.7043 0.868038 13.7031 0 16.9103 0C19.1041 0 21.2003 0.406123 23.1237 1.14525Z" fill="#4896EC"/>
<path d="M6.31933 3.62305C4.50308 5.04336 2.99506 6.82106 1.9082 8.84633C2.5716 8.96853 3.36654 9.13136 4.28654 9.34749L4.29924 9.35047C4.60828 8.94648 5.06152 8.65294 5.58493 8.54185C5.61189 8.23003 5.64211 7.92472 5.67495 7.62681C5.84754 6.0609 6.09359 4.68604 6.31933 3.62305Z" fill="#4896EC"/>
<path d="M1.25624 10.21C0.708835 11.5087 0.327441 12.8905 0.137695 14.3306C0.83819 13.7292 1.67981 13.0461 2.6434 12.3343C3.07395 12.0163 3.52964 11.6919 4.00871 11.3662C3.93336 11.1722 3.88639 10.9646 3.87274 10.7483C2.82299 10.5029 1.9473 10.3304 1.25624 10.21Z" fill="#4896EC"/>
<path d="M14.6641 26.935C15.33 26.935 15.9261 27.2246 16.3267 27.6814C18.5066 25.909 20.6684 23.3752 22.2202 19.6226C21.7582 19.2334 21.4658 18.6585 21.4658 18.0173C21.4658 17.841 21.4878 17.6697 21.5295 17.506C20.1492 16.6561 18.598 15.8414 16.8609 15.1055C13.3843 13.6326 10.3619 12.5757 7.85302 11.8189C7.63024 12.1335 7.32246 12.3868 6.96191 12.5475C7.03693 14.9572 7.41137 17.4842 8.31403 19.8244C9.44832 22.7649 11.4102 25.2833 13.4473 27.2949C13.795 27.0677 14.2137 26.935 14.6641 26.935Z" fill="#4896EC"/>
<path d="M23.3766 15.9106C23.9524 13.2991 24.0918 10.6529 24.0055 8.2345C23.1496 8.13254 22.4467 7.54912 22.1921 6.77136C20.0857 6.90627 17.7271 7.21462 15.2147 7.80531C12.7431 8.38637 10.4275 9.34693 8.35791 10.4468C10.9062 11.2179 13.9594 12.2881 17.4593 13.7708C19.2852 14.5443 20.916 15.4024 22.3675 16.2985C22.658 16.0933 23.0025 15.956 23.3766 15.9106Z" fill="#4896EC"/>
<path d="M153.611 19.6146C153.611 19.6146 153.591 17.9544 153.23 17.1829C152.9 16.4805 152.146 15.9742 151.367 15.8679C150.342 15.7288 149.507 16.0251 148.541 16.3627C148.36 16.4262 148.17 16.4862 147.979 16.5012C147.532 16.5362 147.159 16.2578 147.04 15.8302C146.934 15.4485 147.126 14.9845 147.503 14.8297C149.197 14.1337 150.61 13.8141 152.428 14.243C153.924 14.5963 155.134 15.8949 155.486 17.2974C155.644 17.927 155.696 18.8695 155.698 19.5125C155.703 21.6124 155.7 23.1054 155.699 25.2052C155.699 25.6684 155.471 26.001 155.062 26.1452C154.627 26.2987 154.278 26.1852 153.994 25.8682C153.83 25.6877 153.767 25.4743 153.767 25.2409C153.767 25.0289 153.767 24.6654 153.767 24.4528C153.746 24.4392 153.724 24.4256 153.703 24.4121C153.672 24.4606 153.646 24.5141 153.607 24.5562C152.766 25.4712 151.506 26.1855 150.245 26.289C149.519 26.3482 148.832 26.3116 148.141 26.0617C147.126 25.6956 146.271 24.7738 146.193 23.0313C146.156 22.2 146.554 21.3085 147.284 20.6827C148.085 19.9966 149.268 19.6146 150.324 19.6146C151.649 19.6146 153.611 19.6146 153.611 19.6146ZM153.611 22.1154L153.614 20.91C153.614 20.91 151.21 20.877 150.746 20.8975C150.212 20.9211 149.7 21.0402 149.243 21.315C148.59 21.7076 148.319 22.2843 148.384 23.0016C148.449 23.7175 148.921 24.7738 150.323 24.7738C151.048 24.7738 151.96 24.4708 152.428 24.0162C152.895 23.5616 153.597 22.9555 153.611 22.1154Z" fill="#4896EC"/>
<path d="M68.8281 19.6571C68.8281 19.6571 68.8077 17.997 68.4461 17.2254C68.117 16.5232 67.3625 16.0168 66.5827 15.9105C65.5575 15.7714 64.7237 16.0678 63.7574 16.4054C63.5763 16.4689 63.386 16.5288 63.1958 16.5438C62.7489 16.5788 62.3759 16.3004 62.2566 15.873C62.1502 15.4911 62.3419 15.0271 62.7195 14.8723C64.4135 14.1764 65.8269 13.8567 67.6439 14.2857C69.1402 14.6389 70.3507 15.9375 70.7025 17.3401C70.8603 17.9696 70.9124 18.9121 70.9138 19.5553C70.9192 21.655 70.9161 23.1481 70.9155 25.2478C70.9155 25.711 70.6867 26.0436 70.2783 26.1879C69.8427 26.3413 69.495 26.2278 69.2097 25.911C69.0466 25.7303 68.9832 25.5169 68.9832 25.2836C68.9832 25.0715 68.9832 24.7081 68.9832 24.4954C68.9621 24.4818 68.9401 24.4682 68.9191 24.4547C68.8874 24.5032 68.8624 24.5568 68.8239 24.5988C67.983 25.5138 66.7226 26.2282 65.4618 26.3316C64.7357 26.3908 64.0485 26.3542 63.3578 26.1044C62.3425 25.7383 61.4876 24.8165 61.4096 23.0739C61.3725 22.2428 61.7703 21.3512 62.5007 20.7254C63.3012 20.0393 64.4851 19.6571 65.5399 19.6571C66.8647 19.6571 68.8281 19.6571 68.8281 19.6571ZM68.8273 22.1581L68.8296 20.9526C68.8296 20.9526 66.4261 20.9196 65.9614 20.9401C65.4276 20.9637 64.9166 21.0829 64.4591 21.3578C63.8053 21.7502 63.5343 22.327 63.6 23.0443C63.665 23.7601 64.1371 24.8165 65.5398 24.8165C66.264 24.8165 67.1764 24.5134 67.6439 24.0588C68.1115 23.6042 68.8128 22.9982 68.8273 22.1581Z" fill="#003375"/>
<path d="M127.796 14.1839C128.785 14.1839 129.775 14.1818 130.764 14.1847C131.271 14.1861 131.699 14.3946 131.699 15.0007C131.699 15.6067 131.479 15.8446 130.764 15.8643C129.779 15.8912 127.81 15.8679 127.81 15.8679C127.81 15.8679 127.816 22.2737 127.81 22.7283C127.795 23.6772 128.575 24.3192 129.517 24.3192C130.062 24.3192 130.14 24.3192 130.608 24.3192C131.076 24.3192 131.699 24.395 131.699 25.3041C131.699 26.2132 130.608 26.1375 130.608 26.1375C130.608 26.1375 129.868 26.1456 129.049 26.1375C126.955 26.1162 125.622 24.6354 125.622 22.5009C125.62 19.3072 125.62 12.8918 125.622 9.69744C125.622 9.17062 125.865 8.81722 126.319 8.66785C126.786 8.51338 127.289 8.64454 127.572 8.99793C127.732 9.19686 127.797 9.42638 127.796 9.67777C127.791 11.1798 127.796 12.6819 127.796 14.1839Z" fill="#4896EC"/>
<path d="M113.659 20.3126C113.659 22.0059 113.659 23.5471 113.659 25.2404C113.659 25.6864 113.457 26.0165 113.037 26.1913C112.607 26.3706 112.193 26.3196 111.829 26.0202C111.574 25.8095 111.482 25.5261 111.482 25.2077C111.482 24.2729 111.482 23.4902 111.482 22.5553C111.482 20.1399 111.481 17.7252 111.482 15.3096C111.482 14.7507 111.766 14.377 112.284 14.2436C112.997 14.0593 113.654 14.5366 113.657 15.2521C113.663 16.9389 113.659 18.6257 113.659 20.3126Z" fill="#4896EC"/>
<path d="M101.705 19.1571C100.922 16.6285 100.139 14.0997 99.8852 13.2899C99.3789 11.6764 98.8763 10.0619 98.3643 8.45022C98.1474 7.76646 97.3754 7.4964 96.7489 7.87491C96.2936 8.1494 96.1341 8.58746 96.3019 9.12201C96.848 10.8665 97.3952 12.6101 97.9426 14.354L98.4757 16.0526C98.623 16.522 99.353 18.8854 100.054 21.1547C100.688 23.2087 101.455 25.1855 101.588 25.6106C101.683 25.9152 101.857 26.16 102.164 26.289C102.576 26.4614 103.08 26.4614 103.491 26.289C103.799 26.16 103.972 25.9152 104.068 25.6106C104.201 25.1855 104.967 23.2087 105.602 21.1547C106.303 18.8854 107.033 16.522 107.18 16.0526L107.713 14.354C108.26 12.6101 108.808 10.8665 109.354 9.12201C109.522 8.58746 109.362 8.1494 108.907 7.87491C108.28 7.4964 107.508 7.76646 107.291 8.45022C106.921 9.61615 106.556 10.7835 106.19 11.9509C106.05 12.3973 105.911 12.8436 105.771 13.2899C105.516 14.0997 104.734 16.6285 103.951 19.1571C103.553 20.4411 102.944 22.9355 102.828 22.9355C102.712 22.9355 102.102 20.4411 101.705 19.1571Z" fill="#4896EC"/>
<path d="M160.999 11.8087C160.999 13.15 160.999 23.9627 160.999 25.3041C160.999 25.6573 160.811 25.9188 160.421 26.0573C160.021 26.1993 159.636 26.1588 159.298 25.9217C159.06 25.7549 158.974 25.5304 158.974 25.2781C158.974 24.5376 158.974 14.3256 158.974 13.5852C158.974 11.6719 158.973 9.75916 158.974 7.84585C158.974 7.40317 159.239 7.10708 159.72 7.00146C160.383 6.85544 160.995 7.23349 160.997 7.80025C161.003 9.1364 160.999 10.4725 160.999 11.8087Z" fill="#4896EC"/>
<path d="M113.775 9.75245C113.767 10.4369 113.278 10.9201 112.603 10.9094C111.908 10.8988 111.429 10.4043 111.438 9.70733C111.445 9.09249 111.968 8.62996 112.649 8.63686C113.293 8.64312 113.783 9.12884 113.775 9.75245Z" fill="#4896EC"/>
<path d="M45.6854 9.71002C45.587 9.71002 45.5128 9.71002 45.4394 9.71002C43.6432 9.71002 43.5616 9.7115 41.7656 9.70855C41.2871 9.70782 40.8815 9.41643 40.7361 8.98302C40.5856 8.53563 40.7369 8.06617 41.1229 7.78803C41.3386 7.63203 41.5823 7.57611 41.8504 7.57611C45.1526 7.57905 46.7405 7.57757 50.0428 7.57757C49.3699 7.57757 50.5673 7.57611 51.7647 7.57832C52.3384 7.57905 52.8061 7.97861 52.872 8.51503C52.9379 9.04777 52.5927 9.54299 52.0493 9.67985C51.9358 9.70855 51.8124 9.70855 51.6935 9.70929C49.9292 9.71075 50.0352 9.71002 48.2701 9.71002C48.0242 9.71002 48.0234 9.71002 48.0234 9.9477C48.0234 15.0294 48.0219 19.9602 48.025 25.0419C48.025 25.515 47.8614 25.8969 47.4307 26.1362C46.6739 26.5563 45.7369 26.0515 45.6877 25.2038C45.6823 25.1119 45.6854 25.0199 45.6854 24.9278C45.6854 19.8947 45.6854 15.0132 45.6854 9.98008C45.6854 9.89765 45.6854 9.81377 45.6854 9.71002Z" fill="#003375"/>
<path d="M76.0445 15.7675C76.6947 15.1181 77.4209 14.5582 78.24 14.3195C79.5775 13.9297 81.0326 14.181 81.8423 14.6977C83.4649 15.7331 83.9983 17.2861 84.0026 19.1216C84.0078 21.1885 84.007 23.2546 84.0056 25.3214C84.0048 25.9243 83.5509 26.3592 82.9291 26.3643C82.3088 26.3701 81.8459 25.9402 81.8444 25.3353C81.8392 23.4989 81.8429 21.6099 81.8423 19.7735C81.8423 17.6523 80.8116 16.137 79.0972 16.0614C77.3827 15.9856 76.0416 17.2735 76.0416 19.0918C76.0416 20.91 76.0341 22.8051 76.052 25.2901C76.0579 26.1511 75.1465 26.613 74.4135 26.2268C74.1089 26.0661 73.9365 25.8094 73.8909 25.4748C73.8819 25.4094 73.8804 25.3418 73.8804 25.2755C73.8797 21.9427 73.8864 18.6097 73.876 15.2759C73.873 14.3632 74.815 13.9552 75.5041 14.3197C75.8468 14.5007 76.0341 14.7873 76.0439 15.1727C76.0483 15.3523 76.0445 15.5319 76.0445 15.7675Z" fill="#003375"/>
<path d="M90.5436 26.5156C89.1358 26.5354 87.8786 26.1189 86.7592 25.2933C86.3096 24.9614 86.0379 24.414 86.3362 23.9777C86.6465 23.5237 87.2254 23.5516 87.7197 23.8274C88.0747 24.0254 88.4214 24.2433 88.7937 24.4029C89.7051 24.7951 90.8093 24.8026 91.7833 24.495C92.4086 24.2978 92.8612 23.9165 92.9747 23.2448C93.0581 22.7525 92.9142 22.3242 92.4919 22.0491C92.1294 21.8135 91.7289 21.6179 91.3217 21.4655C90.617 21.202 89.8912 20.9917 89.1782 20.7481C88.6106 20.5546 88.0731 20.2992 87.5933 19.9417C86.5555 19.1683 86.3602 18.1197 86.52 16.8982C86.6872 15.6185 87.4714 14.7989 88.6726 14.3279C89.5346 13.9902 90.281 13.9423 91.1945 14.0093C92.1649 14.0807 93.0701 14.3581 93.9186 14.8201C94.4364 15.102 94.6187 15.4184 94.3788 15.8836C94.1305 16.3641 93.5568 16.5472 93.0361 16.3294C92.6031 16.1491 92.1718 15.9527 91.7206 15.8298C91.109 15.6627 90.4778 15.6296 89.8534 15.8062C89.0639 16.0293 88.6106 16.7701 88.6756 17.4972C88.715 17.9365 88.9822 18.2374 89.3394 18.4744C89.8405 18.807 90.4173 18.9711 90.9804 19.1683C91.797 19.4545 92.3104 19.7253 93.1066 20.0587C93.7394 20.3234 94.2676 20.7496 94.6203 21.3455C95.4787 22.7952 94.9435 24.8187 93.4812 25.7047C92.4844 26.3088 91.6948 26.503 90.5436 26.5156Z" fill="#003375"/>
<path d="M55.3592 15.7885C55.4064 15.7316 55.4536 15.6755 55.501 15.6187C56.4784 14.4463 57.6672 14.0157 58.2907 14.0157C58.9142 14.0157 59.0699 14.0157 59.4596 14.0157C59.8493 14.0157 60.3169 14.4703 60.3169 15.0007C60.3169 15.531 59.9271 15.9856 59.4596 15.9856C58.992 15.9856 58.5244 15.9856 58.2127 15.9856C57.9011 15.9856 57.1886 16.2887 56.4984 16.9705C55.8179 17.6425 55.471 18.6909 55.471 19.0012C55.4686 21.4297 55.467 22.6578 55.471 25.0863C55.4719 25.5335 55.2813 25.8767 54.8474 26.0894C54.1085 26.4517 53.1975 25.9781 53.1501 25.2137C53.1478 25.1714 53.1478 25.1285 53.1478 25.0863C53.1478 21.7718 53.147 18.6067 53.1478 15.2923C53.1478 14.7466 53.4704 14.3459 54.0172 14.2037C54.6953 14.0275 55.2655 14.4916 55.3072 15.1312C55.3176 15.4453 55.3087 15.6085 55.3087 15.771C55.3248 15.7767 55.3424 15.7826 55.3592 15.7885Z" fill="#003375"/>
<path d="M118.949 15.8643C118.996 15.8074 119.043 15.7513 119.09 15.6945C120.068 14.5221 121.257 14.0916 121.88 14.0916C122.503 14.0916 122.659 14.0916 123.049 14.0916C123.439 14.0916 123.906 14.5461 123.906 15.0765C123.906 15.6068 123.516 16.0614 123.049 16.0614C122.581 16.0614 122.114 16.0614 121.802 16.0614C121.49 16.0614 120.778 16.3645 120.088 17.0462C119.407 17.7183 119.06 18.7667 119.06 19.077C119.058 21.5053 119.056 22.7335 119.06 25.1619C119.061 25.6093 118.871 25.9525 118.437 26.1652C117.698 26.5273 116.787 26.0539 116.739 25.2895C116.737 25.2472 116.737 25.2042 116.737 25.1619C116.737 21.8476 116.736 18.6825 116.737 15.3681C116.737 14.8224 117.06 14.4217 117.607 14.2795C118.285 14.1032 118.855 14.5674 118.896 15.207C118.907 15.5211 118.898 15.6843 118.898 15.8467C118.914 15.8526 118.932 15.8584 118.949 15.8643Z" fill="#4896EC"/>
<path d="M133.726 15.1581C133.726 14.5993 134.01 14.2255 134.528 14.092C135.241 13.9077 135.899 14.385 135.9 15.1006C135.908 17.4412 135.907 20.3807 135.907 21.8197C135.907 23.2585 137.36 24.3955 138.868 24.3955C140.376 24.3955 141.83 23.3343 141.83 21.8191C141.83 20.3039 141.829 17.4794 141.83 15.1581C141.83 14.5993 142.115 14.2255 142.633 14.092C143.345 13.9077 144.002 14.385 144.005 15.1006C144.013 17.4412 144.012 18.4867 144.012 21.5165C144.012 24.5465 141.497 26.3653 138.868 26.3653C136.239 26.3653 133.725 24.2434 133.725 21.5165C133.725 18.7897 133.725 17.4797 133.726 15.1581Z" fill="#4896EC"/>
</g>
<defs>
<clipPath id="clip0_149_569">
<rect width="161" height="33" fill="white"/>
</clipPath>
</defs>
</svg>
