<svg width="30" height="23" viewBox="0 0 30 23" fill="none" xmlns="http://www.w3.org/2000/svg">
<path d="M26.4679 10.1796C25.4471 9.66928 23.5331 9.66336 23.4521 9.66336C23.2095 9.66336 23.0127 9.86012 23.0127 10.1028C23.0127 10.3455 23.2095 10.5423 23.4521 10.5423C23.946 10.5423 25.38 10.6184 26.0749 10.9658C26.138 10.9974 26.205 11.0122 26.271 11.0122C26.4322 11.0122 26.5874 10.9232 26.6644 10.7693C26.773 10.5522 26.685 10.2882 26.4679 10.1796Z" fill="#EB5757"/>
<path d="M28.6589 16.4363L26.844 15.9177C26.7656 15.8953 26.7109 15.8228 26.7109 15.7413V15.1355C26.8586 15.0332 26.9994 14.9187 27.1311 14.7909C27.7692 14.1717 28.1205 13.3411 28.1205 12.4521V11.6162L28.296 11.2653C28.4886 10.88 28.5904 10.4487 28.5904 10.018V7.75339C28.5904 7.51069 28.3937 7.31394 28.151 7.31394H23.9221C22.3843 7.31394 21.1332 8.56503 21.1332 10.1028V10.129C21.1332 10.4871 21.2179 10.8457 21.378 11.166L21.6031 11.6161V12.3339C21.6031 13.4714 22.1637 14.4921 23.0128 15.1063L23.0129 15.7412C23.0129 15.8391 23.0129 15.8796 22.65 15.9834L21.7644 16.2364L19.2026 15.3048C19.2118 15.184 19.1711 15.061 19.0829 14.9684L18.2643 14.1084V12.6646C18.3508 12.5933 18.4361 12.52 18.5188 12.4426C19.5515 11.4746 20.1438 10.108 20.1438 8.69312V7.54011C20.4556 6.86153 20.6136 6.14347 20.6136 5.40396V0.705322C20.6136 0.462627 20.4169 0.265869 20.1742 0.265869H13.5959C11.2809 0.265869 9.3975 2.14931 9.3975 4.46429V5.40407C9.3975 6.14358 9.55553 6.86165 9.86736 7.54022V8.53228C9.86736 10.175 10.5978 11.655 11.7469 12.6307V14.1084L10.9283 14.9684C10.8401 15.0611 10.7993 15.184 10.8085 15.3049L8.10469 16.288C7.90875 16.3593 7.7267 16.4558 7.56141 16.5727L7.13684 16.3604C8.4007 15.8103 8.80107 15.0365 8.82029 14.9981C8.88217 14.8744 8.88217 14.7287 8.82029 14.605C8.50348 13.9714 8.4651 12.81 8.43428 11.8769C8.42402 11.5662 8.4143 11.2727 8.39572 11.0114C8.2459 8.90353 6.64348 7.31394 4.66828 7.31394C2.69309 7.31394 1.09061 8.90347 0.94084 11.0114C0.922266 11.2728 0.912539 11.5663 0.902285 11.877C0.871465 12.8101 0.833027 13.9714 0.51627 14.605C0.454395 14.7287 0.454395 14.8743 0.51627 14.998C0.535488 15.0365 0.935039 15.8086 2.20143 16.3594L1.02211 16.949C0.391641 17.2645 0 17.8982 0 18.603V21.8496C0 22.0923 0.196758 22.2891 0.439453 22.2891C0.682148 22.2891 0.878906 22.0923 0.878906 21.8496V18.603C0.878906 18.2332 1.08439 17.9007 1.41516 17.7352L2.88369 17.001L3.39451 17.4865C3.7517 17.8259 4.2099 17.9955 4.66828 17.9955C5.12654 17.9955 5.58498 17.8258 5.94205 17.4865L6.45281 17.0011L6.93164 17.2405C6.70617 17.6012 6.5782 18.0243 6.5782 18.4674V21.8498C6.5782 22.0925 6.77496 22.2892 7.01766 22.2892C7.26035 22.2892 7.45711 22.0925 7.45711 21.8498V18.4674C7.45711 17.8642 7.83803 17.3203 8.40504 17.1141L11.2557 16.0775L12.4424 17.8576C12.5941 18.0852 12.8372 18.2312 13.1094 18.2581C13.1398 18.2611 13.1699 18.2626 13.2001 18.2626C13.4402 18.2626 13.6702 18.1681 13.8421 17.9962L14.5661 17.2722V21.8498C14.5661 22.0925 14.7628 22.2893 15.0055 22.2893C15.2482 22.2893 15.445 22.0925 15.445 21.8498V17.2722L16.1689 17.9962C16.3408 18.1681 16.5708 18.2626 16.811 18.2626C16.841 18.2626 16.8713 18.2612 16.9015 18.2582C17.1738 18.2312 17.4169 18.0853 17.5686 17.8577L18.7553 16.0776L21.606 17.1142C22.1729 17.3204 22.5539 17.8643 22.5539 18.4675V21.8499C22.5539 22.0926 22.7507 22.2893 22.9934 22.2893C23.2361 22.2893 23.4328 22.0926 23.4328 21.8499V18.4675C23.4328 17.8565 23.1901 17.2835 22.7828 16.8597L22.8914 16.8287C23.0009 16.7974 23.1503 16.7546 23.3003 16.681L24.4223 17.803V21.8499C24.4223 22.0926 24.6191 22.2893 24.8618 22.2893C25.1045 22.2893 25.3013 22.0926 25.3013 21.8499V17.803L26.4155 16.6888C26.4747 16.7189 26.5369 16.7444 26.6024 16.7631L28.4174 17.2816C28.8317 17.4 29.1211 17.7836 29.1211 18.2145V21.8499C29.1211 22.0926 29.3179 22.2893 29.5605 22.2893C29.8032 22.2893 30 22.0926 30 21.8499V18.2145C30 17.3931 29.4485 16.6619 28.6589 16.4363ZM2.81924 15.6601C1.99723 15.3643 1.5849 14.97 1.40889 14.7546C1.52889 14.4409 1.6067 14.0816 1.65937 13.7024C1.90172 14.2834 2.3076 14.7795 2.81924 15.1334V15.6601ZM5.33672 16.8494C4.96189 17.2056 4.37473 17.2055 4.00002 16.8494L3.59133 16.461C3.66029 16.3318 3.6982 16.1853 3.6982 16.0319V15.5635C4.00477 15.6593 4.33066 15.7109 4.6684 15.7109C5.00572 15.7109 5.33145 15.659 5.63854 15.5638L5.63848 16.0318C5.63848 16.1853 5.67633 16.3319 5.74535 16.4611L5.33672 16.8494ZM4.66852 14.832C3.35625 14.832 2.28873 13.7645 2.28873 12.4523C2.28873 12.2096 2.09197 12.0128 1.84928 12.0128C1.82467 12.0128 1.80064 12.0153 1.77715 12.0192C1.77844 11.9815 1.77967 11.9436 1.78096 11.9062C1.79074 11.604 1.80018 11.3186 1.81758 11.0738C1.87371 10.2842 2.18924 9.55655 2.70604 9.02487C3.22746 8.48839 3.92438 8.19296 4.6684 8.19296C5.41242 8.19296 6.10928 8.48839 6.63076 9.02487C7.14756 9.55655 7.46309 10.2842 7.51922 11.0738C7.53656 11.3185 7.54605 11.6039 7.55602 11.906C7.55689 11.9319 7.55777 11.9583 7.55865 11.9844C7.08053 11.2477 6.34213 10.7049 5.38805 10.3983C4.50662 10.1151 3.74854 10.1326 3.71654 10.1335C3.60146 10.1367 3.49225 10.1849 3.41238 10.2677L2.61949 11.09C2.45104 11.2647 2.45607 11.5429 2.6308 11.7114C2.80553 11.8799 3.08373 11.8748 3.25219 11.7001L3.91195 11.0159C4.48014 11.0437 6.30809 11.2562 7.019 12.8217C6.84012 13.9753 5.84859 14.832 4.66852 14.832ZM6.51732 15.6616L6.51738 15.1374C7.02861 14.7855 7.43508 14.2903 7.6776 13.7049C7.73027 14.0833 7.80803 14.4417 7.92779 14.7548C7.75277 14.968 7.33852 15.3659 6.51732 15.6616ZM10.7463 8.53222V7.4419C10.7463 7.37575 10.7313 7.31042 10.7026 7.25083C10.4198 6.66524 10.2764 6.04392 10.2764 5.40407V4.46435C10.2764 2.63394 11.7656 1.14483 13.5959 1.14483H19.7347V5.40413C19.7347 6.04398 19.5913 6.6653 19.3086 7.25089C19.2798 7.31048 19.2649 7.37581 19.2649 7.44196V8.69323C19.2649 9.88333 18.7864 10.9872 17.9177 11.8015C17.8093 11.9031 17.6967 11.9983 17.5804 12.0871C17.5778 12.0889 17.5753 12.0908 17.5728 12.0926C16.759 12.7105 15.7622 13.0108 14.7212 12.9433C12.4922 12.799 10.7463 10.8614 10.7463 8.53222ZM13.2206 17.3747C13.2176 17.3777 13.2105 17.3849 13.1961 17.3834C13.1818 17.382 13.1762 17.3736 13.1738 17.37L11.8071 15.3199L12.2469 14.8578L14.3203 16.275L13.2206 17.3747ZM15.0056 15.6788L12.6258 14.0521V13.2318C13.2415 13.5647 13.931 13.7728 14.6643 13.8203C14.7802 13.8278 14.8953 13.8315 15.0101 13.8315C15.8504 13.8315 16.6591 13.6306 17.3854 13.2494V14.0521L15.0056 15.6788ZM16.8373 17.3701C16.8349 17.3737 16.8293 17.3821 16.815 17.3835C16.8006 17.3853 16.7936 17.3778 16.7905 17.3748L15.6909 16.2751L17.7642 14.8579L18.2041 15.32L16.8373 17.3701ZM24.8618 16.9993L23.8645 16.0021C23.8819 15.9231 23.8918 15.8365 23.8917 15.7411L23.8917 15.5556C24.1684 15.6464 24.4601 15.7003 24.7619 15.7094C24.7958 15.7104 24.8293 15.7109 24.8631 15.7109C25.1966 15.7109 25.5221 15.6605 25.832 15.5643V15.7413C25.832 15.829 25.843 15.9149 25.8637 15.9974L24.8618 16.9993ZM26.519 14.1602C26.0532 14.6122 25.4379 14.8509 24.7883 14.8309C23.5166 14.7927 22.482 13.6726 22.482 12.334V11.5125C22.482 11.4442 22.4661 11.3769 22.4356 11.3159L22.1641 10.773C22.0647 10.5741 22.0121 10.3514 22.0121 10.129V10.1028C22.0121 9.04966 22.869 8.1929 23.9221 8.1929H27.7115V10.0181C27.7115 10.3131 27.6418 10.6084 27.5099 10.8723L27.288 11.3159C27.2575 11.377 27.2416 11.4442 27.2416 11.5125V12.4522C27.2416 13.1014 26.985 13.708 26.519 14.1602Z" fill="#EB5757"/>
<path d="M27.6812 18.5909C27.4385 18.5909 27.2417 18.7877 27.2417 19.0304V21.8496C27.2417 22.0923 27.4385 22.2891 27.6812 22.2891C27.9238 22.2891 28.1206 22.0923 28.1206 21.8496V19.0304C28.1206 18.7878 27.9238 18.5909 27.6812 18.5909Z" fill="#EB5757"/>
<path d="M2.31885 19.1719C2.07615 19.1719 1.87939 19.3687 1.87939 19.6114V21.8497C1.87939 22.0924 2.07615 22.2892 2.31885 22.2892C2.56154 22.2892 2.7583 22.0924 2.7583 21.8497V19.6114C2.7583 19.3687 2.56154 19.1719 2.31885 19.1719Z" fill="#EB5757"/>
<path d="M18.6053 5.56323C16.9432 3.90116 13.4657 4.21892 12.0477 4.43267C11.601 4.49999 11.2769 4.87798 11.2769 5.33144V6.34382C11.2769 6.58651 11.4736 6.78327 11.7163 6.78327C11.959 6.78327 12.1558 6.58651 12.1558 6.34382V5.33138C12.1558 5.31644 12.1656 5.30366 12.1787 5.30167C12.7452 5.2163 13.8692 5.08458 15.0337 5.16222C16.4041 5.25345 17.3967 5.59745 17.9838 6.18468C18.1555 6.3563 18.4337 6.3563 18.6053 6.18468C18.7769 6.01306 18.7769 5.7348 18.6053 5.56323Z" fill="#EB5757"/>
<path d="M9.83691 19.5308C9.59422 19.5308 9.39746 19.7276 9.39746 19.9702V21.8498C9.39746 22.0925 9.59422 22.2892 9.83691 22.2892C10.0796 22.2892 10.2764 22.0925 10.2764 21.8498V19.9702C10.2764 19.7276 10.0796 19.5308 9.83691 19.5308Z" fill="#EB5757"/>
<path d="M20.1741 19.5308C19.9314 19.5308 19.7346 19.7276 19.7346 19.9702V21.8498C19.7346 22.0925 19.9314 22.2892 20.1741 22.2892C20.4168 22.2892 20.6135 22.0925 20.6135 21.8498V19.9702C20.6135 19.7276 20.4168 19.5308 20.1741 19.5308Z" fill="#EB5757"/>
</svg>
