<svg width="17" height="16" viewBox="0 0 17 16" fill="none" xmlns="http://www.w3.org/2000/svg">
<path d="M16.2777 13.3047L14.0219 15.5424C13.6889 15.8839 13.2475 15.9996 12.8176 16.0001C10.9167 15.9432 9.11987 15.0094 7.64456 14.0506C5.22294 12.2889 3.00099 10.1044 1.60646 7.46455C1.0716 6.35757 0.444029 4.94516 0.503989 3.70957C0.509336 3.24477 0.634589 2.7886 0.961936 2.489L3.21775 0.23432C3.68618 -0.16412 4.13918 -0.0263598 4.43894 0.437747L6.25375 3.87911C6.44476 4.2868 6.33519 4.72363 6.0502 5.01495L5.21911 5.84561C5.1678 5.91589 5.13514 5.99589 5.13431 6.08296C5.453 7.31659 6.41848 8.45361 7.27139 9.23611C8.12428 10.0186 9.04106 11.0787 10.2311 11.3297C10.3782 11.3707 10.5583 11.3852 10.6636 11.2873L11.6304 10.3041C11.9637 10.0515 12.4449 9.92803 12.8007 10.1346H12.8176L16.0911 12.0671C16.5716 12.3684 16.6217 12.9505 16.2777 13.3047Z" fill="#E88645"/>
</svg>
