<svg width="20" height="20" viewBox="0 0 20 20" fill="none" xmlns="http://www.w3.org/2000/svg">
<path d="M13.8591 10.9425C13.8121 10.9908 13.6343 11.1975 13.4687 11.3675C12.4977 12.4367 9.96485 14.1867 8.63915 14.7208C8.43781 14.8067 7.9288 14.9883 7.65684 15C7.39625 15 7.14783 14.94 6.91078 14.8183C6.61528 14.6483 6.37823 14.3808 6.24834 14.065C6.16472 13.8458 6.03483 13.19 6.03483 13.1783C5.90494 12.4608 5.8335 11.295 5.8335 10.0067C5.8335 8.77917 5.90494 7.66083 6.01128 6.9325C6.02346 6.92083 6.15335 6.10583 6.29542 5.82667C6.55602 5.31667 7.06503 5 7.60976 5H7.65684C8.01161 5.0125 8.75767 5.32917 8.75767 5.34083C10.0119 5.87583 12.4864 7.54 13.4808 8.64583C13.4808 8.64583 13.7609 8.93 13.8827 9.1075C14.0727 9.3625 14.1668 9.67833 14.1668 9.99417C14.1668 10.3467 14.0605 10.675 13.8591 10.9425" fill="#DA5D03"/>
</svg>
