<svg width="28" height="28" viewBox="0 0 28 28" fill="none" xmlns="http://www.w3.org/2000/svg">
<g clip-path="url(#clip0_5_1189)">
<path d="M22.7231 24.3871L21.6776 21.2502C21.3123 20.155 20.3801 19.3467 19.2439 19.1398L16.2257 18.5907V18.3567C16.751 18.0519 17.208 17.6441 17.572 17.1613H18.4838C19.2308 17.1613 19.8387 16.5534 19.8387 15.8065V10.3871C19.8387 7.14995 17.2048 4.51614 13.9677 4.51614C10.7305 4.51614 8.09671 7.14995 8.09671 10.3871V13.5484C8.09671 14.4191 8.71588 15.1476 9.53691 15.3174C9.79026 16.6153 10.6014 17.7136 11.7096 18.3567V18.5907L8.69104 19.1398C7.55523 19.3467 6.62265 20.155 6.25775 21.2502L6.0771 21.7926L4.53891 20.2544C4.36278 20.0783 4.36278 19.7915 4.53891 19.6154L6.32278 17.832L2.97452 14.4837L0.958521 16.4997C0.361489 17.0967 0.0327148 17.8907 0.0327148 18.7352C0.0327148 19.5797 0.361489 20.3732 0.958521 20.9702L7.06207 27.0738C7.6591 27.6708 8.45304 28 9.29755 28C10.1421 28 10.9356 27.6708 11.5186 27.0873L13.7184 25.0718L13.0324 24.3871H22.7231ZM18.9354 15.8065C18.9354 16.0558 18.7327 16.2581 18.4838 16.2581H18.104C18.235 15.9596 18.3343 15.6448 18.3985 15.3174C18.5917 15.2772 18.7697 15.2004 18.9354 15.1038V15.8065ZM18.4838 14.3261V12.7707C18.7525 12.9274 18.9354 13.2156 18.9354 13.5484C18.9354 13.8812 18.7525 14.1694 18.4838 14.3261ZM9.45155 14.3261C9.18284 14.1694 8.99994 13.8812 8.99994 13.5484C8.99994 13.2156 9.18284 12.9274 9.45155 12.7707V14.3261ZM9.45155 11.2903V11.8061C9.29078 11.8481 9.13994 11.9113 8.99994 11.993V10.3871C8.99994 7.64808 11.2286 5.41937 13.9677 5.41937C16.7067 5.41937 18.9354 7.64808 18.9354 10.3871V11.993C18.7954 11.9113 18.6446 11.8476 18.4838 11.8061V11.2903H18.0322C16.6968 11.2903 15.4413 10.7701 14.4965 9.82576L13.9677 9.29692L13.4388 9.82576C12.4941 10.7701 11.2386 11.2903 9.90317 11.2903H9.45155ZM10.3548 14.4516V12.1764C11.711 12.0743 12.9755 11.5148 13.9677 10.5714C14.9599 11.5148 16.2244 12.0748 17.5806 12.1764V14.4516C17.5806 15.1101 17.4008 15.7261 17.0919 16.2581H13.9677V17.1613H16.3495C15.7127 17.7218 14.8804 18.0645 13.9677 18.0645C11.9756 18.0645 10.3548 16.4437 10.3548 14.4516ZM15.3225 18.7596V18.7808L13.9677 20.1356L12.6128 18.7808V18.7596C13.041 18.8941 13.4957 18.9678 13.9677 18.9678C14.4396 18.9678 14.8944 18.8941 15.3225 18.7596ZM7.114 21.5356C7.37459 20.7534 8.04071 20.1758 8.85226 20.0277L12.009 19.4541L13.9677 21.4128L15.9259 19.4546L19.0822 20.0281C19.8937 20.1763 20.5599 20.7534 20.8205 21.5361L21.4703 23.4839H12.1292L10.3701 21.7249L8.41555 23.4929C8.2453 23.6641 7.94768 23.6641 7.77697 23.4929L6.79065 22.5066L7.114 21.5356ZM2.97407 15.7609L5.04517 17.832L4.55471 18.3224L2.48362 16.2513L2.97407 15.7609ZM10.8931 26.4361C10.4668 26.8615 9.89955 27.0968 9.29665 27.0968C8.69375 27.0968 8.12652 26.8615 7.69975 26.4352L1.5962 20.3321C1.16988 19.9058 0.935037 19.3385 0.935037 18.7356C0.935037 18.1323 1.16988 17.565 1.5962 17.1387L1.84459 16.8903L3.91568 18.9614L3.89942 18.9777C3.37149 19.5061 3.37149 20.3655 3.89942 20.8939L7.13794 24.1324C7.394 24.388 7.73407 24.5294 8.09626 24.5294C8.45846 24.5294 8.79852 24.3885 9.03788 24.1482L9.07175 24.1179L11.1523 26.1985L10.8931 26.4361ZM11.8189 25.587L9.74284 23.511L10.3394 22.9718L12.4119 25.0442L11.8189 25.587Z" fill="#F2C94C"/>
<path d="M26.613 0H20.2904C19.5434 0 18.9355 0.607871 18.9355 1.35484V4.96774C18.9355 5.71471 19.5434 6.32258 20.2904 6.32258H21.4966L21.0297 9.04626L25.3877 6.32258H26.613C27.3599 6.32258 27.9678 5.71471 27.9678 4.96774V1.35484C27.9678 0.607871 27.3599 0 26.613 0ZM27.0646 4.96774C27.0646 5.21658 26.8618 5.41936 26.613 5.41936H25.1285L22.2603 7.21181L22.5679 5.41936H20.2904C20.0415 5.41936 19.8388 5.21658 19.8388 4.96774V1.35484C19.8388 1.106 20.0415 0.903226 20.2904 0.903226H26.613C26.8618 0.903226 27.0646 1.106 27.0646 1.35484V4.96774Z" fill="#F2C94C"/>
<path d="M26.1613 1.80646H20.7419V2.70968H26.1613V1.80646Z" fill="#F2C94C"/>
<path d="M24.3548 3.61292H20.7419V4.51614H24.3548V3.61292Z" fill="#F2C94C"/>
<path d="M26.1613 3.61292H25.2581V4.51614H26.1613V3.61292Z" fill="#F2C94C"/>
<path d="M13.9676 1.35483C8.06687 1.35483 2.98397 5.43651 1.66255 11.13L0.806743 9.70334L0.0322266 10.1681L1.61965 12.8132L4.26474 11.2257L3.80003 10.4512L2.57616 11.1855C3.85603 5.97709 8.53971 2.25805 13.9676 2.25805C15.154 2.25805 16.3246 2.43418 17.4469 2.78192L17.7142 1.91934C16.5053 1.54451 15.2448 1.35483 13.9676 1.35483Z" fill="#F2C94C"/>
<path d="M27.7483 9.99962L25.1032 8.4122L23.5162 11.0577L24.2908 11.5225L25.0811 10.2051C25.497 11.4222 25.7097 12.6953 25.7097 14C25.7097 16.6857 24.7794 19.3114 23.0908 21.3929L23.7922 21.9619C25.6113 19.7201 26.6129 16.8921 26.6129 14C26.6129 12.6185 26.3903 11.2696 25.9563 9.97794L27.2836 10.7741L27.7483 9.99962Z" fill="#F2C94C"/>
</g>
<defs>
<clipPath id="clip0_5_1189">
<rect width="28" height="28" fill="white"/>
</clipPath>
</defs>
</svg>
