<svg width="32" height="32" viewBox="0 0 32 32" fill="none" xmlns="http://www.w3.org/2000/svg">
<path d="M8.54758 12.9444C8.54758 12.8287 8.50159 12.7176 8.41973 12.6358C8.33786 12.5539 8.22684 12.5079 8.11107 12.5079C7.9953 12.5079 7.88427 12.5539 7.80241 12.6358C7.72055 12.7176 7.67456 12.8287 7.67456 12.9444V13.381C7.67456 13.4967 7.72055 13.6077 7.80241 13.6896C7.88427 13.7715 7.9953 13.8175 8.11107 13.8175C8.22684 13.8175 8.33786 13.7715 8.41973 13.6896C8.50159 13.6077 8.54758 13.4967 8.54758 13.381V12.9444Z" fill="#F2C94C"/>
<path d="M11.6031 13.8175C11.7189 13.8175 11.8299 13.7715 11.9118 13.6896C11.9937 13.6077 12.0396 13.4967 12.0396 13.381V12.9444C12.0396 12.8287 11.9937 12.7176 11.9118 12.6358C11.8299 12.5539 11.7189 12.5079 11.6031 12.5079C11.4874 12.5079 11.3763 12.5539 11.2945 12.6358C11.2126 12.7176 11.1666 12.8287 11.1666 12.9444V13.381C11.1666 13.4967 11.2126 13.6077 11.2945 13.6896C11.3763 13.7715 11.4874 13.8175 11.6031 13.8175Z" fill="#F2C94C"/>
<path d="M15.9683 29.0952H11.6032V27.8058C11.604 26.8683 11.3309 25.951 10.8175 25.1667L11.2252 24.5555C11.3374 24.5947 11.4555 24.6149 11.5744 24.6153C11.7087 24.6154 11.8419 24.5905 11.9672 24.542C12.1446 24.4752 12.3012 24.3628 12.4212 24.2161C12.5412 24.0694 12.6204 23.8936 12.6508 23.7065L12.7896 22.8746L13.6906 23.2753C14.258 23.5266 14.7786 23.8726 15.2301 24.2984C15.3143 24.378 15.4267 24.4208 15.5425 24.4175C15.6583 24.4142 15.768 24.365 15.8476 24.2808C15.9271 24.1965 15.9699 24.0842 15.9666 23.9684C15.9633 23.8526 15.9141 23.7429 15.8299 23.6633C15.3071 23.1701 14.7045 22.7691 14.0476 22.4773L11.6032 21.3909V20.0595C12.5529 19.7228 13.3855 19.1198 14.0016 18.3225C14.6177 17.5252 14.9911 16.5674 15.0773 15.5635H15.0952C15.3494 15.5635 15.6005 15.508 15.831 15.4009C16.0615 15.2938 16.2658 15.1377 16.4297 14.9434C16.5936 14.7492 16.7131 14.5215 16.7799 14.2763C16.8467 14.0311 16.8592 13.7742 16.8164 13.5237L16.8186 13.5189L17.4153 11.7292C17.6136 11.1359 17.7146 10.5144 17.7143 9.88888C17.7143 7.80504 16.8865 5.80654 15.413 4.33304C13.9395 2.85954 11.941 2.03174 9.85714 2.03174C7.7733 2.03174 5.7748 2.85954 4.3013 4.33304C2.8278 5.80654 2 7.80504 2 9.88888C1.99975 10.514 2.10072 11.135 2.29901 11.7279L2.89571 13.5176V13.5219C2.85264 13.7728 2.86492 14.03 2.9317 14.2756C2.99849 14.5212 3.11816 14.7492 3.28233 14.9437C3.4465 15.1382 3.65121 15.2944 3.88211 15.4015C4.11302 15.5086 4.36453 15.5638 4.61905 15.5635H4.63694C4.72314 16.5674 5.09661 17.5252 5.71269 18.3225C6.32878 19.1198 7.16143 19.7228 8.11111 20.0595V21.3909L5.66667 22.4769C4.65136 22.9085 3.77388 23.6103 3.12969 24.5059C2.48551 25.4015 2.0993 26.4567 2.0131 27.5565C2.0048 27.691 2 27.8263 2 27.9616V29.5317C2 29.6475 2.04599 29.7585 2.12785 29.8404C2.20971 29.9223 2.32074 29.9682 2.43651 29.9682H15.9683C16.084 29.9682 16.1951 29.9223 16.2769 29.8404C16.3588 29.7585 16.4048 29.6475 16.4048 29.5317C16.4048 29.416 16.3588 29.3049 16.2769 29.2231C16.1951 29.1412 16.084 29.0952 15.9683 29.0952ZM8.45071 22.1954L9.20238 22.9479L8.26869 23.6956C8.23951 23.7189 8.20477 23.7342 8.16789 23.74C8.13101 23.7458 8.09326 23.7419 8.05834 23.7287C8.02342 23.7155 7.99254 23.6934 7.96873 23.6647C7.94493 23.6359 7.92901 23.6014 7.92254 23.5647L7.74794 22.5101L8.45071 22.1954ZM9.85714 23.5433L10.5058 24.0619L10.0601 24.7302H9.65417L9.20849 24.0619L9.85714 23.5433ZM9.64806 25.6123L9.65417 25.6032H10.0601L10.0662 25.6123C10.4999 26.2616 10.7309 27.025 10.7302 27.8058V29.0952H8.98413V27.8058C8.98334 27.025 9.21441 26.2616 9.64806 25.6123ZM11.7917 23.5629C11.7853 23.5997 11.7694 23.6341 11.7456 23.6629C11.7217 23.6917 11.6909 23.7137 11.6559 23.7269C11.621 23.7401 11.5833 23.744 11.5464 23.7382C11.5095 23.7325 11.4748 23.7172 11.4456 23.6939L10.5119 22.9479L11.2649 22.1954L11.969 22.5083L11.7917 23.5629ZM2.87302 9.88888C2.87302 8.03658 3.60884 6.26014 4.91862 4.95036C6.2284 3.64058 8.00484 2.90475 9.85714 2.90475C11.7094 2.90475 13.4859 3.64058 14.7957 4.95036C16.1054 6.26014 16.8413 8.03658 16.8413 9.88888C16.8415 10.4203 16.7558 10.9483 16.5877 11.4525L16.2385 12.5001C16.0349 12.3225 15.793 12.1946 15.5317 12.1264V8.57936C15.5318 8.50494 15.5128 8.43176 15.4766 8.36675C15.4404 8.30174 15.3881 8.24706 15.3249 8.20792C15.2616 8.16878 15.1893 8.14646 15.115 8.14309C15.0407 8.13973 14.9667 8.15542 14.9001 8.18868C13.3332 8.96772 11.6071 9.37314 9.85714 9.37314C8.10723 9.37314 6.38111 8.96772 4.81417 8.18868C4.7476 8.15542 4.67364 8.13973 4.5993 8.14309C4.52496 8.14646 4.45272 8.16878 4.38943 8.20792C4.32614 8.24706 4.27392 8.30174 4.23771 8.36675C4.2015 8.43176 4.18251 8.50494 4.18254 8.57936V12.1264C3.92136 12.1954 3.67974 12.3241 3.47671 12.5023L3.1275 11.452C2.95903 10.9481 2.8731 10.4202 2.87302 9.88888ZM5.49206 15.127C5.49206 15.0112 5.44607 14.9002 5.36421 14.8183C5.28235 14.7365 5.17133 14.6905 5.05556 14.6905H4.61905C4.38751 14.6905 4.16545 14.5985 4.00173 14.4348C3.83801 14.271 3.74603 14.049 3.74603 13.8175C3.74603 13.5859 3.83801 13.3639 4.00173 13.2001C4.16545 13.0364 4.38751 12.9444 4.61905 12.9444C4.73482 12.9444 4.84584 12.8984 4.92771 12.8166C5.00957 12.7347 5.05556 12.6237 5.05556 12.5079V9.26293C6.57332 9.91132 8.20668 10.2456 9.85714 10.2456C11.5076 10.2456 13.141 9.91132 14.6587 9.26293V12.5079C14.6587 12.6237 14.7047 12.7347 14.7866 12.8166C14.8684 12.8984 14.9795 12.9444 15.0952 12.9444C15.3268 12.9444 15.5488 13.0364 15.7126 13.2001C15.8763 13.3639 15.9683 13.5859 15.9683 13.8175C15.9683 14.049 15.8763 14.271 15.7126 14.4348C15.5488 14.5985 15.3268 14.6905 15.0952 14.6905H14.6587C14.543 14.6905 14.4319 14.7365 14.3501 14.8183C14.2682 14.9002 14.2222 15.0112 14.2222 15.127C14.2222 16.2847 13.7623 17.3949 12.9437 18.2136C12.1251 19.0322 11.0148 19.4921 9.85714 19.4921C8.69945 19.4921 7.58918 19.0322 6.77057 18.2136C5.95195 17.3949 5.49206 16.2847 5.49206 15.127ZM9.85714 20.3651C10.1498 20.3638 10.4418 20.3379 10.7302 20.2878V21.4939L9.85714 22.3669L8.98413 21.4939V20.2878C9.27246 20.3379 9.56449 20.3638 9.85714 20.3651ZM2.87302 27.9603C2.87302 27.8438 2.87694 27.7272 2.88437 27.6111C2.96075 26.6703 3.29365 25.7684 3.84685 25.0035C4.40004 24.2387 5.15236 23.6402 6.02198 23.2731L6.92294 22.8728L7.06175 23.7048C7.09192 23.8923 7.17111 24.0685 7.29131 24.2155C7.41151 24.3625 7.56844 24.4752 7.74619 24.542C7.87151 24.5904 8.0047 24.6153 8.13905 24.6153C8.2587 24.6152 8.37747 24.595 8.49044 24.5555L8.89683 25.1667C8.38337 25.951 8.11028 26.8683 8.11111 27.8058V29.0952H2.87302V27.9603Z" fill="#F2C94C"/>
<path fill-rule="evenodd" clip-rule="evenodd" d="M21.0929 27.8881H25.3527C25.8351 26.4639 27.8476 26.4776 28.3253 27.8881H28.6812V25.8352C28.6812 25.5795 28.4722 25.3699 28.2173 25.3699C27.1711 25.3699 26.1249 25.3699 25.0787 25.3699C24.8526 25.3699 24.6693 25.186 24.6693 24.9593V22.4958H17.6553V22.9884H18.408C18.9469 22.9884 18.9469 23.8096 18.408 23.8096H17.6553V24.6034H19.6204C20.1594 24.6034 20.1594 25.4246 19.6204 25.4246H17.6553V27.888H18.1205C18.6027 26.4638 20.6154 26.4777 21.0929 27.8881ZM16.8365 23.8096H16.3454C15.8063 23.8096 15.8063 22.9884 16.3454 22.9884H16.8365V22.0852C16.8365 21.8585 17.0198 21.6746 17.246 21.6746C17.8725 21.6746 24.7581 21.6773 24.7581 21.6746C25.8788 21.6746 26.8549 22.2311 27.4293 23.1978L28.232 24.5488C28.9325 24.5567 29.5 25.1314 29.5 25.8351V28.2987C29.5 28.5254 29.3167 28.7092 29.0907 28.7092H28.377C28.2302 29.4339 27.5918 29.9683 26.8391 29.9683C26.0864 29.9683 25.4479 29.4339 25.3012 28.7092H21.1446C20.9979 29.4339 20.3594 29.9683 19.6067 29.9683C18.854 29.9683 18.2156 29.4339 18.0688 28.7092H17.246C17.0198 28.7092 16.8365 28.5254 16.8365 28.2987V27.0668H15.9359C15.397 27.0668 15.397 26.2458 15.9359 26.2458H16.8365V25.4246H15.9359C15.397 25.4246 15.397 24.6034 15.9359 24.6034H16.8365V23.8096ZM27.3698 27.8622C27.6628 28.1561 27.6628 28.6328 27.3698 28.9267C26.8983 29.3996 26.0885 29.0632 26.0885 28.3944C26.0885 27.7257 26.8983 27.3893 27.3698 27.8622ZM27.2819 24.5487H25.4881V22.6071C26.0104 22.775 26.4375 23.1275 26.7289 23.618L27.2819 24.5487ZM20.1374 27.8622C20.4305 28.1561 20.4305 28.6328 20.1374 28.9267C19.666 29.3996 18.8561 29.0632 18.8561 28.3944C18.8563 27.7257 19.666 27.3893 20.1374 27.8622Z" fill="#F2C94C"/>
</svg>
