<svg width="32" height="32" viewBox="0 0 32 32" fill="none" xmlns="http://www.w3.org/2000/svg">
<g clip-path="url(#clip0_105_988)">
<path d="M7.46673 21.0667C5.70191 21.0667 4.26672 22.5018 4.26672 24.2667C4.26672 26.0315 5.70191 27.4667 7.46673 27.4667C9.23155 27.4667 10.6667 26.0315 10.6667 24.2667C10.6667 22.5018 9.23149 21.0667 7.46673 21.0667ZM7.46673 26.4C6.29017 26.4 5.33341 25.4432 5.33341 24.2667C5.33341 23.0901 6.29023 22.1333 7.46673 22.1333C8.64323 22.1333 9.60005 23.0902 9.60005 24.2667C9.60005 25.4432 8.64323 26.4 7.46673 26.4Z" fill="#E88645"/>
<path d="M25.6001 21.0667C23.8352 21.0667 22.4001 22.5018 22.4001 24.2667C22.4001 26.0315 23.8352 27.4667 25.6001 27.4667C27.3649 27.4667 28.8001 26.0315 28.8001 24.2667C28.8001 22.5018 27.3649 21.0667 25.6001 21.0667ZM25.6001 26.4C24.4235 26.4 23.4667 25.4432 23.4667 24.2667C23.4667 23.0901 24.4236 22.1333 25.6001 22.1333C26.7766 22.1333 27.7334 23.0902 27.7334 24.2667C27.7334 25.4432 26.7766 26.4 25.6001 26.4Z" fill="#E88645"/>
<path d="M31.9153 18.1114L27.1152 10.6447C27.0171 10.4922 26.8481 10.3999 26.6667 10.3999H20.8C20.5051 10.3999 20.2667 10.6388 20.2667 10.9332V24.2666C20.2667 24.5615 20.5051 24.7999 20.8 24.7999H22.9334V23.7332H21.3334V11.4666H26.3755L30.9334 18.5567V23.7333H28.2667V24.7999H31.4667C31.7616 24.7999 32 24.5616 32 24.2666V18.3999C32.0001 18.298 31.9708 18.1972 31.9153 18.1114Z" fill="#E88645"/>
<path d="M23.4667 17.3332V13.5999H27.7334V12.5332H22.9334C22.6385 12.5332 22.4001 12.7721 22.4001 13.0665V17.8665C22.4001 18.1615 22.6385 18.3998 22.9334 18.3998H30.9334V17.3332H23.4667V17.3332Z" fill="#E88645"/>
<path d="M20.8 6.6665H0.533314C0.238938 6.6665 0 6.90544 0 7.19982V24.2665C0 24.5615 0.238938 24.7999 0.533314 24.7999H4.80001V23.7332H1.06669V7.73313H20.2667V23.7332H10.1333V24.7999H20.8C21.095 24.7999 21.3334 24.5615 21.3334 24.2665V7.19982C21.3334 6.90544 21.095 6.6665 20.8 6.6665Z" fill="#E88645"/>
<path d="M3.73333 21.5999H0.533325V22.6665H3.73333V21.5999Z" fill="#E88645"/>
<path d="M20.2668 21.5999H11.2001V22.6665H20.2668V21.5999Z" fill="#E88645"/>
<path d="M31.4667 21.5999H29.3334V22.6665H31.4667V21.5999Z" fill="#E88645"/>
<path d="M20.8 8.7998H2.1333V9.86649H20.8V8.7998Z" fill="#E88645"/>
<path d="M8.00004 23.7332H6.93335V24.7998H8.00004V23.7332Z" fill="#E88645"/>
<path d="M26.1334 23.7332H25.0667V24.7998H26.1334V23.7332Z" fill="#E88645"/>
<path d="M9.60001 4.5332H2.1333V5.59989H9.60001V4.5332Z" fill="#E88645"/>
<path d="M1.06669 4.5332H0V5.59989H1.06669V4.5332Z" fill="#E88645"/>
</g>
<defs>
<clipPath id="clip0_105_988">
<rect width="32" height="32" fill="white"/>
</clipPath>
</defs>
</svg>
