<svg width="22" height="24" viewBox="0 0 22 24" fill="none" xmlns="http://www.w3.org/2000/svg">
<path fill-rule="evenodd" clip-rule="evenodd" d="M20.5951 9.66092H4.64722L19.9653 5.22349C20.0843 5.18898 20.1848 5.10846 20.2447 5C20.3045 4.89135 20.3188 4.76354 20.2843 4.64448L19.4827 1.87726C19.1624 0.772011 18.1333 0 16.98 0C16.737 0 16.4949 0.0345104 16.2601 0.102436L1.87798 4.2687C1.21279 4.46134 0.661533 4.90359 0.325376 5.51364C-0.0105987 6.12369 -0.0894797 6.82613 0.103158 7.49114L0.886308 10.1946V21.3317C0.886308 22.7661 2.05327 23.9331 3.48756 23.9331H9.10454C9.36273 23.9331 9.57198 23.7238 9.57198 23.4656C9.57198 23.2075 9.36273 22.9982 9.10454 22.9982H3.48774C2.56874 22.9982 1.82119 22.2507 1.82119 21.3317V14.9704H4.21593H4.21702H4.21794H7.8786H7.87969H7.88079H11.5415H11.5425H11.5436H15.2043H15.2054H15.2063H20.1276V21.3317C20.1276 22.2507 19.3801 22.9982 18.4611 22.9982H12.8441C12.5861 22.9982 12.3766 23.2075 12.3766 23.4656C12.3766 23.7238 12.5861 23.9331 12.8441 23.9331H18.4611C19.8955 23.9331 21.0625 22.7661 21.0625 21.3317V10.1284C21.0625 9.87017 20.8532 9.66092 20.5951 9.66092ZM12.3525 14.0355L14.3386 10.5958H16.9218L14.9359 14.0355H12.3525ZM8.68969 14.0355L10.6758 10.5958H13.2589L11.273 14.0355H8.68969ZM5.02701 14.0355L7.01292 10.5958H9.59627L7.61018 14.0355H5.02701ZM6.76495 7.98415L3.43917 4.78983L5.93104 4.06803C5.94857 4.0936 5.96902 4.1177 5.99239 4.14016L9.31818 7.33447L6.8263 8.05627C6.80877 8.03071 6.78814 8.00642 6.76495 7.98415ZM13.0287 2.10185L16.3545 5.29617L13.8626 6.01796C13.8451 5.9924 13.8246 5.96812 13.8012 5.94584L10.4755 2.75152L12.9673 2.02973C12.9849 2.05529 13.0053 2.07939 13.0287 2.10185ZM9.51045 3.1211L12.8362 6.31523L10.3444 7.03721C10.3268 7.01165 10.3064 6.98736 10.283 6.96508L6.95722 3.77077L9.4491 3.04897C9.46681 3.07435 9.48726 3.09864 9.51045 3.1211ZM16.5203 1.00044C16.6704 0.95698 16.825 0.934886 16.98 0.934886C17.7197 0.934886 18.3794 1.42935 18.5847 2.13746L19.2563 4.4555L17.3808 4.99872C17.3631 4.97316 17.3427 4.94905 17.3193 4.92659L13.9937 1.73246L16.5203 1.00044ZM1.14431 5.96465C1.35978 5.57335 1.71273 5.28996 2.13818 5.16671L2.4128 5.08709C2.43051 5.11266 2.45096 5.13694 2.47415 5.15922L5.79994 8.35354L1.67274 9.54917L1.00116 7.23112C0.877908 6.80586 0.928852 6.35613 1.14431 5.96465ZM1.82119 10.5958H5.93341L3.94751 14.0355H1.82119V10.5958ZM16.0154 14.0355L18.0013 10.5958H20.1276V14.0355H16.0154Z" fill="#2D9CDB"/>
<path fill-rule="evenodd" clip-rule="evenodd" d="M14.2064 18.9367C14.2064 18.7696 14.1173 18.6153 13.9727 18.5319L9.86596 16.1609C9.72134 16.0774 9.54313 16.0774 9.39852 16.1609C9.2539 16.2443 9.16479 16.3986 9.16479 16.5657V21.3077C9.16479 21.4746 9.2539 21.6289 9.39852 21.7123C9.47082 21.7541 9.55153 21.7751 9.63224 21.7751C9.71294 21.7751 9.79365 21.7541 9.86596 21.7123L13.9727 19.3415C14.1173 19.2581 14.2064 19.1038 14.2064 18.9367ZM10.0997 20.4981V17.3753L12.8041 18.9367L10.0997 20.4981Z" fill="#2D9CDB"/>
<path fill-rule="evenodd" clip-rule="evenodd" d="M10.9743 22.9982C10.7168 22.9982 10.5068 23.2082 10.5068 23.4656C10.5068 23.7231 10.7168 23.9331 10.9743 23.9331C11.2319 23.9331 11.4417 23.7231 11.4417 23.4656C11.4417 23.2082 11.2319 22.9982 10.9743 22.9982Z" fill="#2D9CDB"/>
</svg>
