<svg width="32" height="32" viewBox="0 0 32 32" fill="none" xmlns="http://www.w3.org/2000/svg">
<path d="M27.6446 1.14828C27.4048 1.0472 27.1287 1.15951 27.0276 1.39852C26.9258 1.63827 27.0381 1.91439 27.2774 2.01546C29.4551 2.93465 31.0691 5.11141 31.0691 7.73959C31.0691 13.4344 23.978 16.1483 20.2022 11.8578C18.0674 9.45199 18.0918 5.71542 20.4612 3.34603C21.8613 1.94515 23.7547 1.3514 25.5916 1.56917C25.8496 1.59872 26.0838 1.41561 26.1145 1.15706C26.1453 0.899008 25.9607 0.664877 25.7027 0.634115C19.5354 -0.0987958 15.4578 6.84872 19.0027 11.8578C18.625 11.8578 9.5503 11.8578 9.13795 11.8578C8.698 11.8578 8.34107 12.2154 8.34107 12.6546V18.7445L7.45679 20.4823C7.28931 20.8119 7.01001 21.0577 6.67872 21.1834C6.67872 20.4571 6.10914 19.9532 5.47242 19.9532H3.65674C3.03052 19.9532 2.44995 20.4391 2.44995 21.2079H1.28272C0.57544 21.2079 0 21.7833 0 22.4911V23.0611C0 23.3209 0.210205 23.5316 0.470703 23.5316C0.730469 23.5316 0.941407 23.3209 0.941407 23.0611V22.4911C0.941407 22.3023 1.09448 22.1493 1.28272 22.1493H2.44995V28.6651H1.28272C1.09448 28.6651 0.941407 28.5121 0.941407 28.3238V24.9437C0.941407 24.6832 0.730469 24.473 0.470703 24.473C0.210205 24.473 0 24.6832 0 24.9437V28.3238C0 29.0311 0.57544 29.6065 1.28272 29.6065H2.44995C2.44995 30.3758 3.0315 30.8617 3.65674 30.8617H5.47242C6.02539 30.8617 6.49219 30.4877 6.63404 29.9794C7.2129 30.1341 5.61841 30.0729 26.6868 30.0729C27.1719 30.0729 27.5667 29.6781 27.5667 29.193V14.3648C33.4204 11.9691 33.5086 3.63168 27.6446 1.14828ZM5.73731 25.38C5.73731 25.8807 5.73731 26.044 5.73731 26.0399V29.6549C5.73731 29.7987 5.61621 29.9205 5.47242 29.9205H3.65674C3.51319 29.9205 3.39136 29.7987 3.39136 29.6549C3.39136 29.2538 3.39136 21.5558 3.39136 21.1603C3.39136 21.0157 3.51319 20.8946 3.65674 20.8946H5.47242C5.61621 20.8946 5.73731 21.0157 5.73731 21.1603V25.38ZM14.3384 12.7989H17.9277V16.4923L16.5325 15.4007C16.2974 15.2169 15.9668 15.2179 15.7334 15.4007L14.3384 16.4923V12.7989ZM14.2302 29.129C6.75708 29.1317 7.12085 29.1786 6.67872 29.0047V22.1642C7.37378 22.0108 7.94971 21.5868 8.34107 20.8199C8.44507 20.6156 9.22071 19.0914 9.40919 18.7213C9.56519 18.4095 10.4465 19.1976 10.031 20.0135L9.57667 20.9066C9.27051 21.5086 9.70704 22.2208 10.3826 22.2208L16.2791 22.2188C16.5708 22.2188 16.8201 22.4581 16.8169 22.7367C16.8137 23.013 16.5857 23.2389 16.3084 23.2403H12.6289C12.3689 23.2403 12.1582 23.451 12.1582 23.711C12.1582 23.971 12.3689 24.1817 12.6289 24.1817C12.6314 24.1817 18.1218 24.1813 18.1231 24.1813C18.3601 24.1813 18.6074 24.399 18.6458 24.6105C18.7141 24.9518 18.5139 25.2018 18.1614 25.2018C18.1599 25.2018 17.4314 25.2022 12.5894 25.2022C12.3294 25.2022 12.1187 25.4129 12.1187 25.673C12.1187 25.9327 12.3294 26.1434 12.5894 26.1434C12.592 26.1434 17.3064 26.1434 17.3091 26.1437C17.761 26.1603 17.9607 26.7064 17.6499 27.0152C17.5537 27.1119 17.4258 27.1647 17.2896 27.1647C13.6814 27.1668 14.6824 27.1666 12.1372 27.1666C11.8772 27.1666 11.6665 27.3773 11.6665 27.6373C11.6665 27.8973 11.8772 28.108 12.1372 28.108C14.3787 28.108 14.3911 28.058 14.5916 28.2572C14.9104 28.577 14.6838 29.129 14.2302 29.129ZM26.6253 29.1315H23.9256V20.0819C23.9256 19.8221 23.7146 19.6112 23.4549 19.6112C23.1944 19.6112 22.9841 19.8221 22.9841 20.0819V29.1315H15.5864C15.7168 28.7894 15.7149 28.4298 15.5925 28.1073L17.2896 28.1061C18.3347 28.1061 19.0364 27.0335 18.6206 26.0753C19.6668 25.7516 19.9212 24.4466 19.1653 23.6878C18.657 23.1795 18.1499 23.2398 17.6648 23.2398C18.0286 22.2816 17.2944 21.2774 16.2791 21.2774L10.4434 21.2794L10.8701 20.441C11.5859 19.0333 10.3491 17.4811 9.28248 17.7347V12.7989H13.397V17.0934C13.397 17.451 13.6882 17.742 14.0462 17.742C14.3362 17.742 14.2774 17.735 16.1331 16.2835C17.9634 17.7154 17.9234 17.742 18.2197 17.742C18.5779 17.742 18.8692 17.451 18.8692 17.0934V12.7989H19.7966C20.6948 13.6971 21.7898 14.3272 22.9841 14.6478V18.1993C22.9841 18.4591 23.1944 18.67 23.4549 18.67C23.7146 18.67 23.9256 18.4591 23.9256 18.1993V14.8348C24.8213 14.9508 25.7446 14.898 26.6253 14.6749V29.1315Z" fill="#5D94CE"/>
<path d="M21.7484 7.65412C21.576 7.4593 21.2784 7.44148 21.0841 7.61384C20.8892 7.7862 20.8714 8.08357 21.0438 8.27815L22.9395 10.4185C23.3048 10.8306 23.9476 10.8299 24.3123 10.4205L28.6658 5.53449C28.8389 5.34064 28.8216 5.04304 28.6275 4.87019C28.4334 4.69733 28.1361 4.71418 27.963 4.90827L23.6268 9.77449L21.7484 7.65412Z" fill="#5D94CE"/>
</svg>
