<svg width="32" height="32" viewBox="0 0 32 32" fill="none" xmlns="http://www.w3.org/2000/svg">
<path d="M17.3333 11.3944L27.6117 13.4361C28.44 13.6111 29 14.3111 29 15.1394V27.0394C29 28.0077 28.2183 28.7894 27.25 28.7894H16.75C17.0767 28.7894 17.3333 28.5327 17.3333 28.2061V27.6227H27.25C27.565 27.6227 27.8333 27.3661 27.8333 27.0394V15.1394C27.8333 14.8711 27.6467 14.6261 27.3783 14.5677L17.3333 12.5844V11.3944Z" fill="#E88645"/>
<path d="M23.7499 17.1227C24.0766 17.1227 24.3333 17.3794 24.3333 17.7061C24.3333 18.0327 24.0766 18.2894 23.7499 18.2894H21.4166C21.0899 18.2894 20.8333 18.0327 20.8333 17.7061C20.8333 17.3794 21.0899 17.1227 21.4166 17.1227H23.7499Z" fill="#E88645"/>
<path d="M23.7499 20.6227C24.0766 20.6227 24.3333 20.8794 24.3333 21.2061C24.3333 21.5327 24.0766 21.7894 23.7499 21.7894H21.4166C21.0899 21.7894 20.8333 21.5327 20.8333 21.2061C20.8333 20.8794 21.0899 20.6227 21.4166 20.6227H23.7499Z" fill="#E88645"/>
<path d="M23.7499 24.1227C24.0766 24.1227 24.3333 24.3794 24.3333 24.7061C24.3333 25.0327 24.0766 25.2894 23.7499 25.2894H21.4166C21.0899 25.2894 20.8333 25.0327 20.8333 24.7061C20.8333 24.3794 21.0899 24.1227 21.4166 24.1227H23.7499Z" fill="#E88645"/>
<path d="M17.3334 28.206C17.3334 28.5327 17.0767 28.7894 16.7501 28.7894C16.4234 28.7894 16.1667 28.5327 16.1667 28.206V27.6227V11.8727C16.1667 11.6977 16.2484 11.5344 16.3767 11.4177C16.5167 11.3127 16.6917 11.266 16.8667 11.301L17.3334 11.3944V12.5844V27.6227V28.206Z" fill="#E88645"/>
<path d="M16.1666 27.6227V28.206C16.1666 28.5327 16.4233 28.7894 16.7499 28.7894H12.0833C12.4099 28.7894 12.6666 28.5327 12.6666 28.206V27.6227H16.1666Z" fill="#E88645"/>
<path d="M13.2499 6.62274C13.5766 6.62274 13.8333 6.87941 13.8333 7.20608C13.8333 7.53274 13.5766 7.78941 13.2499 7.78941H10.9166C10.5899 7.78941 10.3333 7.53274 10.3333 7.20608C10.3333 6.87941 10.5899 6.62274 10.9166 6.62274H13.2499Z" fill="#E88645"/>
<path d="M13.8333 10.7061C13.8333 11.0327 13.5766 11.2894 13.2499 11.2894H10.9166C10.5899 11.2894 10.3333 11.0327 10.3333 10.7061C10.3333 10.3794 10.5899 10.1227 10.9166 10.1227H13.2499C13.5766 10.1227 13.8333 10.3794 13.8333 10.7061Z" fill="#E88645"/>
<path d="M13.2499 13.6227C13.5766 13.6227 13.8333 13.8794 13.8333 14.2061C13.8333 14.5327 13.5766 14.7894 13.2499 14.7894H10.9166C10.5899 14.7894 10.3333 14.5327 10.3333 14.2061C10.3333 13.8794 10.5899 13.6227 10.9166 13.6227H13.2499Z" fill="#E88645"/>
<path d="M13.2499 17.1227C13.5766 17.1227 13.8333 17.3794 13.8333 17.7061C13.8333 18.0327 13.5766 18.2894 13.2499 18.2894H10.9166C10.5899 18.2894 10.3333 18.0327 10.3333 17.7061C10.3333 17.3794 10.5899 17.1227 10.9166 17.1227H13.2499Z" fill="#E88645"/>
<path d="M8 17.7061C8 18.0327 7.74333 18.2894 7.41667 18.2894H5.08333C4.75667 18.2894 4.5 18.0327 4.5 17.7061C4.5 17.3794 4.75667 17.1227 5.08333 17.1227H7.41667C7.74333 17.1227 8 17.3794 8 17.7061Z" fill="#E88645"/>
<path d="M7.41667 6.62274C7.74333 6.62274 8 6.87941 8 7.20608C8 7.53274 7.74333 7.78941 7.41667 7.78941H5.08333C4.75667 7.78941 4.5 7.53274 4.5 7.20608C4.5 6.87941 4.75667 6.62274 5.08333 6.62274H7.41667Z" fill="#E88645"/>
<path d="M7.41667 10.1227C7.74333 10.1227 8 10.3794 8 10.7061C8 11.0327 7.74333 11.2894 7.41667 11.2894H5.08333C4.75667 11.2894 4.5 11.0327 4.5 10.7061C4.5 10.3794 4.75667 10.1227 5.08333 10.1227H7.41667Z" fill="#E88645"/>
<path d="M7.41667 13.6227C7.74333 13.6227 8 13.8794 8 14.2061C8 14.5327 7.74333 14.7894 7.41667 14.7894H5.08333C4.75667 14.7894 4.5 14.5327 4.5 14.2061C4.5 13.8794 4.75667 13.6227 5.08333 13.6227H7.41667Z" fill="#E88645"/>
<path d="M11.5001 22.3727C11.5001 22.0461 11.2317 21.7894 10.9167 21.7894H7.41675C7.09008 21.7894 6.83341 22.0461 6.83341 22.3727V27.6227H5.66675V22.3727C5.66675 21.4044 6.44841 20.6227 7.41675 20.6227H10.9167C11.8851 20.6227 12.6667 21.4044 12.6667 22.3727V27.6227H11.5001V22.3727Z" fill="#E88645"/>
<path d="M6.83341 27.6227H11.5001H12.6667V28.206C12.6667 28.5327 12.4101 28.7894 12.0834 28.7894H6.25008C5.92341 28.7894 5.66675 28.5327 5.66675 28.206V27.6227H6.83341Z" fill="#E88645"/>
<path d="M3.04167 1.02271L15.8633 2.97105C16.715 3.11105 17.3333 3.83438 17.3333 4.69771V11.3944L16.8667 11.301C16.6917 11.266 16.5167 11.3127 16.3767 11.4177C16.2483 11.5344 16.1667 11.6977 16.1667 11.8727V4.69771C16.1667 4.40605 15.9567 4.16105 15.6767 4.11438L2.855 2.17771C2.82 2.16605 2.785 2.16605 2.75 2.16605C2.61 2.16605 2.48167 2.21271 2.37667 2.30605C2.23667 2.42271 2.16667 2.57438 2.16667 2.74938V27.0394C2.16667 27.366 2.435 27.6227 2.75 27.6227H5.66667V28.206C5.66667 28.5327 5.92333 28.7894 6.25 28.7894H2.75C1.78167 28.7894 1 28.0077 1 27.0394V2.74938C1 2.23605 1.22167 1.74605 1.61833 1.41938C2.015 1.08105 2.52833 0.941047 3.04167 1.02271Z" fill="#E88645"/>
<path d="M15.25 30.1224V21.45H25.6L26.5 21.9L29.2 25.05L30.55 25.95V29.55H30.1L28.75 29.1V30.9H27.4L25.6 30.1224L20.2 29.55L18.4 30.9L16.8654 30.1224H15.25Z" fill="white"/>
<path fill-rule="evenodd" clip-rule="evenodd" d="M20.1664 29.0912H25.6557C26.2772 27.2366 28.8707 27.2544 29.4862 29.0912H29.9449V26.418C29.9449 26.0849 29.6756 25.812 29.3471 25.812C27.9989 25.812 26.6508 25.812 25.3026 25.812C25.0112 25.812 24.775 25.5726 24.775 25.2774V22.0693H15.7365V22.7108H16.7065C17.401 22.7108 17.401 23.7802 16.7065 23.7802H15.7365V24.8139H18.2687C18.9634 24.8139 18.9634 25.8832 18.2687 25.8832H15.7365V29.0911H16.336C16.9574 27.2365 19.551 27.2546 20.1664 29.0912ZM14.6814 23.7802H14.0485C13.3539 23.7802 13.3539 22.7108 14.0485 22.7108H14.6814V21.5346C14.6814 21.2394 14.9176 21 15.209 21C16.0164 21 24.8894 21.0035 24.8894 21C26.3335 21 27.5915 21.7246 28.3317 22.9835L29.3661 24.7428C30.2687 24.7531 31 25.5014 31 26.4178V29.6258C31 29.921 30.7638 30.1604 30.4725 30.1604H29.5528C29.3637 31.1041 28.541 31.8 27.571 31.8C26.6011 31.8 25.7783 31.1041 25.5892 30.1604H20.233C20.0439 31.1041 19.2211 31.8 18.2512 31.8C17.2812 31.8 16.4585 31.1041 16.2694 30.1604H15.209C14.9176 30.1604 14.6814 29.921 14.6814 29.6258V28.0218H13.5209C12.8264 28.0218 12.8264 26.9526 13.5209 26.9526H14.6814V25.8832H13.5209C12.8264 25.8832 12.8264 24.8139 13.5209 24.8139H14.6814V23.7802ZM28.2549 29.0574C28.6326 29.4402 28.6326 30.0609 28.2549 30.4437C27.6474 31.0594 26.6038 30.6214 26.6038 29.7505C26.6038 28.8797 27.6474 28.4417 28.2549 29.0574ZM28.1416 24.7426H25.8301V22.2142C26.5031 22.4329 27.0536 22.8919 27.429 23.5306L28.1416 24.7426ZM18.9351 29.0574C19.3127 29.4402 19.3127 30.0609 18.9351 30.4437C18.3275 31.0594 17.284 30.6214 17.284 29.7505C17.2841 28.8797 18.3275 28.4417 18.9351 29.0574Z" fill="#E88645"/>
</svg>
